<svg xmlns="http://www.w3.org/2000/svg" width="877.426" height="434.835"><path id="a" stroke="none" d="M387.72 215.508c-4.175 9.489-8.122 18.669-12.209 27.786-3.348 7.47-7.568 9.374-16.196 7.588-6.991-1.447-10.272-5.534-10.443-13.122-.071-3.142-.012-6.287-.012-10.091-10.689.089-17.76-5.999-22.146-15.676-2.417.48-2.837 2.469-3.667 3.947-4.743 8.445-8.126 17.515-11.901 26.401-1.805 4.246-3.599 8.464-9.051 8.828-6.155.411-12.342.098-16.082-5.691-2.172-3.362-3.998-3.055-6.83-1.263-9.03 5.716-18.953 7.9-29.582 7.167-4.458-.308-8.696-1.391-11.826-4.632-2.402-2.487-4.197-2.166-6.818-.437-9.09 5.995-19.119 6.554-29.279 3.792-7.667-2.085-11.543-7.062-11.671-15.006-.35-21.764 8.06-39.927 24.171-54.294 6.802-6.065 15.436-8.355 24.627-8.043 2.699.091 5.856.146 7.622 1.914 5.309 5.315 10.886 2.846 16.563 1.452 4.466-1.096 8.954-2.108 13.195-3.102 1.811 2.38.527 4.045 0 5.693-5.471 17.124-11.082 34.204-16.419 51.369-1.338 4.302-3.794 9.283.723 13.032 4.397 3.649 8.932.415 13.134-1.211 6.683-2.587 10.635-6.894 12.39-14.628 3.418-15.065 8.485-29.755 12.867-44.602.432-1.463.888-3.137 2.471-3.532 8.34-2.081 16.718-4.007 26.686-6.367l-20.541 67.214.669.265c.701-1.898 1.456-3.777 2.092-5.696 2.152-6.489 4.415-12.935 7.552-19.025 3.887-7.544 7.592-15.074 8.963-23.649.817-5.11 3.672-9.612 6.913-13.712 2.005-2.536 4.502-4.416 7.579-5.502 3.804-1.342 7.377-1.16 9.892 2.31 2.614 3.608 1.212 7.018-1.424 9.962-4.888 5.46-9.949 10.765-14.828 16.232-4.276 4.79-2.638 9.983-.486 14.972 1.985 4.605 5.738 6.695 10.775 6.574 4.093-.098 6.732-1.538 7.969-5.918 3.078-10.891 6.747-21.614 9.866-32.495 1.112-3.88 3.189-5.742 7.084-6.533 7.124-1.447 14.159-3.327 22.8-5.403l-21.356 69.836.541.178c3.306-8.325 6.457-16.715 9.957-24.957 4.632-10.907 10.043-21.44 16.877-31.152 5.02-7.135 11.09-12.972 20.424-13.761 10.899-.921 17.528 6.323 15.384 17.1-1.825 9.168-5.741 17.714-8.571 26.589-2.765 8.673-5.8 17.26-8.169 26.083 4.644-10.933 9.251-21.883 13.942-32.797 4.647-10.813 10.85-20.642 19.062-29.113 4.15-4.281 9.049-7.138 15.171-7.958 11.411-1.527 18.816 6.134 15.543 17.161-3.977 13.401-8.785 26.555-13.161 39.84-.829 2.514-1.704 5.112-1.891 7.719-.423 5.865 3.343 8.66 8.933 6.925 5.801-1.8 10.844-5.034 15.869-8.337 2.553-1.677 2.421-4.076 2.469-6.607.379-19.746 8.814-35.569 23.742-48.114 4.249-3.57 9.236-5.942 14.554-7.55 1.89-.571 4.085-1.566 5.549.374 1.284 1.702-.134 3.536-.948 5.106-5.995 11.557-11.107 23.476-14.861 35.953-2.309 7.677-4.131 15.44-3.598 23.561.224 3.402.482 6.939 4.252 8.313 3.923 1.429 7.214-.351 9.826-3.187 6.571-7.135 10.154-15.946 13.64-24.808.914-2.323-.53-3.814-1.522-5.479-5.904-9.909-8.738-20.453-6.737-32.021.028-.163.015-.333.039-.498 1.191-8.334 6.369-14.397 12.619-14.78 6.472-.396 12.829 5.117 14.714 13.361 2.705 11.832 1.477 23.48-2.454 34.897-1.72 4.994-.993 6.125 4.225 6.666.826.086 1.664.079 2.496.092 10.887.167 12.005-.58 15.233-10.715 2.677-8.407 5.427-16.798 7.788-25.296 1.108-3.988 2.899-6.187 7.256-6.857 7.033-1.081 13.958-2.87 22.653-4.729l-20.799 65.744c4.597-10.183 8.473-20.631 13.38-30.635 4.565-9.306 9.919-18.145 16.682-26.023 5.571-6.491 12.472-10.373 21.401-9.884 7.04.385 11.818 4.859 12.343 11.88.266 3.567-.671 6.898-1.771 10.254-4.304 13.123-9.959 25.779-13.532 39.149-.907 3.393-2.032 7.095 1.478 9.636 3.319 2.403 7.087 1.622 10.448-.071 3.556-1.791 6.842-4.11 10.319-6.07 2.56-1.444 3.616-3.568 4.065-6.42 2.735-17.356 9.585-33.576 14.093-50.446.354-1.325.885-2.703 2.301-3.061 8.154-2.059 16.321-4.088 24.536-5.294 1.306 2.69.089 4.496-.462 6.321-4.866 16.095-9.803 32.169-14.679 48.261-1.014 3.346-2.083 6.723-1.897 10.272.234 4.488 3.481 6.701 7.56 4.826 6.155-2.829 11.35-6.5 13.4-13.761 4.206-14.896 9.089-29.6 13.366-44.476 1.222-4.248 3.248-6.456 7.689-7.084 5.096-.72 10.101-2.088 15.142-3.193 1.774-.389 3.541-1.043 5.963.532l-22.474 73.96c3.889.251 6.593-1.114 9.248-2.257a94.426 94.426 0 0 0 18.597-10.675c1.382-1.016 3.007-3.755 4.821-1.115 1.548 2.254-.977 3.549-2.511 4.654-7.598 5.468-15.452 10.599-24.59 13.048-5.132 1.375-7.872 4.063-9.8 9.181-5.381 14.286-20.998 23.581-36.581 22.665-5.66-.333-10.002-3.397-11.477-8.099-1.333-4.25.661-10.226 4.656-13.417 3.829-3.059 8.179-5.378 12.981-6.154 6.707-1.084 9.218-5.039 9.138-11.986-13.291 4.468-26.888 11.413-38.574-3.16-2.235-.034-3.714 1.739-5.458 2.907-8.594 5.76-18.008 8.457-28.364 7.846-13.925-.822-21.261-9.931-17.475-23.416 3.909-13.924 9.157-27.47 13.764-41.2.558-1.665 1.699-3.256 1.082-5.579-4.954 3.367-8.102 8.022-11.164 12.693-9.913 15.122-17.106 31.621-24.083 48.213-2.127 5.057-4.846 8.935-11.039 9.308-12.254.737-18.007-5.723-16.078-18.433.345-2.274 1.4-4.447.952-7.449-6.17-.251-12.514.475-18.637-1.355-1.851-.553-2.301 1.588-3.022 2.798-2.9 4.87-5.817 9.695-9.82 13.804-11.321 11.624-24.959 13.676-40.043 9.884-6.112-1.537-9.899-5.801-12.677-11.725-3.306 2.094-6.27 4.148-9.395 5.918-8.971 5.08-18.562 7.232-28.837 5.542-11.357-1.869-16.812-9.725-14.085-20.905 3.319-13.607 8.677-26.578 13.07-39.851.869-2.625 1.615-5.291 2.809-9.228-6.424 4.809-10.064 10.095-13.419 15.58-8.984 14.684-15.49 30.595-22.675 46.166-3.863 8.374-7.798 10.64-15.878 8.874-7.476-1.635-11.686-7.048-11.504-15.292.194-8.84 4.208-16.725 6.729-24.97 2.955-9.664 6.204-19.237 8.783-29.105-9.845 9.718-16.327 21.576-22.678 33.967m-154.757-33.194c-7.051 12.956-11.54 26.889-15.486 41.011-1.295 4.633-2.515 9.335-1.977 14.254.628 5.748 5.053 8.34 10.329 6.037 4.502-1.966 8.284-4.368 7.173-10.313-.199-1.069.277-2.298.572-3.42 3.811-14.499 9.025-28.557 13.486-42.853 1.701-5.452-1.061-9.035-6.815-8.916-2.912.06-5.028 1.518-7.282 4.2m317.836 6.261c-.41-3.951-.682-7.925-1.296-11.844-.27-1.719-.778-3.949-2.986-4.109-2.259-.164-2.809 1.961-3.387 3.69-.313.936-.568 1.916-.663 2.894-.818 8.395.54 16.525 3.232 24.449.42 1.237.693 2.976 2.939 3.055 1.132-5.733 1.893-11.446 2.161-18.135m155.756 83.326c1.992-3.89 4.226-7.704 4.238-12.722-4.873.99-8.934 2.744-12.552 5.44-3.19 2.377-4.52 5.646-3.853 9.617.34 2.028 1.613 3.273 3.631 3.562 4.205.602 6.341-2.106 8.536-5.897Z" opacity="1" style="fill:#799f28"/><path id="b" stroke="none" d="M341.293 290.326c-33.446 4.287-66.411 8.857-99.461 12.694-25.455 2.955-50.975 5.584-76.676 5.34-13.734-.131-22.393-7.826-24.325-21.489-2.617-18.498.929-36.471 4.564-54.411 2.509-12.384 5.489-24.673 8.212-37.014.381-1.726.5-3.511.824-5.88-6.879 4.019-12.193 7.432-13.451 16.22-2.924 20.429-7.834 40.535-15.778 59.702-5.019 12.108-11.932 23.06-21.651 32.065-4.733 4.385-10.09 7.552-16.402 9.127-9.263 2.312-15.58-.574-19.567-9.247-4.01-8.723-3.616-17.971-2.04-26.988 3.411-19.519 15.781-33.791 29.225-47.203 4.472-4.461 9.258-8.679 14.312-12.456 3.687-2.755 5.035-6.154 5.855-10.429 4.354-22.698 10.448-44.786 24.177-63.948 2.489-3.473 5.21-6.782 8.291-10.773-7.014 3.931-13.239 7.656-19.968 10.47-8.164 3.415-16.382 3.79-24.939 1.8-5.01-1.165-10.146-1.89-15.265-2.46-11.932-1.327-18.062 2.408-22.603 13.527-.88 2.155-1.517 4.409-2.293 6.607-.589 1.667-1.738 2.418-3.494 1.871-1.656-.516-1.736-1.77-1.411-3.218 4.193-18.648 10.312-36.419 25.769-48.982 10.565-8.587 22.511-10.886 35.601-5.568 6.814 2.768 13.267 6.215 19.866 9.392 6.251 3.01 12.624 4.163 19.23 1.078 1.435-.67 2.867-1.039 4.017.53 1.106 1.508.924 2.876.119 4.607-10.171 21.878-13.41 45.481-16.965 68.997-.043.283.207.61.606 1.686 5.703-3.894 12.061-6.005 14.179-14.007 4.532-17.121 10.825-33.62 21.274-48.187 5.38-7.5 11.673-14.138 19.436-19.228 2.07-1.357 4.31-2.591 6.639-3.395 10.07-3.472 17.1 1.071 18.157 11.75.985 9.948-1.274 19.132-6.698 27.606-7.245 11.32-17.336 19.709-27.988 27.507-2.854 2.089-4.581 4.456-5.442 7.94-7.349 29.734-13.557 59.692-17.508 90.072-.898 6.907-.998 13.978-.214 20.961.943 8.404 3.897 10.963 12.249 10.824 27.246-.454 53.941-5.171 80.55-10.502 39.131-7.839 78.103-16.548 117.62-22.319 27.998-4.089 56.128-6.916 84.412-8.415 23.155-1.227 46.302-1.172 69.445-.761 29.968.531 59.814 3.044 89.592 6.57 17.523 2.075 34.964 4.627 52.399 7.285 1.581.241 3.408-.075 4.82 2.345-7.159 2.851-14.194 5.673-21.243 8.456-12.393 4.891-24.795 9.759-37.194 14.634-2.361.928-4.561 1.638-7.038-.152-14.053-10.158-30.373-14.076-47.111-16.589-26.812-4.027-53.771-3.517-80.762-2.475-32.801 1.266-65.377 4.978-97.966 8.56-15.211 1.672-30.363 3.877-45.987 5.873M94.392 241.723c-8.564 11.169-15.792 23.076-20.362 36.482-1.479 4.339-1.91 8.763-1.573 13.289.234 3.127 1.175 6.089 4.195 7.456 3.146 1.423 5.792-.484 8.162-2.318 3.108-2.405 4.921-5.812 6.636-9.266 7.991-16.083 12.587-33.27 16.359-50.704.922-4.258 2.581-8.492 1.818-13.669-5.839 5.866-10.194 12.119-15.235 18.73m104.049-91.916c.684-.726 1.399-1.427 2.049-2.183 7.189-8.36 13.766-17.147 17.508-27.649 1.319-3.699 3.063-8.874-.771-10.996-4.237-2.345-5.95 3.27-8.469 5.809-.573.577-.933 1.373-1.354 2.089-5.842 9.937-9.884 20.674-13.911 31.413-.987 2.631-1.764 5.34-2.637 8.013l1.208.76c1.965-2.246 3.93-4.492 6.377-7.256Z" opacity="1" style="fill:#005520"/><path id="c" stroke="none" d="M665.813 288.441c34.789-9.856 64.151 6.969 77.754 29.074 25.513 41.459 1.987 94.411-46.078 103.748-39.126 7.601-77.099-22.432-79.816-62.424-2.313-34.03 19.47-61.794 48.14-70.398m49.964 38.773c.154-16.656-9.085-28.89-23.245-30.778-18.774-2.504-31.69 5.588-35.69 22.36-1.671 7.005-1.671 7.005 5.401 8.145 8.676 1.4 8.676 1.4 11.61-6.69 2.331-6.425 7.522-9.432 14.575-8.442 5.423.762 9.375 5.343 9.997 11.494.789 7.789-1.812 14.413-6.916 20.151-8.401 9.446-17.037 18.692-25.219 28.324-6.872 8.091-11.49 17.357-12.454 28.05 2.247 1.624 4.484 1.101 6.588 1.11 14.32.056 28.642.167 42.96.013 14.626-.158 12.179 2.55 12.465-13.308.06-3.302-1.396-4.336-4.53-4.293-8.491.119-16.985.066-25.476-.011-1.723-.015-3.668.607-5.309-1.198.308-2.194 1.787-3.831 3.195-5.38 4.814-5.295 9.716-10.51 14.637-15.706 8.874-9.372 15.781-19.763 17.411-33.841Z" opacity="1" style="fill:#ef1923"/><path id="d" stroke="none" d="M23.213 155.461c2.075.068 2.345-1.367 3.024-2.494 3.379-5.609 8.498-5.949 12.345-.77 1.024 1.378 1.637 2.479 3.853 2.232 6.089-.676 9.557 2.559 8.974 8.678-.306 3.202.411 5.039 2.91 7.077 3.361 2.74 3.727 8.018.791 11.274-2.263 2.509-3.257 4.683-2.845 8.201.573 4.886-2.846 8.311-7.824 8.189-2.349-.058-3.11.9-4.147 2.574-3.418 5.515-7.825 5.716-11.906.705-.908-1.114-1.427-2.392-3.417-2.357-8.483.149-10.794-2.605-9.701-11.103.063-.486.05-.981.07-1.435-7.229-5.601-7.752-9.68-1.731-16.365 1.566-1.739.491-3.07.324-4.582-.748-6.74 2.299-10.141 9.28-9.824Z" opacity="1" style="fill:#a99965"/><path id="e" stroke="none" d="M819.484 165.57c-.512 2.631-.205 4.203 1.963 5.851 4.574 3.477 4.718 9.348.488 13.432-1.666 1.608-2.001 2.919-1.71 5.146.845 6.454-1.925 9.585-8.549 9.788-1.673.051-2.277.742-3.052 1.916-4.235 6.422-8.13 6.728-12.695.918-1.041-1.324-1.838-1.833-3.652-1.656-6.209.607-9.815-2.891-9.174-9.153.276-2.696-.411-4.097-2.423-5.809-3.921-3.336-3.905-9.061-.327-12.884 1.238-1.325 2.479-2.18 2.097-4.554-1.388-8.628 1.913-11.892 10.648-10.662 1.38-3.418 2.724-7.159 7.494-7.217 4.293-.053 5.975 2.973 7.375 6.252 8.177-1.525 11.12.604 11.517 8.632Z" opacity="1" style="fill:#a79c64"/><path id="f" stroke="none" d="M27.905 74.273c-1.438-5.465-.755-10.635-.796-15.765-.108-13.636.146-27.276-.105-40.909-.089-4.819 1.738-6.612 6.344-6.476 6.309.188 12.617.129 18.935.374 15.675.608 18.766 13.964 16.689 23.889-1.862 8.901-6.564 12.774-15.769 14.092-3.814.545-7.639.787-11.437.479-4.669-.38-6.765 1.146-6.354 6.116.355 4.295.083 8.642.064 12.966-.028 6.564-.678 7.055-7.571 5.234m27.607-53.59c-4.094-.929-8.251-.493-12.38-.517-7.506-.043-7.765.111-7.61 7.378.33 15.576-3.297 13.36 14.115 13.463 4.785.028 8.906-1.101 10.668-6.279 1.793-5.264.464-9.804-4.793-14.045Z" opacity="1" style="fill:#252324"/><path id="g" stroke="none" d="M88.102 191.523c-1.868.134-3.188.37-4.138 1.919-.657 1.07-1.758 2.12-2.903 2.594-4.253 1.76-16.132-5.628-16.584-10.187-.048-.492.259-1.229.021-1.461-6.243-6.068-2.019-12.414-.788-18.816.68-3.535 1.81-6.103 5.543-6.581 2.025-.258 3.34-1.137 4.441-2.758.974-1.432 2.42-2.243 4.216-2.326 4.001-.183 5.196 4.85 9.903 4.611 4.466-.226 5.089 4.345 4.802 8.324-.053.729.315 1.709.835 2.224 3.933 3.895 4.041 7.746.167 11.737-.914.941-.523 2.185-.465 3.344.178 3.546-1.164 6.147-5.05 7.376Z" opacity="1" style="fill:#f9814d"/><path id="h" stroke="none" d="M855.299 160.178c6.7 1.41 3.598 7.766 6.083 10.871 3.208 4.01 4.448 7.305.584 11.304-.115.119-.36.252-.344.341 1.54 8.298-5.631 10.074-10.277 13.73-.773.608-1.524 1.366-2.416 1.679-4.481 1.571-14.225-6.572-16.42-10.322-4.158-7.103-2.433-13.422-.748-20.353.855-3.516 1.994-6.255 5.804-6.129 2.343.077 3.061-.951 4.165-2.547 2.557-3.693 5.604-3.889 8.583-.423 1.382 1.608 2.595 2.425 4.986 1.849Z" opacity="1" style="fill:#f9814d"/><path id="i" stroke="none" d="M125.998 45.05c1.215-4.981-.62-8.039-5.195-9.367-4.971-1.442-9.629.079-11.403 4.434-1.457 3.574-3.728 4.149-6.618 2.907-3.587-1.542-1.442-4.275-.542-6.33 3.081-7.03 11.769-10.512 20.923-8.608 8.174 1.701 11.115 5.731 11.305 15.002.214 10.443-.89 20.935 1.299 31.445-3.8 1.466-6.947 1.497-8.876-2.682-3.077 1.355-5.831 2.927-8.792 3.805-8.626 2.555-16.253-1.366-18.223-9.096-2.173-8.532 2.462-15.683 11.42-17.833 4.817-1.156 9.967-.898 14.702-3.677m-5.169 22.438c5.342-4.532 6.447-7.723 4.438-13.69-3.635.717-7.37 1.319-11.035 2.211-4.717 1.149-7.472 4.467-6.501 7.869 1.313 4.601 4.917 5.434 9.084 4.901 1.131-.145 2.22-.618 4.014-1.291Z" opacity="1" style="fill:#252324"/><path id="j" stroke="none" d="M214.53 70.467c.114 1.931 1.66 3.905-.909 4.609-3.183.873-5.941.206-7.426-3.503-4.343 2.219-8.226 4.83-13.132 4.796-7.573-.054-12.775-3.924-14.026-10.828-1.346-7.423 2.167-13.848 9.366-16.121 4.091-1.291 8.46-1.687 12.677-2.609 2.033-.444 4.519-.487 4.754-3.463.228-2.9-.748-5.223-3.326-6.751-5.057-2.999-11.587-1.358-13.865 4.064-1.525 3.629-3.97 3.25-6.451 2.395-3.544-1.221-1.46-3.78-.781-5.789 3.906-11.558 22.758-11.621 28.684-5.75 2.481 2.457 3.354 5.609 3.442 9.09.25 9.808.62 19.612.993 29.86m-9.144-9.91c.423-2.232 1.071-4.48-.528-6.97-4.47 1.005-9.017 1.803-13.421 3.09-3.305.965-4.586 3.638-4.047 7.035.514 3.239 2.563 4.811 5.763 5.142 5.447.563 9.275-1.827 12.233-8.297Z" opacity="1" style="fill:#252324"/><path id="k" stroke="none" d="M157.206 39.064c1.843-2.173 3.729-3.907 5.035-6.003 2.898-4.651 6.963-5.06 11.879-3.854.186 2.801-2.287 3.913-3.517 5.703-1.123 1.633-2.611 3.017-3.952 4.499-6.003 6.628-5.925 6.583-1.629 14.377 3.739 6.784 8.142 13.235 11.319 20.747-5.148 1.477-8.719 1.293-11.159-3.819-2.782-5.825-6.266-11.315-9.515-17.075-3.144.956-4.25 2.901-4.267 5.658-.023 3.832-.071 7.663-.055 11.494.011 2.632-.559 4.502-3.829 4.556-3.089.051-4.206-1.431-4.211-4.216-.034-18.656-.056-37.312-.093-55.969-.005-2.683 1.297-3.947 3.971-3.976 2.889-.031 4.243 1.233 4.223 4.213-.067 9.626-.025 19.253-.025 30.341 2.449-2.798 4.027-4.6 5.825-6.676Z" opacity="1" style="fill:#252324"/><path id="l" stroke="none" d="M293.41 58.026c-.011 4.493-.058 8.488-.019 12.482.028 2.794-.416 4.897-4.027 4.823-3.432-.07-3.581-2.174-3.572-4.688.028-7.656.047-15.312.001-22.968-.048-7.956-2.949-12.257-8.088-12.152-5.334.109-9.149 4.966-9.273 12.128-.131 7.653-.111 15.311-.071 22.966.015 2.895-.637 4.744-4.138 4.743-3.686-.001-3.931-2.23-3.931-4.926 0-17.798-.01-35.596-.015-53.394-.001-3.035.259-5.615 4.46-5.544 4.38.075 3.535 3.106 3.588 5.613.094 4.462.026 8.927.026 13.238 2.446.878 3.592-.738 5.036-1.353 8.854-3.766 17.36.751 19.269 10.118 1.247 6.122.515 12.278.754 18.914Z" opacity="1" style="fill:#252324"/><path id="m" stroke="none" d="M239.61 68.665c3.775-.953 6.177-2.929 6.069-6.623-.104-3.56-3.294-4.236-5.913-5.198-3.585-1.317-7.311-2.287-10.813-3.788-5.098-2.186-7.948-6.975-7.498-12.371.464-5.558 2.988-9.785 8.463-11.854 8.213-3.104 18.548.323 21.022 7.171.654 1.812 2.282 4.291-.627 5.647-2.627 1.225-4.993 1.16-6.505-2.189-2.031-4.501-6.118-4.69-10.246-3.819-2.199.464-3.928 1.857-4.18 4.383-.257 2.568 1.163 4.104 3.375 4.922 4.05 1.497 8.18 2.779 12.217 4.308 8.178 3.096 11.3 11.528 6.963 19.156-3.754 6.605-9.923 8.418-17.061 7.843-6.67-.538-11.64-4.481-13.56-10.778-.631-2.069-1.428-4.301 1.726-5.221 2.519-.736 4.466-.696 5.491 2.365 1.708 5.102 5.7 6.554 11.077 6.046Z" opacity="1" style="fill:#252324"/><path id="n" stroke="none" d="M233.107 408.308c-2.809.262-3.872-1.1-4.891-3.091-1.305-2.551-3.966-2.723-5.07-.348-2.893 6.224-8.09 2.96-12.204 3.26-3.748.273-3.355-3.904-4.568-6.253-.595-1.154-.925-2.445-2.083-3.651 0 2.203.022 4.408-.006 6.611-.028 2.118-.842 3.45-3.244 3.479-2.353.028-3.95-.694-3.96-3.305a4073.21 4073.21 0 0 1-.01-23.965c.005-2.239 1.171-3.257 3.437-3.31 2.47-.057 3.78.93 3.78 3.461v5.329c2.911-3.821 2.253-11.04 10.521-7.918-3.984 8.579-6.725 17.513.948 26.395 1.776-7.537 3.428-14.752 5.195-21.939.607-2.467.636-5.318 4.553-5.398 4.095-.084 4.361 2.696 5.014 5.469 1.639 6.952 3.353 13.887 4.958 20.847.422 1.829 1.506 4.16-2.37 4.327Zm-9.255-13.377h4.06l-2.03-8.23-2.03 8.23Z" opacity="1" style="fill:#2f2e2c"/><path id="o" stroke="none" d="M26.794 138.99c-3.914-.151-5.95-1.87-5.954-5.565-.001-1.639-.903-2.754-1.731-4.007-1.386-2.098-1.716-4.372-.089-6.498.958-1.252 1.656-2.411 1.176-4.07-.17-.587-.014-1.33.174-1.947 1.244-4.087 10.636-7.472 14.168-4.975 1.837 1.298 4.918.047 5.81 2.223 1.678 4.091 4.47 8.167 3.975 12.643-.8 7.221-3.955 10.789-10.651 14.356-2.951 1.573-4.598-.669-6.878-2.16Z" opacity="1" style="fill:#0691de"/><path id="p" stroke="none" d="M788.567 119.241c2.319-4.32 6.84-5.103 10.293-7.16 2.606-1.552 10.883 5.259 11.02 8.558.066 1.574.869 2.404 1.683 3.416 1.37 1.701 1.857 3.704.824 5.593-1.22 2.228-1.931 4.486-2.265 6.997-.227 1.713-1.492 3.163-3.35 3.216-1.939.056-2.927 1.127-4.053 2.42-1.712 1.968-3.764 2.097-5.625.199-1.109-1.131-2.139-1.984-3.864-1.709-.581.093-1.304-.265-1.869-.583-2.983-1.681-6.078-12.646-4.037-15.423 1.273-1.733.911-3.425 1.243-5.524Z" opacity="1" style="fill:#0794e1"/><path id="q" stroke="none" d="M70.665 220.21c-2.661 1.965-5.035 3.754-7.607 5.187-2.163 1.205-10.353-2.856-11.08-5.331-1.427-4.859-4.168-9.533-1.108-14.873 1.013-1.768 7.434-7.811 9.744-7.946 2.735-.16 8.939 5.46 10.279 7.709 3.078 5.166 1.409 9.964-.228 15.254Z" opacity="1" style="fill:#afcb5b"/><path id="r" stroke="none" d="M818.11 211.431c1.931-3.253 1.315-6.679 5.525-9.357 5.34-3.397 8.479-.759 12.536.569.59.193 1.146.699 1.555 1.195 2.647 3.206 3.659 15.046.835 18.349-2.343 2.741-6.519 6.295-9.261 5.23-3.37-1.308-9.642-.827-9.567-7.487.031-2.77-4.081-4.795-1.623-8.499Z" opacity="1" style="fill:#a8d039"/><path id="s" stroke="none" d="M266.926 382.021c-.12-3.151 1.077-4.381 3.874-4.274 2.718.104 3.35 1.782 3.358 3.972.031 7.641.015 15.283-.009 22.924-.008 2.343-.96 3.731-3.584 3.679-2.484-.05-3.691-1.13-3.632-3.627.028-1.162.097-2.337-.034-3.485-.205-1.801.89-4.64-2.122-4.703-3.416-.071-2.169 3.013-2.441 4.927-.163 1.142-.066 2.321-.089 3.484-.043 2.173-.985 3.373-3.324 3.398-2.41.026-3.835-.879-3.84-3.429-.017-7.808-.022-15.616-.021-23.424 0-2.355.946-3.727 3.554-3.719 2.506.007 3.689 1.125 3.661 3.598-.004.332-.034.677.043.994.563 2.323-1.483 6.466 2.372 6.488 4.126.024 1.43-4.177 2.234-6.803Z" opacity="1" style="fill:#2f2e2c"/><path id="t" stroke="none" d="M91.22 37.212c-6.369 1.168-6.37 6.234-6.627 10.518-.446 7.457-.207 14.955-.204 22.436.002 2.898-.224 5.236-4.175 5.201-4.004-.037-3.459-2.612-3.475-5.098-.074-12.133-.194-24.266-.217-36.4-.003-1.87-.578-4.296 2.132-4.927 2.391-.557 4.678-.367 5.351 3.249 3.833-4.264 7.866-5.84 12.699-2.96 2.609 1.554 1.321 3.667.846 5.739-.88 3.845-3.609 2.45-6.33 2.242Z" opacity="1" style="fill:#252324"/><path id="u" stroke="none" d="M324.442 357.184c-7.592-3.953-7.979-19.703-3.793-25.763 2.096-3.035 5.066-4.93 8.898-4.6 4.168.358 7.271 2.675 8.777 6.497 2.548 6.463 2.483 13.084-.438 19.417-2.348 5.09-6.924 6.538-13.444 4.449m2.234-7.637c2.112 3.012 3.83 2.149 5.009-.685 1.675-4.025 1.319-8.153.136-12.254-.387-1.341-.973-2.663-2.482-2.795-1.834-.159-2.584 1.353-3.049 2.791-1.316 4.077-1.262 8.175.386 12.943Z" opacity="1" style="fill:#2f2e2c"/><path id="v" stroke="none" d="M298.143 354.553c-.064-7.586.066-14.727-.167-21.856-.142-4.331 1.596-5.912 5.86-5.821 10.661.227 14.651 6.942 9.189 16.077-1.055 1.766-.686 3.075-.126 4.637 1.105 3.08 2.199 6.164 3.354 9.404-7.259 3.554-7.609-2.905-10.056-6.387-1.952 2.292 1.037 6.974-3.749 7.469-2.212.229-3.951-.512-4.305-3.523m9.039-15.491c2.142-1.888 2.386-3.647-.803-5.842-.671 2.362-2.01 4.074.803 5.842Z" opacity="1" style="fill:#2f2e2c"/><path id="w" stroke="none" d="M218.377 358.038c-4.31-1.576-3.539-5.999-6.08-8.961-.107 2.104-.162 3.932-.304 5.752-.167 2.147-1.269 3.331-3.536 3.263-2.133-.063-3.517-.931-3.52-3.244-.01-8.292-.004-16.584.023-24.876.003-1.028.299-2.167 1.37-2.438 4.3-1.088 8.711-1.272 12.408 1.443 3.541 2.6 5.406 7.184 2.923 10.534-3.943 5.319-1.702 9.508.285 14.173 1.366 3.206.439 4.79-3.569 4.354m-2.999-21.522c-.225-1.311-.447-2.625-2.537-2.487-.663 1.752-1.145 3.458.25 5.077 1.491-.14 1.858-1.05 2.287-2.59Z" opacity="1" style="fill:#2f2e2c"/><path id="x" stroke="none" d="M168.972 358.152c-4.192.407-6-1.132-5.931-5.065.126-7.156.099-14.315.039-21.472-.029-3.418 1.579-4.68 4.904-4.687 8.067-.018 12.49 3.421 13.882 12.028 1.581 9.776-1.643 18.695-12.894 19.196m1.515-8.335c.686 1.395 1.567.85 2.32.147 3.708-3.46 2.676-12.462-1.754-15.44-.178.252-.509.503-.513.758a574.125 574.125 0 0 0-.053 14.535Z" opacity="1" style="fill:#2f2e2c"/><path id="y" stroke="none" d="M314.623 399.924c.613 1.459 1.242 2.592 2.662 2.176 1.599-.468 1.599-1.975 1.61-3.299.046-5.487.064-10.974.047-16.461-.008-2.541.252-4.645 3.648-4.61 3.375.035 3.65 2.2 3.655 4.694.011 5.654.148 11.311-.024 16.959-.191 6.279-3.248 9.377-9.102 9.669-5.602.279-9.407-2.921-9.771-8.954-.37-6.13-.149-12.296-.173-18.446-.01-2.578 1.01-3.993 3.88-3.927 3.124.072 3.366 2.012 3.373 4.359.018 5.819.078 11.637.195 17.84Z" opacity="1" style="fill:#2f2e2c"/><path id="z" stroke="none" d="M367.965 326.995c5.968.369 10.693 2.302 12.384 8.012 1.922 6.489 2.561 13.155-2.025 18.967-3.223 4.086-7.918 4.433-12.688 4.036-2.045-.171-2.772-1.577-2.771-3.462.004-7.959.041-15.917.011-23.876-.013-3.29 2.116-3.711 5.089-3.677m1.604 21.542c.121 1.674.372 3.273 2.57 1.73 4.22-2.963 3.259-12.904-1.986-15.86-.206 4.624-.401 8.997-.584 14.13Z" opacity="1" style="fill:#2f2e2c"/><path id="A" stroke="none" d="M329.798 383.147c.166-2.541-.493-4.851 2.77-5.398 5.786-.971 11.02.449 13.027 4.067 1.707 3.075 2.552 6.715.227 9.433-3.073 3.591-1.769 6.661-.362 10.089.806 1.962 1.796 3.912 1.764 6.079-5.534 1.554-5.534 1.554-10.756-9.434 0 2.915-.004 4.82.001 6.725.007 2.103-.665 3.506-3.113 3.574-2.629.074-3.545-1.242-3.538-3.663.019-6.995-.01-13.99-.02-21.472m9.888 2.128c-.549-.884-1.53-1.979-2.303-1.14-1.592 1.729-1.136 3.835-.277 5.869 2.838-.354 2.84-2.187 2.58-4.729Z" opacity="1" style="fill:#2f2e2c"/><path id="B" stroke="none" d="M271.432 346.881c.634 2.498 1.311 4.561 1.747 6.674.326 1.58.867 3.534-1.264 4.274-1.966.684-4.17.656-5.293-1.468-2.341-4.429-4.485-4.591-6.894-.102-1.186 2.211-3.234 2.175-5.224 1.466-1.996-.711-1.331-2.376-1-3.819 1.75-7.614 3.579-15.211 5.234-22.846.576-2.657 1.731-4.191 4.653-4.095 2.675.088 3.689 1.542 4.218 3.991 1.122 5.199 2.493 10.344 3.823 15.925Zm-10.378-4.493h4.06l-2.03-8.23-2.03 8.23Z" opacity="1" style="fill:#2f2e2c"/><path id="C" stroke="none" d="M351.872 327.078c2.839.686 3.024 2.858 3.491 4.734 1.804 7.236 3.53 14.491 5.273 21.742.378 1.571 1.3 3.497-.922 4.254-2.04.695-4.148.804-5.691-1.521-2.768-4.17-3.537-4.162-6.722.13-1.366 1.842-3.046 1.894-4.848 1.446-2.358-.585-1.763-2.504-1.41-4.076 1.711-7.6 3.546-15.172 5.231-22.777.641-2.896 2.138-4.383 5.598-3.932Zm-2.887 16.792h4.06l-2.03-8.23-2.03 8.23Z" opacity="1" style="fill:#2f2e2c"/><path id="D" stroke="none" d="M194.48 353.702c-2.613-.796-4.193-.129-5 2.224-.86 2.506-2.979 2.498-4.956 1.984-2.646-.689-1.735-2.859-1.358-4.535 1.636-7.282 3.375-14.542 5.085-21.808.595-2.527 1.283-4.776 4.734-4.582 3.339.188 3.901 2.412 4.489 4.96 1.602 6.945 3.34 13.859 4.95 20.802.412 1.776 2.009 4.088-.9 5.064-2.538.851-5.012.595-5.865-2.727-.114-.444-.56-.802-1.179-1.382Zm-3.545-10.902h4.06l-2.03-8.23-2.03 8.23Z" opacity="1" style="fill:#2f2e2c"/><path id="E" stroke="none" d="M295.254 401.24c-.011 1.44-.026 2.438-.022 3.435.01 2.429-1.077 3.663-3.622 3.656-2.524-.006-3.644-1.198-3.643-3.642.002-7.817-.016-15.633-.002-23.449.002-1.172.155-2.307 1.297-3.045 3.566-2.301 12.669.093 14.737 3.896 2.913 5.36.982 11.503-4.697 13.607-2.675.991-4.517 1.937-4.048 5.542Zm.456-17.784c-1.318 0-2.387 1.202-2.387 2.685s1.069 2.685 2.387 2.685 2.387-1.202 2.387-2.685-1.069-2.685-2.387-2.685Z" opacity="1" style="fill:#2f2e2c"/><path id="F" stroke="none" d="M238.777 402.162c1.408-.252 2.555-.252 3.701-.26 1.213-.009 2.368-.225 2.94-1.448.691-1.476-.093-2.547-1.158-3.461-1.508-1.295-3.23-2.395-4.523-3.873-2.575-2.943-3.435-6.36-2.005-10.177 1.138-3.036 3.19-5.03 6.418-5.609 4.977-.892 7.335 1.478 6.61 6.553-.673.738-1.502.579-2.303.352-1.499-.425-3.073-.834-3.825 1.026-.64 1.585.176 2.914 1.374 3.958 1.251 1.089 2.654 2.018 3.82 3.187 2.81 2.816 3.7 6.198 2.563 10.049-1.101 3.728-3.621 5.853-7.439 6.424-4.711.705-6.871-1.485-6.173-6.721Z" opacity="1" style="fill:#2f2e2c"/><path id="G" stroke="none" d="M235.367 330.837c-.719-1.865-1.007-3.407 1.19-3.731 1.961-.288 4.035-.49 5.43 1.464.938 1.316 1.041 3.176 2.614 4.101 4.687-6.124 4.687-6.124 9.395-4.884 1.091 1.761-.154 3.223-.844 4.594-3.323 6.604-5.711 13.357-4.807 20.948.289 2.428-.09 4.789-3.486 4.745-3.181-.042-4-2.157-3.735-4.692.849-8.122-1.478-15.382-5.757-22.545Z" opacity="1" style="fill:#2f2e2c"/><path id="H" stroke="none" d="M275.03 341.039c.02-3.315.042-6.135.066-8.955.023-2.668.315-5.114 3.905-5.026 3.381.082 3.409 2.447 3.403 4.888-.014 6.264-.004 12.528-.004 18.902 1.523.243 2.483.365 3.43.552 3.52.697 3.355 3.666 1.953 5.276-2.581 2.962-6.513 1.372-9.863 1.254-2.602-.091-2.848-2.368-2.862-4.452-.027-3.981-.018-7.962-.028-12.439Z" opacity="1" style="fill:#2f2e2c"/><path id="I" stroke="none" d="M229.332 358.285c-3.419.025-3.973-1.871-3.93-4.32.132-7.493.273-14.986.32-22.48.017-2.805.394-4.828 4.026-4.78 3.671.048 4.014 2.347 3.996 4.973-.051 7.328-.247 14.655-.314 21.982-.023 2.568-.305 4.768-4.098 4.625Z" opacity="1" style="fill:#2f2e2c"/><path id="J" stroke="none" d="M284.213 379.359c.181 8.754.218 17.051.287 25.347.019 2.358-.228 4.352-3.362 4.29-3.062-.062-3.358-2.019-3.348-4.386.031-7.469-.054-14.938.038-22.406.059-4.758 1.257-5.332 6.385-2.845Z" opacity="1" style="fill:#2f2e2c"/></svg>