<svg xmlns="http://www.w3.org/2000/svg" viewBox="0 0 954.3 550"><defs><style>.cls-1{fill-rule:evenodd}.cls-1,.cls-2{fill:#fff}</style></defs><g id="Layer_1"><path d="M259.9 403.8c12.3-.5 24.2-1.1 35.1-7.6.4-.2.7-.3 1.1-.4 7.4-8.4 17.2-15.3 23-25 4.8-7.9 6.2-17.4 8-26.4l-.4-.3-.8-.8-1.2.5-.5-2.3-1.4 1.1h-1c0-.1-1.1 0-1.1 0l-.7-1.9-1-.2-1.1.7-1.1 1.5-1-1.1-1 .5-1.1-1.3-.9 1.7-1.1-.6-.9 1.1-.9.5-1.3-1.1-.7 1.6-1.2-.2-1 .6-1.3-1-.8 1.6-1.3-1.4-1 .4-.9 1.4-1.2-1.4-.8 2.6-1.1-.6-1.2-1-.9 2.4-1.3-2.4-.9 2.1-1.1-.6h-1.1l-1.2-1h-1.1c0 .1-.9 2.1-.9 2.1l-1 .8-1.3-1.5-1.1-.3-1 .7-.6 2.5-1.3-1.3-1.2-.3H279l-.5 2.1-1 .2-.7 1.1-1.3-.4-1 .2-.3 2.1-1.6-1.1-.5 1.6-1.7-1.3-1.3-.2-.5 1.6h-1.2c0-.1-.6 1.3-.6 1.3l-.5 1.7-.8.8-1.6-1-.4 1.9-1.2-.2-1 .3-.5 1.5-2-2.1-.4 1.9-1.1.2-.7 1.1-.8 1-1.8-1.9-.6 1.5-.9.6-.5 1.9-1.8-2.2-.7 1.1-.6 1.7h-1.1c0-.1-1 .3-1 .3l-1.3-1.4-.9.2-.9 1-1 .2-.8-1.3-1.4 1.9-.7-1.6-1.3 1-.9-.7-.8-.8-1.6 1.8-.2-3-1.7 2.1-.7-1.3-.9-.6-1.2.3-.8-.8-1.1.2-1-.3h-1.1l-.6-1.5h-1.1l-1.2.4-.6-1.4h-1.1l-.8-.8c.2 1.7.4 3.4.5 5.1.3 7.6-1.3 14.6-4.6 20.4 2.3 1.6 5.9 3.7-.2.3 2.8 1.6 6.2 6.4 9.3 12 .2 0 .3 0 .5.1 5.3 1.9 9.6 6 15.1 7.1 5.8 1.2 12.2.1 18.1-.1ZM169.7 351c0 36.4-26.7 56.3-68.2 56.3S33.3 378.9 33.3 362s3.4-12.3 10.2-12.3c23.3 0 5.1 52.5 61 52.5s50-9.3 50-41.9c0-52.5-116.4-43.6-116.4-105s20.7-48.3 61-48.3 64.4 30.5 64.4 47-3 10.6-8.9 10.6c-23.3 0-5.9-52.9-55.9-52.9S53 226.1 53 247.7c0 43.2 116.9 36.4 116.9 103.3ZM530 212.6v194.3c-13.9 0-24.7-11.3-24.7-24.7v-12.6C494 390 467.6 406.9 442 406.9s-59-20.8-59-53.3V225.2c0-9.1-5.2-13.4-12.6-13.4h-5.2c-1.3 0-2.6-1.3-2.6-2.6s1.3-2.6 2.6-2.6h36.4c3 0 6.1 2.6 6.1 6.1v141c0 20.8 7.4 44.2 40.3 44.2s50.3-19.5 57.3-40.8V225.2c0-9.1-5.2-13.4-12.6-13.4h-5.2c-1.3 0-2.6-1.3-2.6-2.6s1.3-2.6 2.6-2.6h36.4c3 0 6.1 2.6 6.1 6.1ZM604.6 247.5v136.7c0 9.3 5.6 18.2 12.9 18.2h5.2c3 0 3 4.7 0 4.7h-60.9c-3 0-3-4.7 0-4.7h5.6c7.3 0 12.5-8.9 12.5-18.2V229.3c0-9.3-5.2-17.1-12.5-17.1h-5.6c-1.3 0-2.2-1.3-2.2-2.5s.9-2.5 2.2-2.5h36.7c3.4 0 6 2.5 6 5.9v20.1c8.6-12.7 23.7-27.1 46.6-27.1 41.4 0 58.7 26.3 58.7 43.1s-4.3 14.8-11.2 14.8c-24.2 0-3-53.3-48.8-53.3s-37.1 13.1-45.3 36.8Zm215 19.9v140.1c-13.4 0-24.2-11-24.2-24.1v-10.2c-9.5 18.6-30.2 34.3-60 34.3s-62.6-9.3-62.6-57.5c0-69.8 72.6-65.2 122.6-63.9v-30c0-28.8-16-45.3-45.3-45.3s-33.7 14.8-37.1 28.8c-1.7-5.9-4.8-11.9-9.9-17.3 9.9-8.9 25.5-16.1 47.1-16.1 52.3 0 69.5 29.2 69.5 61.4Zm-24.2 22.9c-49.7-.8-98.4-6.8-98.4 59.2s6.9 50.8 43.2 50.8 55.3-26.3 55.3-53.8v-56.3Z" class="cls-2"/><path d="M924.2 122c0-2.8-3.4-5.5-9.9-5.5h-4.1c-23 .9-45.5-6.4-62.6-21.7-34.9-31.1-77-78.6-139.2-78.6s-71.6 29.4-71.6 59.6 27.1 65.8 81 65.8 60.3-22.7 60.3-34.6-2.5-6.9-7.6-6.9c0 0-11.9 39-54.3 39s-72-30.7-72-59.6 20.2-49.8 64.4-49.8c66.6 0 105.3 57.1 155.4 83.2 7.9 4.1 16.4 7.2 25.1 9.2 4.7 1.4 16.8 1.1 22.8 1.6.4 0 .5.5.2.8-26.8 16.4-52.3 43.3-52.3 70.3v189.1c0 13.1 10.5 24.1 24.1 24.1V194.8c0-36.8 17.7-58.5 38-68.8 1.6-.8 2.4-2.4 2.4-3.9v-.2ZM274.4 206.1c-42.4 0-61.2 28.3-61.2 45.4s3.4 12.8 9.8 12.8c23.5 0 .9-53.5 51.4-53.5 24.7 0 44.5 20.4 44.5 45v91.5c0 27.8-21.8 53.5-53.9 53.5s-42.8 14-42.8-50.9 21.5-45.9 41.3-51.7c-24.7-6-65.2 9.9-65.2 52.6s35.5 57.4 62.1 57.4 49.7-15.4 58.6-34.2v10.3c0 13.3 10.7 24 24 24V267.9c0-32.5-17.1-61.6-68.5-61.6Z" class="cls-2"/><path id="Layer_x5F_1" d="M262.5 347c2.8-1.4 4.9-3.3 5.7-4.2.4-.4 1.2-.8 2.1-1.2.6.9 2.2 3.3 3.3 5.1 1.4 2.3 1.1 5.7 1.1 5.7s-.8.5-1.8 1.3-.8 2.7-.8 2.7l4.4-1.4s1.5-2.1 2-3.6.3-2.4-.3-5.6c-.3-1.7.3-3.7 1-5.2.9.4 2.1.5 4.3.6 3.9.2 8.1 2.1 9.4 4.4 1.3 2.3-.7 2.1-1.1 3s0 2 0 2l4.8-1.5s.1-.1.4-1.1c.2-1 0-2.2 0-2.2s-.7-2.4-2.2-5.2c-1.5-2.9-3.2-1.2-6.6-3.5-2.1-1.5-3.7-3.1-4.6-4.2.4-.1 1-.3 2-.4 1.9-.1 4.3.7 8.8 3 4.5 2.2 9.4.3 9.4-3.3 0-3.7-2.8-6.3-4.6-5.5-1.8.7-.9 1.6.2 2.4 1.1.8 2.7 3.2-.6 4.4-3.3 1.1-7.7-2.2-11.4-4.3-2.4-1.4-5.6-1.1-7.6-.7s-4.7-.4-7.9.6-3.2.9-3.2.9-3.8-1.1-8.9 1.8c-5.1 2.9-5.7 3.6-5.7 3.6s-.9 0-2.7.7-4.5.1-7.7 1.2c-3.2 1.1-4.5 3-4.5 3s1 .5.8 1.2c0 0-.9-1.2-2.5-1.8-1.5-.6-1.6-.4-1.6-.4s-.4 2.2.1 3.2.7 1.2.7 1.2-1.1 3-.7 4c.4 1 1 1.8 1.1 2s.4 2 .9 2.7c.5.8 1 .8 1.9.7.8 0 1.3.2 1.7.5s.6.1 1.1-.5c.5-.6 1-1.3 1-1.3s-.8-1.5-.7-2.6 1.8-1.6 1.9-2.6c.1-.6 1.1-.7 2-.2.4 2.3 1.2 4.6 1.2 4.6l-.3 1c-.3 1-.2 5.3-.2 8.4 0 3.1-2.3 3.3-3.8 4.3s-.6 3.1-.6 3.1l4.9-1.6s.3-.9 1.6-2 1.5-2.7 1.5-2.7 3.8-7.5 4-8.6c.2-1 .8-1.3-.2-4.3.8 0 1.8 0 3.1-.2 1.2 1.3 2.8 2.9 3.9 3.9 2 2 1.8 3.7 1.8 3.7s-.2.7-1.4 1.5-.9 2.4-.9 2.4l4.8-1.5s.1-.9.4-2c.3-1.1.4-2.2-.4-3.1-.8-.9-.7-2.3-1.3-4-.4-1.2-1.6-2-2.3-2.4Z" class="cls-1"/><g id="Layer_2-2"><path d="M289.2 336.7c.7.4 1.5.5 2.4.5v-4.6c-.5-.1-1-1.2-1.5-1.4-.9-.4-1.7-.8-2.5-1.4v5.3c.4.6 1 1.2 1.6 1.6ZM291.1 342.6c.1 0 .3.1.4.2v-3.7h-1c-1-.1-2-.4-2.8-1l-.2-.2v2.9c1.3.3 2.5 1 3.6 1.9ZM290.1 344.2c-.2 0-.4-.1-.5-.2-.7-.2-1.4-.4-2-.6v10.7c1.4-.2 2.9.2 3.9 1.2v-9.9l-1.1-1.1s-.2-.2-.3-.2ZM311.7 281.9l-.8.7v-1.3H309l-.7-2.4-2.6-.8v-1c.1 0 1.3-.3 1.3-.3-1.1-2.2 2.2-1.7 2.3-4.1 0-.9-.8-.4-1.3-.5.5-1.1 1.1-1.6 1-3-2-.6-1.8-2.9-2.4-4.8-.5-1.5-1-.9-.1-3-.8-1.1-2.3-.9-2-2.5-1.2-.3-2.1 0-3.2.3l-.3-.9.9-.8c-1-4.5-3.5-1.6-6.2-3.3l-1.6-2.1h-3.6c.3 1.9-.3 1.3-1.8 1l-.3.3-.5 2c-.6 0-.5-1.1-.7-1.3-.7-.5-4.3 1.1-2.9 2.6l-1.4-.6-1.2 2.2c-3.9-1.1-2.8 1.5-3.2 2-.1.1-1-.1-1.4.3-.5.5-.3 1.7-.6 2.3-.3.5-1 .4-1.3 1.3-.6 2 .5 1.6.5 1.7 0 .1-1 1-.3 1.6l-1 .2c0 1.3-.3 2 1 2.6l-1.2.5c-.1.5 0 .9.1 1.4 0 .1-.1.3-.3.4l.6.4c.1.2.2.5.3.7v.4s-.2.1-.2.2h-2.6l-.9 1.5h-.4c0 .2 0 .4.1.6v.2c-.1 0-1.9-.5-1.9-.5l-.3 1.2-.6-.8-2.1.8v.3c.9 1.2-1.4 2.7 1 3.1-.2.7.6 1.7.6 2.1 0 .4-.5.8-.5 1.3 0 .2.2 2.6.2 2.7.2.5 1.5.8 1.9 1.2v2.7c.7.9 1.7.9 1.3 2.4-.1.4-1 0-1 1.7 0 1 .5.7.7 1 .1.4 0 1.1.3 1.6.1.3 3.1 2.5 3.6 2.6.7.1 1.3-.3 1.8-.2.6.1 1.6 1.8 2.7 1.6l.3-.6 3.2.3.7-1.3.6.6.5-.9 1.1.3.5-.7-.3-1.2c2.1.2 2.5 2.3 2.6 4v25.8c.2.2.5.3.7.5.8.5 1.6 1.1 2.5 1.4.3 0 .5.2.8.2 0-14.2 0-28.9.1-29.6.2-2.4 1.1-6 3.3-7.4.5-.3 4.6-1.8 4.9-1.8 1.1 0 1.6 1.9 2.3 2.5.3.3 1 .3 1.3.6.7.7.3 2.2 2.7.8.9-.5.5-1.5 1-1.9.5-.4 2-.2 2.3-.7 0-.1.9-2.4.9-2.6 0-.5-.3-1-.1-1.4.1-.3 1.2-1.1 1.2-1.9 2.4.3.6-1.7 1.9-2.6v-.3l-1.8-1.3Z" class="cls-2"/></g><path d="M67.2 472.9h-5.5c-1 0-1.8.9-1.8 1.8s.8 1.7 1.8 1.7h.4c0 .1-11.8 30.1-11.8 30.1l-11-30.1h.7c1 0 1.7-.7 1.7-1.7s-.8-1.8-1.7-1.8h-8.1c-1 0-1.8.9-1.8 1.8s.8 1.7 1.8 1.7h.6c.1 0 .3.4.5 1.1l15.8 43.1 17-43.2c.3-.7.4-.9.4-.9h1c1 0 1.8-.8 1.8-1.7s-.8-1.8-1.8-1.8ZM79.9 476.7h.7c1 0 1.8-.8 1.8-1.8s-.8-1.8-1.8-1.8h-8.3c-1 0-1.8.8-1.8 1.8s.8 1.8 1.8 1.8h.9v36.8c0 .3 0 .5-.3.5h-.7c-.5 0-1 .2-1.4.6-.3.3-.5.8-.5 1.2 0 1 .8 1.8 1.8 1.8h8.3c1 0 1.8-.8 1.8-1.8s-.8-1.8-1.8-1.8h-.9v-36.8c0-.3 0-.5.3-.5ZM114.2 504.6c-1.4 0-1.8 1.4-2 2.3-.5 2.3-1.5 6.5-11.1 6.5h-6.9v-36.3c0-.3 0-.5.3-.5h.7c1 0 1.8-.8 1.8-1.7s-.8-1.8-1.8-1.8h-8.3c-1 0-1.8.8-1.8 1.8s.8 1.8 1.8 1.8h.9v36.8c0 .3 0 .5-.3.5h-.7c-1 0-1.8.9-1.8 1.8s.8 1.7 1.8 1.7h27.3l1.9-10.8v-.3c0-.9-.8-1.7-1.7-1.7ZM148.1 506.6v-.3c0-.9-.8-1.7-1.7-1.7-1.4 0-1.8 1.4-2 2.3-.5 2.3-1.5 6.5-11.1 6.5h-6.9v-36.3c0-.3 0-.5.3-.5h.7c1 0 1.8-.8 1.8-1.7s-.8-1.8-1.8-1.8h-8.3c-1 0-1.8.8-1.8 1.8s.8 1.8 1.8 1.8h.9v36.8c0 .3 0 .5-.3.5h-.7c-1 0-1.8.9-1.8 1.8s.8 1.7 1.8 1.7h27.3l1.9-10.8ZM184.6 514h-.9c0-.1-.2-.4-.4-1l-13.9-39.9h-5.8c-1 0-1.8.8-1.8 1.8s.8 1.7 1.8 1.7h.3L150.4 513c-.3.8-.6.9-.6.9h-.7c-1 0-1.8.8-1.8 1.8s.8 1.8 1.8 1.8h6.3c0-.1.4-.6.4-.6l.4-.6v-.5c0-1-.8-1.8-1.7-1.8h-.3l4.2-11.4h14.7L177 514h-.3c-1 0-1.8.8-1.8 1.8s.8 1.8 1.8 1.8h7.9c1 0 1.7-.8 1.7-1.8s-.8-1.8-1.7-1.8Zm-24.8-15.2L166 482l5.8 16.8h-12ZM220.8 476c4.7 0 6.3 3.2 7.8 6.3 1.1 2.1 2.2 4.3 4.5 4.3s3-1.3 3-3.1c0-3.8-5.3-11.1-15.2-11.1s-18.1 8-18.1 22.9 8.3 22.9 18.6 22.9c8.9 0 14.2-5.7 14.2-7.2s-.8-1.9-1.9-1.9-1 .3-1.6.8c-1.3 1-4 3.2-8.1 3.2-7.2 0-14.9-5.3-14.9-20.2s7.4-17 11.8-17ZM256.8 472.4c-11.5 0-18.6 11.9-18.6 22.9s8.3 22.9 18.6 22.9 18.6-11.9 18.6-22.9-8.3-22.9-18.6-22.9Zm0 3.5c4.2 0 12.4 4.1 12.4 19.3s-8.1 19.3-12.4 19.3-12.4-4.1-12.4-19.3 8.1-19.3 12.4-19.3ZM312.8 513.8h-.9c-.2 0-.8-1-1.1-1.4l-9-12.7c-.3-.4-.6-.7-.9-1.1 5.8-1.3 10.1-6.5 10.1-12.7s-5.8-13-13-13h-17.9c-1 0-1.8.8-1.8 1.8s.8 1.8 1.8 1.8h.9v36.8c0 .3 0 .5-.3.5h-.7c-1 0-1.8.8-1.8 1.8s.8 1.8 1.8 1.8h8.3c1 0 1.8-.8 1.8-1.8s-.8-1.8-1.8-1.8h-.9V499h.2c3.8 0 7.4 1.9 9.7 5l7.1 9.9h-.2c-1 0-1.8.8-1.8 1.8s.8 1.8 1.8 1.8h8.9c1 0 1.8-.8 1.8-1.8s-.8-1.8-1.8-1.8Zm-25.5-18.7v-18.3h8.2c5.1 0 9.2 4.1 9.2 9.2s-4.1 9.2-9.2 9.2h-8.2ZM341.8 493.1c2.7-2.1 4.4-5.3 4.4-8.9 0-6.1-5-11.1-11.1-11.1h-17.3c-1 0-1.8.8-1.8 1.8s.8 1.8 1.8 1.8h.9v36.8c0 .3 0 .5-.3.5h-.7c-1 0-1.8.9-1.8 1.8s.8 1.7 1.8 1.7h17.9c7.2 0 13-5.8 13-13s-2.7-9.2-6.8-11.4Zm-8.1-1.6H325v-14.6h7.7c4.1 0 7.3 3.3 7.3 7.3s-2.8 6.9-6.3 7.2Zm-8.7 22.2v-18.3h9.2c4.6.5 8.2 4.5 8.2 9.1s-4.1 9.2-9.2 9.2H325ZM380.4 504.6c-1.4 0-1.8 1.4-2 2.4-.5 2.3-1.5 6.5-11.1 6.5h-6.9v-17.4h9.2c.5 0 .5 0 .5.3v.7c0 1 .9 1.8 1.8 1.8s1.7-.8 1.7-1.8v-6.2c0-1-.8-1.7-1.7-1.7s-1.8.8-1.8 1.7v1h-9.6v-14.7h8.5c7.6 0 8.1 3.1 8.5 5.2.2.9.5 2.4 2 2.4s1.7-.8 1.7-2l-1.6-9.7h-26.4c-1 0-1.8.8-1.8 1.8s.8 1.8 1.8 1.8h.9v36.8c0 .3 0 .5-.3.5h-.7c-1 0-1.8.8-1.8 1.8s.8 1.8 1.8 1.8h27.1l1.9-10.9v-.3c0-.9-.8-1.7-1.7-1.7ZM456.3 478.8c-.2-1.5-.5-3-.7-4.5l-.2-1.2h-33.7l-.2 1.3a108 108 0 0 1-1.2 7.2c-.1-.9-.3-1.8-.4-2.8-.2-1.5-.5-3-.7-4.5l-.2-1.2h-33.7l-.2 1.3c-.4 2.8-.9 5.6-1.4 8.7 0 1 .8 1.7 1.7 1.7 1.6 0 1.9-1.6 2-2.4.4-1.9 1-5.2 8.6-5.2h3v36.3c0 .3 0 .5-.3.5h-.7c-1 0-1.8.9-1.8 1.8s.8 1.7 1.8 1.7h8.3c1 0 1.8-.8 1.8-1.7s-.8-1.8-1.8-1.8h-.9V477.3h3c7.6 0 8.1 3.1 8.5 5.2.2.9.5 2.4 2 2.4s1.2-.4 1.5-1c.3.6.8 1 1.5 1 1.6 0 1.9-1.6 2-2.4.4-1.9 1-5.2 8.6-5.2h3v36.3c0 .3 0 .5-.3.5h-.7c-1 0-1.8.9-1.8 1.8s.8 1.7 1.8 1.7h8.3c1 0 1.8-.8 1.8-1.7s-.8-1.8-1.8-1.8h-.9V477.4h3c7.6 0 8.1 3.1 8.5 5.2.2.9.5 2.4 2 2.4s1.7-.8 1.7-2c-.2-1.4-.4-2.7-.6-4.1ZM40.2 52.6H106c1 5.9 1.9 11.9 2.9 17.9 0 .4-.3.6-.6.6-2.9 0 2.6-16-22.2-16h-9.4v79.5c0 2.8 1.5 4 3.6 4h1.5c.4 0 .8.4.8.8s-.4.6-.8.6H64.4c-.4 0-.8-.3-.8-.6s.4-.8.8-.8h1.5c2.1 0 3.6-1.3 3.6-4V55.2h-9.4c-24.8 0-19.3 16-22.2 16s-.6-.3-.6-.6c1-6 2-12 2.9-17.9ZM166.9 140.1h-17.4c-1 0-1-1.4 0-1.4h1.5c2.1 0 3.6-1.3 3.6-4v-37c0-6-2.1-12.9-11.8-12.9s-14.4 5.6-16.4 11.8v38.1c0 2.8 1.5 4 3.6 4h1.5c1 0 1 1.4 0 1.4h-17.4c-1 0-1-1.4 0-1.4h1.5c2.1 0 3.6-1.3 3.6-4V56.2c0-2.8-1.5-4-3.6-4h-1.5c-1 0-1-1.4 0-1.4h10.5c.9 0 1.8.8 1.8 1.8v40.5c3.3-5.8 10.8-10.7 18.3-10.7s17 5.9 17 15.4v37c0 2.8 1.5 4 3.6 4h1.5c1 0 1 1.4 0 1.4ZM220.1 129.3c0 .4-5.9 11-20.8 11s-25.4-13.3-25.4-29.7S185.3 81 199.3 81s22.3 13.2 22.3 29.1H181c1.4 18.7 14 25.6 22.3 25.6 11.8 0 15.7-6.8 16.3-6.8s.5.1.5.4Zm-39.3-21.6h34.3c0-11.4-3.3-25.2-15.9-25.2s-18.4 7.6-18.4 24.6v.6Z" class="cls-2"/><path d="m720.1 505.5-3.2-5.9h-13.2l10.4-18.9 18.3 31.7h-43.7v5.8l51 .1v-5.8l-22.3-38.8H711l-18.2 31.8h27.3zM741.3 479.7h21.4c4.4.2 8.3 3.7 8.4 9.1-.1 2.4-1.8 6-6.3 6.7 4.1.9 7.7 3.3 7.1 9.4-.7 3.9-4.5 7.1-8.8 7.4h-21.8v5.8h24c4.7-.8 12.1-3.8 13.2-11.5.5-5.3-1-9.6-5-11.2 3-2.1 4.6-6.2 4.1-10.8-.8-6.1-5.2-10-13.5-10.9h-22.8v6Z" class="cls-1"/><path d="M745.6 486.6v18.7h15.9c2.1-.1 2.9-1.5 2.9-3 0-1.9-1.3-2.8-2.5-2.9h-9.8v-6.9h8.6c1.8-.2 2.9-1.2 2.9-2.9 0-1.6-.9-2.7-2.6-2.9h-15.4ZM780.3 479.5h16.4c6.7.2 15.1 5.9 15.2 16 0 9.8-6.3 15.8-15 16.8h-16.6l-.1 5.9h18.5c12.6-2.6 20.3-10.2 19.7-23.9-.7-14.9-13.2-20.3-22.6-20.6h-15.5v5.8Z" class="cls-1"/><path d="M791.1 492.5h4.3c1.4 0 3 1.1 3.2 3.2 0 1.7-1.3 3.5-3.1 3.8h-4.3v-6.9Zm-6.4-5.9v18.7h12.1c5.1-1.3 7.7-4.8 7.8-9.8-.4-5.4-4-8.8-10-8.9h-9.9Z" class="cls-1"/><path d="M621.4 517.4v-33.7c0-1.2-.7-1.8-1.6-1.8h-.7c-.2 0-.3-.1-.3-.3s.2-.3.3-.3h16.1c5 0 9 4 9 9s-2.4 7.1-5.8 8.5c4.6 1.2 8.1 5.4 8.1 10.3s-4.8 10.7-10.7 10.7h-16.6c-.2 0-.3-.1-.3-.3s.2-.3.3-.3h.7c.9 0 1.6-.6 1.6-1.8Zm3.2-19.1h9.4c4-.4 7.2-3.9 7.2-8.1s-3.6-8.1-8.1-8.1h-8.5v16.2Zm0 20.6h8.9c5.5 0 9.9-4.4 9.9-9.9s-3.9-9.2-8.8-9.8h-10.1v19.7ZM672.8 494.9c0 .2-.2.3-.3.3h-.2c-.9 0-1.2.5-1.8 1.7-14.6 34-14.8 36.8-19.2 36.8s-6-2.8-6-4.8.6-2 1.5-2 1.3.9 1.3 2v.9c0 1.5.2 3.1 2.9 3.1s4.9-4.2 6.1-6.9l3.1-7.2-9.1-21.8c-.5-1.2-.9-2-1.8-2h-.3c-.2 0-.3-.2-.3-.3s.1-.3.3-.3h6.8c.2 0 .3.2.3.3s-.2.3-.3.3h-.7c-.7 0-.9.3-.9.8s0 .6.2.9l7.3 18.1 7.5-17.7c.2-.4.3-.8.3-1.2 0-.6-.3-1-.9-1h-.4c-.2 0-.3-.2-.3-.3s.2-.3.3-.3h4.1c.2 0 .3.2.3.3Z" class="cls-2"/></g></svg>