<svg xmlns="http://www.w3.org/2000/svg" xml:space="preserve" width="539.169" height="312.019" style="shape-rendering:geometricPrecision;text-rendering:geometricPrecision;image-rendering:optimizeQuality;fill-rule:evenodd;clip-rule:evenodd" version="1.0" viewBox="0 0 13022.26 7536.02"><defs><clipPath id="id0" style="clip-rule:nonzero"><path d="M3347.51 5643.88c179.7-7.6 351.99-16.72 510.48-111.07 5.23-3.1 10.35-5.06 15.44-6.52 108.19-122.34 249.88-222.76 335.61-363.46 70.13-115.13 90.75-253.2 116.02-385.18l-5.39-4.04-12.28-12.08-17.47 7.4-6.58-33.24-19.69 15.84-14.82-2.14-15.85 3.27-10.05-27.52-15.3-2.71-16.68 10.82-16.27 22.37-14.02-16.66-14.67 6.96-16.05-18.33-12.93 24.21-16.13-8.4-12.53 16.43-13.67 7.31-18.71-15.49-9.9 23.77-16.92-2.64-14.36 8.15-18.98-15.01-11.52 23.27-19.12-19.97-14.64 5.52-12.83 20.26-18.04-20.12-11.36 37.94-16.56-8.83-16.84-14.46-12.52 35.3-18.38-34.96-13.03 30.89-16.25-9.32-15.39 1.31-17.04-16.44-15.55 1.58-12.49 29.59-14.04 12-18.45-22.22-16.5-4.45-14.31 10.19-9.29 36.58-19.42-19.59-16.84-3.99-16.37.29-7.24 30.11-14.99 3.1-10.77 15.42-18.61-6.18-15.25 3.44-4.97 29.92-22.73-15.45-7.58 22.8-24.16-18.23-18.23-3.37-7.05 23.8-17.52-1.62-8.22 20.84-6.82 24.18-12.1 11.46-22.98-14.77-5.57 27.36-17.85-2.42-15.17 3.99-7.94 22.03-28.76-30.19-5.85 27.43-15.45 3.15-10.73 15.39-10.96 15.14-26.61-27.62-8.64 21.42-13.42 8.38-7.19 27.52-26.24-31.74-10.74 16.68-9.13 24.43-16.32-1.47-14.57 5.25-18.59-20.19-13.41 3.39-13.05 14.72-14.71 2.35-12.06-19.51-19.81 28.34-10.48-23.84-18.69 14.45-12.98-10.51-12.34-12.13-22.95 25.74-2.88-44.28-25.2 31.3-9.88-19.53-13.26-8.3-17.11 3.7-12.33-11.04-16.75 2.32-14.3-5.06-15.97-.13-8.6-21.75-16.09.24-17.82 5.18-8.96-20.46-15.62-1.16-11.52-10.85c3.58 24.34 5.88 48.96 6.73 73.69 3.75 110.8-19.49 213.28-66.81 297.18 33.16 23.24 85.55 53.28-2.35 4.07l-.08.1c40.72 23.11 89.7 92.71 136.08 175.09 2.57.56 5.06.95 7.75 1.89 76.62 26.97 140.23 87.09 219.88 104.05 84.07 17.91 177.99 1.91 263-1.67z"/></clipPath><clipPath id="id1" style="clip-rule:nonzero"><path d="M2033.93 4874.54c0 530.52-388.64 820.34-993.14 820.34-702.75 0-993.12-412.95-993.12-659.7 0-104.9 49.12-178.87 147.95-178.87 338.96 0 73.98 764.59 888.25 764.59 227.98 0 727.6-135.81 727.6-610.56 0-764.59-1695.89-635.42-1695.89-1529.19 0-443.84 301.97-702.74 888.25-702.74 628.76 0 937.37 443.84 937.37 684.54 0 92.74-43.07 154.01-129.72 154.01-338.97 0-86.12-770.65-814.28-770.65-394.71 0-665.78 209.76-665.78 523.89 0 628.79 1701.97 530.53 1701.97 1504.88l.56-.55z"/></clipPath><clipPath id="id2" style="clip-rule:nonzero"><path d="M7280.46 2859.82v2830.11c-201.87 0-360.19-163.98-360.19-360.19v-183.21c-163.98 296.87-549.63 543.4-922.26 543.4-511.74 0-858.94-303.08-858.94-776.94V3043.03c0-132.88-75.78-195.65-183.21-195.65h-75.78c-19.22 0-37.88-18.67-37.88-37.88 0-19.22 18.67-37.89 37.88-37.89h530.41c44.1 0 88.21 37.89 88.21 88.22V4913c0 303.09 107.44 644.07 587.51 644.07 391.87 0 732.84-284.43 834.05-593.74v-1920.3c0-132.88-75.78-195.65-183.21-195.65h-75.77c-19.22 0-37.89-18.67-37.89-37.88 0-19.22 18.67-37.89 37.89-37.89h530.39c44.11 0 88.23 37.89 88.23 88.22h.55z"/></clipPath><clipPath id="id3" style="clip-rule:nonzero"><path d="M11146.26 3990.24c-723.37-12.13-1433.78-98.74-1433.78 862.82 0 369.64 100.76 739.25 628.78 739.25 477.95 0 805-382.32 805-782.82v-819.81.56zm351.84-332.67V5697.7c-194.77 0-352.4-159.99-352.4-351.43v-147.84c-138.5 271.42-440.23 499.26-874.24 499.26-383.36 0-911.98-135.71-911.98-838.01 0-1016.75 1056.65-948.9 1786.22-930.69v-437.46c0-419.29-232.49-659.27-660.34-659.27-396.31 0-490.31 215.7-540.98 419.29-25.31-86.06-69.23-172.68-144.67-252.69 144.67-129.63 370.97-234.47 685.65-234.47 761.09 0 1012.73 425.34 1012.73 893.72v-.56zm-3131.6-289.63v1990.48c0 135.71 81.61 264.79 188.58 264.79h75.43c43.89 0 43.89 67.86 0 67.86h-886.62c-43.92 0-43.92-67.86 0-67.86h81.63c106.96 0 182.4-129.63 182.4-264.79V3102.6c0-135.7-75.44-249.45-182.4-249.45h-81.63c-19.15 0-31.52-18.76-31.52-36.96 0-18.21 12.37-36.97 31.52-36.97h534.24c50.09 0 87.8 36.97 87.8 86.06v293.02c125.54-184.81 345.64-394.45 678.89-394.45 603.49 0 855.11 382.32 855.11 628.38 0 123.02-63.04 215.7-163.26 215.7-352.38 0-43.89-776.77-710.42-776.77-264.01 0-540.98 190.88-660.33 536.23l.58.56z"/></clipPath><clipPath id="id4" style="clip-rule:nonzero"><path d="M13022.26 1540.03c0-40.18-50.09-80.35-143.66-80.35-20.06 0-39.96.39-59.74 1.19-334.51 13.58-662.27-93.78-912.15-316.59C11398.32 690.9 10784.95 0 9878.88 0 9184.25 0 8836.4 427.66 8836.4 868.54c0 471.15 394.09 958.79 1178.96 958.79 587.86 0 878.45-330.78 878.45-504.16 0-59.98-36.87-100.18-110.08-100.18 0 0-173.93 568.03-791.49 568.03-674.81 0-1049.06-447.49-1049.06-868.55 0-374.29 293.91-724.89 938.43-724.89 970.39 0 1533.68 831.34 2263.14 1212.02 115.48 60.25 238.77 104.17 365.45 134.52 68.7 19.78 244.29 16.44 331.63 22.89 5.86.43 7.68 7.89 2.64 10.96-390.41 238.75-761.2 630.41-761.2 1023.26v2754.78c0 190.45 153.55 350.63 350.6 350.63V2601.76c0-536.09 258.14-852.01 553.17-1001.73 23.19-11.74 34.91-34.67 34.83-57.25.02-.92.38-1.82.38-2.74z"/></clipPath><clipPath id="id5" style="clip-rule:nonzero"><path d="M3558.19 2763.85c-617.24 0-891.57 411.49-891.57 660.88 0 105.98 49.9 187.03 143.39 187.03 342.88 0 12.53-779.19 747.99-779.34 359.4-.07 648.59 296.53 648.59 655.92v447.63c-.22 0-.47-.02-.7-.02v56.11h.7v829.23c0 405.25-317.95 779.34-785.56 779.34-376.12 0-623.46 204.34-623.46-741.94 0-515.66 312.68-668.36 600.83-753.21-360.35-87.95-949.98 144.78-949.98 765.68 0 704.54 517.48 835.45 904.03 835.45 423.96 0 723.22-224.45 854.14-498.78v149.63c0 193.29 155.88 349.16 349.16 349.16V3661.63c0-473.82-249.4-897.79-997.55-897.79z"/></clipPath><clipPath id="id6"><path d="M3385.09 4816.94c41.03-20.75 71.22-48.46 82.86-60.71 5.3-5.57 17.34-11.74 30.68-17.43 9.03 13.35 31.92 47.47 47.95 73.98 20.38 33.69 16.15 82.58 16.15 82.58s-11.78 7.43-26.77 19.51c-14.99 12.1-12.1 39.22-12.1 39.22l64.25-20.53s22.13-30.21 29.25-51.97c7.11-21.77 3.9-35.37-5.08-81.24-4.94-25.33 4.69-54.57 14.3-75.68 13.64 5.79 31.3 7.38 62.07 8.64 57.49 2.38 117.5 30.74 136.83 64.78 19.32 34.04-9.98 31.21-15.33 43.89-5.35 12.66 1.09 28.88 1.09 28.88l69.62-22.23s1.79-1.79 5.35-16.31c3.56-14.55-.75-31.45-.75-31.45s-10.02-34.57-31.86-76.35c-21.82-41.78-47.13-17.84-95.74-51.08-31.23-21.35-54.2-45.85-66.63-60.62 5.16-2.04 14.08-4.42 28.72-5.25 27.86-1.6 62.5 10.51 128.59 43.02 66.08 32.52 137.5 4.84 136.73-48.52-.75-53.37-41.49-91.55-67.57-80.81-26.04 10.77-12.46 23.48 3.25 35.54 15.73 12.03 38.98 47.26-8.86 63.76-47.83 16.5-111.79-31.35-165.76-62.86-34.4-20.07-81.1-15.94-110.44-10.3 0 0-68.49-5.69-115.61 9.35-47.11 15.05-46.41 13.61-46.41 13.61s-55.01-16.56-129.95 25.63c-74.94 42.22-83.52 52.26-83.52 52.26s-13.03-.6-39.14 10.42v-.03s-65.83 2.1-112.79 17.69c-46.94 15.59-65.31 43.42-65.31 43.42s13.95 7.71 11.81 17.54c0 0-13.77-16.94-36.08-25.66-22.33-8.72-23.75-5.81-23.75-5.81s-6.05 32.4 1.48 46.46c7.5 14.04 9.82 17.57 9.82 17.57s-15.49 43.31-10.11 58.06c5.38 14.73 15.01 26.28 15.9 29.05.89 2.76 5.2 28.8 12.91 39.75 7.67 10.95 14.82 11.11 27.13 10.83 12.32-.26 18.23 3.31 25.01 7.86 6.77 4.54 8.74 1.48 15.34-7.33 6.61-8.81 14.45-19.24 14.45-19.24s-11.98-22.37-10.57-38.06c1.42-15.69 25.51-23.39 28.01-37.57 1.6-9.2 16.41-9.82 29.27-3 6.54 33.48 17.91 67.45 17.91 67.45l-4.62 14.88c-4.63 14.89-3.51 76.67-3.09 121.63.38 44.95-33.89 48.58-55.3 62.75-21.42 14.13-8.88 45.46-8.88 45.46l71.76-22.9s3.92-13.44 23.52-29.44c19.64-16.02 21.4-39.72 21.4-39.72s55.61-109.16 58.81-124.8c3.1-15.11 11.04-18.67-2.78-63.16 11.34.85 26.26.89 44.88-2.35 18.01 18.29 41.05 41.61 56.82 57.08 29.49 28.93 25.75 53.91 25.75 53.91s-2.48 10.55-19.96 22.22c-17.48 11.68-12.47 34.45-12.47 34.45l69.62-22.22s1.77-12.76 6.02-28.75c4.29-15.99 6.05-32.39-5.39-45.8-11.42-13.41-10.73-33.12-18.98-58.53-5.86-18.11-23.2-28.86-33.67-35.42z"/></clipPath><clipPath id="id7" style="clip-rule:nonzero"><path d="M3773.36 4667.03c9.95 5.91 22.47 6.65 34.51 6.56.05-26.37.1-39.34.16-66.84-7.24-1.68-14.39-17.75-21.33-20.48-13.02-5.11-25.01-12.3-36.84-19.7-.17-.11-.32-.2-.48-.3.05 26.1.09 51.98.15 77.3 6.32 8.86 14.23 17.75 23.84 23.46z"/></clipPath><clipPath id="id8" style="clip-rule:nonzero"><path d="M3801.86 4752.82c1.98.9 3.94 1.79 5.91 2.76.02-17.44.05-35.56.07-54.29-4.92.05-9.83.05-14.72-.45-14.96-1.52-28.75-5.63-40.83-14.79-.97-.75-1.74-1.72-2.68-2.49.02 14.26.05 28.23.06 41.81 19.21 3.72 36.95 15.28 52.2 27.45z"/></clipPath><clipPath id="id9" style="clip-rule:nonzero"><path d="M3787.15 4776.36c-2.55-1.07-5.11-2.04-7.67-2.96-9.95-3.56-19.84-6.23-29.74-8.25.16 77.52.27 136.8.37 155.92 20.73-2.68 42.59 3.37 57.38 17.99.05-21.16.12-74.28.22-143.61-5.23-5.42-10.63-10.64-16.32-15.56-1.42-1.24-2.83-2.37-4.24-3.53z"/></clipPath><clipPath id="id10" style="clip-rule:nonzero"><path d="m4100.86 3869.2-11.62 9.81v-18.91l-28.01-.73-9.83-34.93-38.56-11.64 2.18-14.55 16.72-4.38c-15.64-32.37 32.75-25.47 33.47-59.31 0-13.46-12.37-5.45-18.93-7.29 6.93-16.72 16.03-24.02 14.58-44.39-29.49-9.45-26.94-42.92-35.68-69.49-7.28-21.47-14.55-13.46-2.17-44.39-12.38-16.03-34.19-13.82-28.75-36.02-17.81-4.72-30.21-.73-47.29 4.35l-4.39-13.44 13.83-12.39c-14.19-65.49-51.3-23.27-89.86-48.03l-24.02-30.54h-52.02c3.66 27.3-5.08 19.29-25.82 14.93l-5.08 3.63-7.29 28.75c-8.74.73-6.55-16.39-9.82-18.56-10.19-6.92-62.22 16.36-42.23 37.47l-21.11-9.47-17.09 32.75c-56.4-16.75-41.11 22.17-47.3 28.74-1.45 1.48-14.19-1.82-21.11 4.72-7.99 7.29-4.73 24.37-9.47 33.48-4 7.64-15.27 6.2-19.27 18.57-8.75 28.74 6.56 22.92 7.28 24.37 1.09 1.48-14.55 14.19-4.75 23.66l-14.54 2.54c0 18.93-5.09 29.49 14.54 37.84l-18.17 7.65c-2.18 7.28-.73 13.82 1.81 20.38h-.72c-1.11 1.82-1.82 3.62-3.65 5.81l9.1 5.47c1.82 3.27 3.26 6.9 5.08 10.2l-.73 5.45-2.54 2.54-37.84 1.09-12.74 21.48c-1.81 0-3.65-.73-5.83-1.09.37 3.27 1.1 5.83 1.48 8.74l-1.48 2.55-26.92-6.93-5.1 18.2-8.72-12.37-30.57 11.26-1.46 4.75c14.56 18.17-18.56 40.01 16.37 44.76-3.3 10.9 8.72 25.47 9.08 31.27.39 6.2-6.9 12.38-7.62 19.66 0 2.54 2.54 38.2 2.9 40.01 2.54 7.63 21.47 11.28 28.01 17.46v38.92c10.19 13.46 24.77 13.82 18.93 34.57-1.82 6.2-14.55.73-14.92 25.1 0 14.55 8 10.2 9.83 14.93 2.17 6.55 0 15.64 3.63 24.02 2.17 5.08 45.85 36.75 52.42 38.2 10.53 1.82 18.54-4.72 26.19-2.91 9.47 2.18 24.01 25.83 38.92 23.27l4.75-9.08 47.3 4.36 10.19-19.27 9.47 9.47 7.63-13.83 15.64 4 6.55-10.53-3.99-17.85c30.19 2.93 36.02 33.48 38.2 58.95.56 6.41 1.01 189.91 1.38 376.21 3.49 2.33 6.92 4.7 10.38 6.86 11.65 7.34 23.56 15.52 36.5 20.34 3.85 1.42 7.85 2.54 11.87 3.53.38-206.77.94-421.44 1.72-430.96 2.9-35.66 16.02-87.68 48.76-107.71 6.93-3.99 67.3-26.91 71.32-26.55 16.72 1.45 22.93 27.29 33.85 37.12 5.08 4.38 14.18 4.38 18.92 9.47 9.8 9.82 4.72 32.75 40.02 11.64 12.73-7.65 6.89-22.56 14.19-28.39 6.92-5.45 28.74-2.91 33.81-10.2 1.12-1.82 13.46-35.3 13.83-37.84 1.11-7.28-3.99-15.27-2.18-21.11 1.82-5.08 17.12-16 17.12-27.64 34.93 4.72 8.71-25.1 27.65-38.56v-4.76l-26.2-19.27z"/></clipPath><clipPath id="id11" style="clip-rule:nonzero"><path d="M541.01 6650.53h-80.59c-14.36 0-26.51 12.71-26.51 26.51 0 13.79 12.15 25.39 26.51 25.39h5.51v1.65l-171.68 436.11-160.11-437.77h10.51c14.33 0 25.39-10.51 25.39-25.39 0-14.92-11.58-26.51-25.39-26.51H26.51c-14.35 0-26.51 12.71-26.51 26.51 0 13.79 12.16 25.39 26.51 25.39l8.29-1.66c1.64 1.66 3.84 7.18 7.71 17.11h-.56l230.76 628.23 247.87-629.87c3.87-10.51 6.08-13.8 5.52-13.8h14.91c14.92 0 26.51-11.06 26.51-25.39 0-14.36-12.15-26.51-26.51-26.51z"/></clipPath><clipPath id="id12" style="clip-rule:nonzero"><path d="M725.39 6705.19h10.49c14.92 0 26.51-11.6 26.51-25.95 0-14.36-11.59-25.95-26.51-25.95H615.54c-14.92 0-26.51 11.59-26.51 25.95 0 14.35 11.59 25.95 26.51 25.95h13.25s1.11 1.1 1.11 6.07v529.97c0 4.97-1.11 6.63-3.87 6.63h-10.49c-7.72 0-14.92 3.3-19.87 8.81-4.41 4.99-6.64 11.05-6.64 17.68 0 14.91 11.59 26.5 26.51 26.5h120.34c14.92 0 26.51-12.15 26.51-26.5 0-14.36-11.59-26.49-26.51-26.49h-13.25s-1.11-1.11-1.11-6.07v-529.96c0-4.99 1.11-6.64 3.87-6.64z"/></clipPath><clipPath id="id13" style="clip-rule:nonzero"><path d="M1225 7111.49c-20.99 0-25.95 20.43-29.27 34.22-7.72 33.12-22.07 94.39-162.3 94.39H932.41v-528.85c0-4.97 1.1-6.64 3.85-6.64h10.51c14.89 0 26.49-11.04 26.49-25.39 0-14.36-12.13-26.49-26.49-26.49H826.41c-14.33 0-26.48 12.13-26.48 26.49 0 14.35 12.15 25.95 26.48 25.95h13.26s1.09 1.1 1.09 6.07v529.96c0 4.97-1.09 6.64-3.84 6.64h-10.51c-14.33 0-26.48 12.68-26.48 26.48s12.15 25.4 26.48 25.4l-.54-.56h396.92l27.6-157.89v-4.41c0-13.79-11.59-25.39-25.4-25.39z"/></clipPath><clipPath id="id14" style="clip-rule:nonzero"><path d="M1719.09 7141.3v-4.4c0-13.8-11.6-25.4-25.4-25.4-20.98 0-25.95 20.4-29.27 34.2-7.71 33.14-22.07 94.41-162.29 94.41h-101.02v-528.85c0-4.98 1.09-6.63 3.85-6.63h10.5c14.9 0 26.49-11.05 26.49-25.4 0-14.35-12.13-26.51-26.49-26.51H1295.1c-14.33 0-26.48 12.16-26.48 26.51 0 14.36 12.15 25.95 26.48 25.95h13.27s1.09 1.1 1.09 6.08v529.97c0 4.96-1.09 6.61-3.85 6.61h-10.51c-14.33 0-26.48 12.71-26.48 26.51 0 13.79 12.15 25.39 26.48 25.39l-.53-.56h396.92l27.6-157.89z"/></clipPath><clipPath id="id15" style="clip-rule:nonzero"><path d="m1889.11 7027.03 89.98-244 84.47 244h-174.45zm361.04 221.36h-12.71c-1.1-1.64-2.76-5.51-6.05-14.89l-202.08-580.75h-85.01c-14.89 0-26.48 11.59-26.48 26.48 0 13.83 12.15 25.4 26.48 25.4h3.87l-195.96 529.96c-3.87 11.6-8.84 13.8-8.84 13.8h-10.48c-14.92 0-26.51 11.6-26.51 25.95 0 14.36 11.59 25.95 26.51 25.95h78.92l13.27-1.64 6.07-7.75 6.05-9.37v-7.75c0-14.33-11.05-25.93-25.4-25.93h-4.97l61.28-166.16h214.75l56.87 166.16h-4.41c-14.92 0-26.51 11.6-26.51 25.93 0 14.36 11.59 25.95 26.51 25.95l-.57.56h115.38c14.36 0 25.39-11.59 25.39-25.95 0-14.35-11.03-25.95-25.39-25.95z"/></clipPath><clipPath id="id16" style="clip-rule:nonzero"><path d="M2776.8 6695.8c68.46 0 91.65 46.38 113.73 91.09 15.45 30.92 31.47 62.91 65.14 62.91 25.93 0 43.05-18.2 43.05-44.71 0-55.19-77.84-161.74-221.37-161.74-127.53 0-263.34 117.03-263.34 333.42 0 183.84 121.45 333.45 271.06 333.45l-.56 1.1c129.18 0 207.03-83.92 207.03-105.44 0-14.36-12.16-27.04-27.08-27.04-8.81 0-14.88 4.4-23.72 11.57-18.76 14.92-57.98 46.38-118.69 46.38-105.44 0-217.51-77.29-217.51-293.69 0-195.41 108.22-247.31 172.25-247.31z"/></clipPath><clipPath id="id17" style="clip-rule:nonzero"><path d="M3301.25 6694.14c61.84 0 179.97 59.07 179.97 281.54 0 222.47-117.58 281.54-179.97 281.54-62.38 0-179.96-59.07-179.96-281.54 0-222.47 117.57-281.54 179.96-281.54zm0-51.35c-167.28 0-271.05 173.36-271.05 333.45 0 183.84 121.45 333.45 271.05 333.45 167.28 0 271.07-172.8 271.07-333.45 0-183.84-121.45-333.45-271.07-333.45z"/></clipPath><clipPath id="id18" style="clip-rule:nonzero"><path d="M3745.65 6974.03V6707.4h119.25c73.99 0 134.14 59.63 134.14 133.59 0 73.98-60.16 133.6-134.14 133.6v-.56h-119.25zm372.08 272.15h-13.24c-2.76-1.09-11.59-14.33-16.03-20.41l-131.38-185.47c-3.87-5.55-8.27-10.52-13.25-15.47 83.91-19.33 146.85-94.39 146.85-184.4 0-104.34-85.02-189.33-189.35-189.33h-261.11c-14.36 0-26.51 12.13-26.51 26.48 0 14.36 12.15 25.95 26.51 25.95h13.25s1.08 1.11 1.08 6.08v529.96c0 4.97-1.08 6.61-3.84 6.61h-10.5c-14.34 0-26.49 12.15-26.49 26.51 0 14.36 12.15 26.51 26.49 26.51h120.36c14.36 0 26.48-12.15 26.48-26.51 0-14.36-12.12-26.51-26.48-26.51h-13.27s-1.09-1.09-1.09-6.05v-209.78h2.21c55.75 0 108.21 27.59 140.77 72.86l102.69 143.53h-3.31c-14.36 0-26.51 12.15-26.51 26.51 0 14.35 12.15 26.49 26.51 26.49v-.54h129.17c14.36 0 26.51-12.15 26.51-26.51 0-14.36-12.15-26.51-26.51-26.51z"/></clipPath><clipPath id="id19" style="clip-rule:nonzero"><path d="M4294.39 7244.53v-266.62h134.69c66.81 7.17 119.25 65.68 119.25 132.48 0 73.97-60.18 134.14-134.13 134.14h-119.81zm126.97-323.5h-126.41v-211.99h111.5c59.06 0 106.54 48.02 106.54 106.54 0 54.11-40.28 99.94-91.63 105.45zm118.13 23.2c39.75-30.39 63.51-77.3 63.51-129.2 0-89.42-72.89-162.29-162.32-162.29h-252.27c-14.35 0-26.51 12.15-26.51 26.51 0 14.32 12.16 25.92 26.51 25.92h13.25s1.11 1.11 1.11 6.07v529.97c0 4.97-1.11 6.63-3.87 6.63h-10.49c-14.35 0-26.51 12.69-26.51 26.48 0 13.8 12.16 25.4 26.51 25.4l-.56-.54h261.12c104.33 0 189.35-85.01 189.35-189.35 0-70.66-38.63-133.61-98.83-165.61z"/></clipPath><clipPath id="id20" style="clip-rule:nonzero"><path d="M5102.03 7112.04c-21 0-25.95 20.43-29.27 34.23-7.73 33.11-22.08 94.39-162.3 94.39h-101.02v-253.95h134.14c6.63 0 6.63 1.11 6.63 4.98v10.48c0 14.36 12.69 26.51 26.49 26.51 13.82 0 25.4-12.15 25.4-26.51v-89.98c0-14.36-11.04-25.4-25.4-25.4-14.33 0-26.49 11.59-26.49 25.4v14.36s-1.1 1.09-6.07 1.09H4810v-214.73h123.11c110.41 0 118.69 45.27 124.21 75.63 2.2 12.69 6.64 35.32 29.27 35.32 14.35 0 25.4-12.12 25.4-29.8l-22.64-140.78h-384.79c-14.91 0-26.51 11.59-26.51 25.95s11.6 25.93 26.51 25.93h13.25s1.11 1.11 1.11 6.07v529.97c0 4.96-1.11 6.63-3.87 6.63h-10.49c-14.91 0-26.51 11.6-26.51 26.48 0 14.92 11.6 26.51 26.51 26.51h395.28l27.59-158.99v-4.41c0-13.8-11.58-25.4-25.39-25.4z"/></clipPath><clipPath id="id21" style="clip-rule:nonzero"><path d="M6207.24 6735.54c-3.31-22.07-6.64-43.59-10.49-65.14l-2.76-17.67h-491.32l-2.77 18.23c-5.03 33.43-10.87 68.2-16.81 104.73-2.1-13.34-4.14-26.64-6.38-40.15-3.32-22.07-6.61-43.59-10.49-65.14l-2.76-17.67h-491.33l-2.76 18.23c-6.08 40.31-13.25 81.71-20.41 126.98 0 14.36 11.04 25.39 25.4 25.39 22.61 0 27.04-23.19 29.24-35.34 5.52-28.15 14.36-75.63 124.78-75.63h44.15v528.88c0 4.97-1.1 6.61-3.85 6.61h-10.51c-14.36 0-26.48 12.71-26.48 26.51s12.12 25.4 26.48 25.4l-1.09-.56h120.34c14.91 0 26.5-11.04 26.5-25.4s-12.15-26.51-26.5-26.51h-13.25s-1.11-1.09-1.11-6.05v-528.88h44.15c110.42 0 118.69 45.27 124.21 75.63 2.21 12.71 6.64 35.34 29.28 35.34 9.6 0 17.4-5.29 21.71-13.87 4.14 8.23 12.34 13.87 22.45 13.87 22.63 0 27.07-23.19 29.27-35.34 5.52-28.15 14.36-75.63 124.77-75.63h44.15v528.88c0 4.97-1.11 6.61-3.87 6.61h-10.48c-14.36 0-26.51 12.71-26.51 26.51s12.15 25.4 26.51 25.4l-1.12-.56h120.37c14.89 0 26.48-11.04 26.48-25.4s-12.13-26.51-26.48-26.51h-13.26s-1.1-1.09-1.1-6.05v-528.88h44.16c110.41 0 118.69 45.27 124.21 75.63 2.2 12.71 6.64 35.34 29.27 35.34 14.35 0 25.4-11.03 25.4-28.71-3.32-19.87-6.08-39.19-9.39-59.07z"/></clipPath><clipPath id="id22" style="clip-rule:nonzero"><path d="M147.67 529.63h958.22c14.59 85.77 27.37 173.38 41.97 260.98 0 5.48-3.66 9.13-9.13 9.13-41.97 0 38.32-233.61-323.06-233.61H678.79v1157.15c0 40.14 21.91 58.39 52.93 58.39h21.91c5.47 0 10.94 5.47 10.94 10.94s-5.47 9.13-10.94 9.13h-253.7c-5.48 0-10.95-3.66-10.95-9.13 0-5.47 5.48-10.94 10.95-10.94h21.9c31.04 0 52.95-18.26 52.95-58.39V566.13h-136.9c-361.38 0-281.08 233.61-323.06 233.61-5.47 0-9.13-3.65-9.13-9.13 14.6-87.61 29.22-175.21 41.98-260.98z"/></clipPath><clipPath id="id23" style="clip-rule:nonzero"><path d="M1992.83 1803.59h-253.71a10.073 10.073 0 0 1 0-20.07h21.91c31.04 0 52.92-18.26 52.92-58.41v-538.42c0-87.62-31.01-188-171.56-188-111.33 0-209.88 82.16-239.1 171.56v554.86c0 40.16 21.91 58.41 52.95 58.41h21.91c14.6 0 14.6 20.07 0 20.07h-253.71a10.073 10.073 0 0 1 0-20.07h21.91c31.01 0 52.92-18.26 52.92-58.41V580.74c0-40.14-21.91-58.39-52.92-58.39h-21.91a10.073 10.073 0 0 1 0-20.07h153.31c12.78 0 25.54 10.95 25.54 25.54v589.52c47.47-83.95 156.96-155.13 266.49-155.13 146.02 0 248.23 85.77 248.23 224.49v538.42c0 40.16 21.88 58.41 52.91 58.41h21.92c14.6 0 14.6 20.07 0 20.07z"/></clipPath><clipPath id="id24" style="clip-rule:nonzero"><path d="M2195.34 1330.87h500.1c0-166.09-47.47-366.86-231.8-366.86-136.89 0-268.3 111.34-268.3 357.73v9.13zm571.26 315.75c0 5.5-85.76 160.62-302.97 160.62-204.41 0-370.5-193.47-370.5-432.55 0-237.29 166.09-430.74 370.5-430.74 211.73 0 324.88 191.63 324.88 423.42h-591.36c20.09 271.96 204.44 372.32 324.87 372.32 171.59 0 228.14-98.55 237.27-98.55 3.66 0 7.3 1.84 7.3 5.47z"/></clipPath><clipPath id="id25"><path d="m10048.72 7124.66-46.24-84.97-191.94-.58 150.88-275.75 266.52 462.47-635.32-.58-.58 84.97 743.41.58v-83.23l-326.03-565.38h-91.91l-265.9 462.48h397.13z"/></clipPath><clipPath id="id26"><path d="M10357.42 6749.48H10669c64.18 2.33 120.25 53.19 122.57 132.96-1.74 34.69-26.6 86.71-91.91 97.12 60.11 12.73 111.58 47.4 102.89 137.6-9.8 56.65-65.9 103.47-128.33 107.51h-316.8v85h349.16c68.23-12.15 175.76-54.93 192.51-167.66 7.52-76.88-14.46-139.88-73.4-163.6 43.35-31.2 66.47-89.59 60.11-157.81-11.55-89.01-76.31-146.24-195.97-158.97h-331.82v87.87h-.58z"/></clipPath><clipPath id="id27"><path d="M10420.44 6850.07v271.71h231.24c30.07-1.74 42.19-21.4 41.61-43.36-1.13-27.76-18.49-41.05-36.4-41.64h-142.22v-101.16h125.44c26.61-2.88 42.22-17.34 42.78-42.79-.56-23.69-13.29-39.31-38.15-42.77h-224.88.58z"/></clipPath><clipPath id="id28"><path d="M10926.26 6746.01h238.75c97.7 3.46 220.27 86.14 221.99 232.4 0 142.2-91.34 230.66-218.5 245.11l-242.23 1.17-1.74 84.97 269.98-1.74c183.25-36.41 295.41-146.25 287.33-346.86-9.83-217.37-192.51-295.97-329.53-300.02h-226.03v84.97z"/></clipPath><clipPath id="id29"><path d="M10989.85 6849.49v272.27l175.73.58c74.58-20.24 111.57-71.09 113.31-143.94-5.2-78.61-57.8-128.33-145.1-128.91h-143.95zm93.67 86.14h62.43c20.22.58 43.36 15.62 46.24 46.24 0 24.86-18.49 50.31-45.68 54.93h-62.99v-101.16z"/></clipPath><clipPath id="id30" style="clip-rule:nonzero"><path d="M8657.92 7320.45h130.32c79.64 0 143.98-64.35 143.98-144 0-73.2-56.3-134.35-127.89-142.39h-146.41v286.39zm0-300.06h136.75c58.73-6.44 104.56-56.31 104.56-117.47 0-65.14-53.06-118.25-118.23-118.25h-123.08v235.72zm-45.85 277.52v-491.5c0-17.69-9.65-25.76-23.33-25.76h-9.63c-2.42 0-4.85-1.6-4.85-4.02 0-2.4 2.43-4.82 4.85-4.82h234.09c72.38 0 131.11 58.73 131.11 131.11 0 56.33-34.6 103.79-84.47 123.11 67.57 16.87 117.43 77.99 117.43 150.42 0 86.87-69.98 156.05-156.04 156.05h-242.12c-2.42 0-4.85-1.6-4.85-4.02 0-2.42 2.43-4.85 4.85-4.85h9.63c13.68 0 23.33-8.03 23.33-25.73z"/></clipPath><clipPath id="id31" style="clip-rule:nonzero"><path d="M9360.02 6970.51c0 2.43-2.43 4.83-4.84 4.83h-3.2c-13.67 0-17.69 7.23-25.73 24.93-212.37 495.54-215.6 535.75-279.97 535.75-60.32 0-86.85-40.21-86.85-69.18 0-16.08 8.03-28.96 22.5-28.96 16.91 0 19.3 13.67 19.3 29.78 0 4.02-.78 8.84-.78 13.67 0 22.52 3.2 45.83 41.82 45.83 43.45 0 71.6-61.12 88.5-100.53l45.05-105.38-131.96-316.96c-7.21-17.7-12.85-28.95-26.53-28.95h-4.03c-2.39 0-4.03-2.4-4.03-4.83 0-2.41 1.64-4.84 4.03-4.84h99.75c2.42 0 4.84 2.43 4.84 4.84 0 2.43-2.42 4.83-4.84 4.83h-9.64c-9.66 0-13.67 4.03-13.67 11.25 0 4.03.79 8.86 3.22 13.68l107 263.87 109.4-257.42c3.19-6.44 4.01-12.06 4.01-16.88 0-8.86-4.01-14.5-12.88-14.5h-5.64c-2.41 0-4.81-2.4-4.81-4.83 0-2.41 2.4-4.84 4.81-4.84h60.34c2.41 0 4.84 2.43 4.84 4.84z"/></clipPath><linearGradient id="id32" x1="0%" x2="100%" y1="50%" y2="50%" gradientUnits="objectBoundingBox"><stop offset="0" style="stop-opacity:1;stop-color:#feeda0"/><stop offset="1" style="stop-opacity:1;stop-color:#cb9b31"/></linearGradient><style>.fil2,.fil4{fill:none}.fil2{fill-rule:nonzero}.fil0,.fil3{fill:#f60}.fil0{fill-rule:nonzero}.fil1{fill:url(#id32)}</style></defs><g id="Layer_x0020_1"><g id="_105553184247136"><path d="M3347.51 5643.88c179.7-7.6 351.99-16.72 510.48-111.07 5.23-3.1 10.35-5.06 15.44-6.52 108.19-122.34 249.88-222.76 335.61-363.46 70.13-115.13 90.75-253.2 116.02-385.18l-5.39-4.04-12.28-12.08-17.47 7.4-6.58-33.24-19.69 15.84-14.82-2.14-15.85 3.27-10.05-27.52-15.3-2.71-16.68 10.82-16.27 22.37-14.02-16.66-14.67 6.96-16.05-18.33-12.93 24.21-16.13-8.4-12.53 16.43-13.67 7.31-18.71-15.49-9.9 23.77-16.92-2.64-14.36 8.15-18.98-15.01-11.52 23.27-19.12-19.97-14.64 5.52-12.83 20.26-18.04-20.12-11.36 37.94-16.56-8.83-16.84-14.46-12.52 35.3-18.38-34.96-13.03 30.89-16.25-9.32-15.39 1.31-17.04-16.44-15.55 1.58-12.49 29.59-14.04 12-18.45-22.22-16.5-4.45-14.31 10.19-9.29 36.58-19.42-19.59-16.84-3.99-16.37.29-7.24 30.11-14.99 3.1-10.77 15.42-18.61-6.18-15.25 3.44-4.97 29.92-22.73-15.45-7.58 22.8-24.16-18.23-18.23-3.37-7.05 23.8-17.52-1.62-8.22 20.84-6.82 24.18-12.1 11.46-22.98-14.77-5.57 27.36-17.85-2.42-15.17 3.99-7.94 22.03-28.76-30.19-5.85 27.43-15.45 3.15-10.73 15.39-10.96 15.14-26.61-27.62-8.64 21.42-13.42 8.38-7.19 27.52-26.24-31.74-10.74 16.68-9.13 24.43-16.32-1.47-14.57 5.25-18.59-20.19-13.41 3.39-13.05 14.72-14.71 2.35-12.06-19.51-19.81 28.34-10.48-23.84-18.69 14.45-12.98-10.51-12.34-12.13-22.95 25.74-2.88-44.28-25.2 31.3-9.88-19.53-13.26-8.3-17.11 3.7-12.33-11.04-16.75 2.32-14.3-5.06-15.97-.13-8.6-21.75-16.09.24-17.82 5.18-8.96-20.46-15.62-1.16-11.52-10.85c3.58 24.34 5.88 48.96 6.73 73.69 3.75 110.8-19.49 213.28-66.81 297.18 33.16 23.24 85.55 53.28-2.35 4.07l-.08.1c40.72 23.11 89.7 92.71 136.08 175.09 2.57.56 5.06.95 7.75 1.89 76.62 26.97 140.23 87.09 219.88 104.05 84.07 17.91 177.99 1.91 263-1.67z" class="fil0"/><path d="M-81.29-58.63h13184.83v7653.29H-81.29z" class="fil1" style="clip-path:url(#id0)"/><path d="M3347.51 5643.88c179.7-7.6 351.99-16.72 510.48-111.07 5.23-3.1 10.35-5.06 15.44-6.52 108.19-122.34 249.88-222.76 335.61-363.46 70.13-115.13 90.75-253.2 116.02-385.18l-5.39-4.04-12.28-12.08-17.47 7.4-6.58-33.24-19.69 15.84-14.82-2.14-15.85 3.27-10.05-27.52-15.3-2.71-16.68 10.82-16.27 22.37-14.02-16.66-14.67 6.96-16.05-18.33-12.93 24.21-16.13-8.4-12.53 16.43-13.67 7.31-18.71-15.49-9.9 23.77-16.92-2.64-14.36 8.15-18.98-15.01-11.52 23.27-19.12-19.97-14.64 5.52-12.83 20.26-18.04-20.12-11.36 37.94-16.56-8.83-16.84-14.46-12.52 35.3-18.38-34.96-13.03 30.89-16.25-9.32-15.39 1.31-17.04-16.44-15.55 1.58-12.49 29.59-14.04 12-18.45-22.22-16.5-4.45-14.31 10.19-9.29 36.58-19.42-19.59-16.84-3.99-16.37.29-7.24 30.11-14.99 3.1-10.77 15.42-18.61-6.18-15.25 3.44-4.97 29.92-22.73-15.45-7.58 22.8-24.16-18.23-18.23-3.37-7.05 23.8-17.52-1.62-8.22 20.84-6.82 24.18-12.1 11.46-22.98-14.77-5.57 27.36-17.85-2.42-15.17 3.99-7.94 22.03-28.76-30.19-5.85 27.43-15.45 3.15-10.73 15.39-10.96 15.14-26.61-27.62-8.64 21.42-13.42 8.38-7.19 27.52-26.24-31.74-10.74 16.68-9.13 24.43-16.32-1.47-14.57 5.25-18.59-20.19-13.41 3.39-13.05 14.72-14.71 2.35-12.06-19.51-19.81 28.34-10.48-23.84-18.69 14.45-12.98-10.51-12.34-12.13-22.95 25.74-2.88-44.28-25.2 31.3-9.88-19.53-13.26-8.3-17.11 3.7-12.33-11.04-16.75 2.32-14.3-5.06-15.97-.13-8.6-21.75-16.09.24-17.82 5.18-8.96-20.46-15.62-1.16-11.52-10.85c3.58 24.34 5.88 48.96 6.73 73.69 3.75 110.8-19.49 213.28-66.81 297.18 33.16 23.24 85.55 53.28-2.35 4.07l-.08.1c40.72 23.11 89.7 92.71 136.08 175.09 2.57.56 5.06.95 7.75 1.89 76.62 26.97 140.23 87.09 219.88 104.05 84.07 17.91 177.99 1.91 263-1.67z" class="fil2"/><path d="M2033.93 4874.54c0 530.52-388.64 820.34-993.14 820.34-702.75 0-993.12-412.95-993.12-659.7 0-104.9 49.12-178.87 147.95-178.87 338.96 0 73.98 764.59 888.25 764.59 227.98 0 727.6-135.81 727.6-610.56 0-764.59-1695.89-635.42-1695.89-1529.19 0-443.84 301.97-702.74 888.25-702.74 628.76 0 937.37 443.84 937.37 684.54 0 92.74-43.07 154.01-129.72 154.01-338.97 0-86.12-770.65-814.28-770.65-394.71 0-665.78 209.76-665.78 523.89 0 628.79 1701.97 530.53 1701.97 1504.88l.56-.55z" class="fil0"/><path d="M-81.29-58.63h13184.83v7653.29H-81.29z" class="fil1" style="clip-path:url(#id1)"/><path d="M2033.93 4874.54c0 530.52-388.64 820.34-993.14 820.34-702.75 0-993.12-412.95-993.12-659.7 0-104.9 49.12-178.87 147.95-178.87 338.96 0 73.98 764.59 888.25 764.59 227.98 0 727.6-135.81 727.6-610.56 0-764.59-1695.89-635.42-1695.89-1529.19 0-443.84 301.97-702.74 888.25-702.74 628.76 0 937.37 443.84 937.37 684.54 0 92.74-43.07 154.01-129.72 154.01-338.97 0-86.12-770.65-814.28-770.65-394.71 0-665.78 209.76-665.78 523.89 0 628.79 1701.97 530.53 1701.97 1504.88l.56-.55z" class="fil2"/><path d="M7280.46 2859.82v2830.11c-201.87 0-360.19-163.98-360.19-360.19v-183.21c-163.98 296.87-549.63 543.4-922.26 543.4-511.74 0-858.94-303.08-858.94-776.94V3043.03c0-132.88-75.78-195.65-183.21-195.65h-75.78c-19.22 0-37.88-18.67-37.88-37.88 0-19.22 18.67-37.89 37.88-37.89h530.41c44.1 0 88.21 37.89 88.21 88.22V4913c0 303.09 107.44 644.07 587.51 644.07 391.87 0 732.84-284.43 834.05-593.74v-1920.3c0-132.88-75.78-195.65-183.21-195.65h-75.77c-19.22 0-37.89-18.67-37.89-37.88 0-19.22 18.67-37.89 37.89-37.89h530.39c44.11 0 88.23 37.89 88.23 88.22h.55z" class="fil0"/><path d="M-81.29-58.63h13184.83v7653.29H-81.29z" class="fil1" style="clip-path:url(#id2)"/><path d="M7280.46 2859.82v2830.11c-201.87 0-360.19-163.98-360.19-360.19v-183.21c-163.98 296.87-549.63 543.4-922.26 543.4-511.74 0-858.94-303.08-858.94-776.94V3043.03c0-132.88-75.78-195.65-183.21-195.65h-75.78c-19.22 0-37.88-18.67-37.88-37.88 0-19.22 18.67-37.89 37.88-37.89h530.41c44.1 0 88.21 37.89 88.21 88.22V4913c0 303.09 107.44 644.07 587.51 644.07 391.87 0 732.84-284.43 834.05-593.74v-1920.3c0-132.88-75.78-195.65-183.21-195.65h-75.77c-19.22 0-37.89-18.67-37.89-37.88 0-19.22 18.67-37.89 37.89-37.89h530.39c44.11 0 88.23 37.89 88.23 88.22h.55z" class="fil2"/><path d="M11146.26 3990.24c-723.37-12.13-1433.78-98.74-1433.78 862.82 0 369.64 100.76 739.25 628.78 739.25 477.95 0 805-382.32 805-782.82v-819.81.56zm351.84-332.67V5697.7c-194.77 0-352.4-159.99-352.4-351.43v-147.84c-138.5 271.42-440.23 499.26-874.24 499.26-383.36 0-911.98-135.71-911.98-838.01 0-1016.75 1056.65-948.9 1786.22-930.69v-437.46c0-419.29-232.49-659.27-660.34-659.27-396.31 0-490.31 215.7-540.98 419.29-25.31-86.06-69.23-172.68-144.67-252.69 144.67-129.63 370.97-234.47 685.65-234.47 761.09 0 1012.73 425.34 1012.73 893.72v-.56zm-3131.6-289.63v1990.48c0 135.71 81.61 264.79 188.58 264.79h75.43c43.89 0 43.89 67.86 0 67.86h-886.62c-43.92 0-43.92-67.86 0-67.86h81.63c106.96 0 182.4-129.63 182.4-264.79V3102.6c0-135.7-75.44-249.45-182.4-249.45h-81.63c-19.15 0-31.52-18.76-31.52-36.96 0-18.21 12.37-36.97 31.52-36.97h534.24c50.09 0 87.8 36.97 87.8 86.06v293.02c125.54-184.81 345.64-394.45 678.89-394.45 603.49 0 855.11 382.32 855.11 628.38 0 123.02-63.04 215.7-163.26 215.7-352.38 0-43.89-776.77-710.42-776.77-264.01 0-540.98 190.88-660.33 536.23l.58.56z" class="fil0"/><path d="M-81.29-58.63h13184.83v7653.29H-81.29z" class="fil1" style="clip-path:url(#id3)"/><path d="M11146.26 3990.24c-723.37-12.13-1433.78-98.74-1433.78 862.82 0 369.64 100.76 739.25 628.78 739.25 477.95 0 805-382.32 805-782.82v-819.81.56zm351.84-332.67V5697.7c-194.77 0-352.4-159.99-352.4-351.43v-147.84c-138.5 271.42-440.23 499.26-874.24 499.26-383.36 0-911.98-135.71-911.98-838.01 0-1016.75 1056.65-948.9 1786.22-930.69v-437.46c0-419.29-232.49-659.27-660.34-659.27-396.31 0-490.31 215.7-540.98 419.29-25.31-86.06-69.23-172.68-144.67-252.69 144.67-129.63 370.97-234.47 685.65-234.47 761.09 0 1012.73 425.34 1012.73 893.72v-.56zm-3131.6-289.63v1990.48c0 135.71 81.61 264.79 188.58 264.79h75.43c43.89 0 43.89 67.86 0 67.86h-886.62c-43.92 0-43.92-67.86 0-67.86h81.63c106.96 0 182.4-129.63 182.4-264.79V3102.6c0-135.7-75.44-249.45-182.4-249.45h-81.63c-19.15 0-31.52-18.76-31.52-36.96 0-18.21 12.37-36.97 31.52-36.97h534.24c50.09 0 87.8 36.97 87.8 86.06v293.02c125.54-184.81 345.64-394.45 678.89-394.45 603.49 0 855.11 382.32 855.11 628.38 0 123.02-63.04 215.7-163.26 215.7-352.38 0-43.89-776.77-710.42-776.77-264.01 0-540.98 190.88-660.33 536.23l.58.56z" class="fil2"/><path d="M13022.26 1540.03c0-40.18-50.09-80.35-143.66-80.35-20.06 0-39.96.39-59.74 1.19-334.51 13.58-662.27-93.78-912.15-316.59C11398.32 690.9 10784.95 0 9878.88 0 9184.25 0 8836.4 427.66 8836.4 868.54c0 471.15 394.09 958.79 1178.96 958.79 587.86 0 878.45-330.78 878.45-504.16 0-59.98-36.87-100.18-110.08-100.18 0 0-173.93 568.03-791.49 568.03-674.81 0-1049.06-447.49-1049.06-868.55 0-374.29 293.91-724.89 938.43-724.89 970.39 0 1533.68 831.34 2263.14 1212.02 115.48 60.25 238.77 104.17 365.45 134.52 68.7 19.78 244.29 16.44 331.63 22.89 5.86.43 7.68 7.89 2.64 10.96-390.41 238.75-761.2 630.41-761.2 1023.26v2754.78c0 190.45 153.55 350.63 350.6 350.63V2601.76c0-536.09 258.14-852.01 553.17-1001.73 23.19-11.74 34.91-34.67 34.83-57.25.02-.92.38-1.82.38-2.74z" class="fil0"/><path d="M-81.29-58.63h13184.83v7653.29H-81.29z" class="fil1" style="clip-path:url(#id4)"/><path d="M13022.26 1540.03c0-40.18-50.09-80.35-143.66-80.35-20.06 0-39.96.39-59.74 1.19-334.51 13.58-662.27-93.78-912.15-316.59C11398.32 690.9 10784.95 0 9878.88 0 9184.25 0 8836.4 427.66 8836.4 868.54c0 471.15 394.09 958.79 1178.96 958.79 587.86 0 878.45-330.78 878.45-504.16 0-59.98-36.87-100.18-110.08-100.18 0 0-173.93 568.03-791.49 568.03-674.81 0-1049.06-447.49-1049.06-868.55 0-374.29 293.91-724.89 938.43-724.89 970.39 0 1533.68 831.34 2263.14 1212.02 115.48 60.25 238.77 104.17 365.45 134.52 68.7 19.78 244.29 16.44 331.63 22.89 5.86.43 7.68 7.89 2.64 10.96-390.41 238.75-761.2 630.41-761.2 1023.26v2754.78c0 190.45 153.55 350.63 350.6 350.63V2601.76c0-536.09 258.14-852.01 553.17-1001.73 23.19-11.74 34.91-34.67 34.83-57.25.02-.92.38-1.82.38-2.74z" class="fil2"/><path d="M3558.19 2763.85c-617.24 0-891.57 411.49-891.57 660.88 0 105.98 49.9 187.03 143.39 187.03 342.88 0 12.53-779.19 747.99-779.34 359.4-.07 648.59 296.53 648.59 655.92v447.63c-.22 0-.47-.02-.7-.02v56.11h.7v829.23c0 405.25-317.95 779.34-785.56 779.34-376.12 0-623.46 204.34-623.46-741.94 0-515.66 312.68-668.36 600.83-753.21-360.35-87.95-949.98 144.78-949.98 765.68 0 704.54 517.48 835.45 904.03 835.45 423.96 0 723.22-224.45 854.14-498.78v149.63c0 193.29 155.88 349.16 349.16 349.16V3661.63c0-473.82-249.4-897.79-997.55-897.79z" class="fil0"/><path d="M-81.29-58.63h13184.83v7653.29H-81.29z" class="fil1" style="clip-path:url(#id5)"/><path d="M3558.19 2763.85c-617.24 0-891.57 411.49-891.57 660.88 0 105.98 49.9 187.03 143.39 187.03 342.88 0 12.53-779.19 747.99-779.34 359.4-.07 648.59 296.53 648.59 655.92v447.63c-.22 0-.47-.02-.7-.02v56.11h.7v829.23c0 405.25-317.95 779.34-785.56 779.34-376.12 0-623.46 204.34-623.46-741.94 0-515.66 312.68-668.36 600.83-753.21-360.35-87.95-949.98 144.78-949.98 765.68 0 704.54 517.48 835.45 904.03 835.45 423.96 0 723.22-224.45 854.14-498.78v149.63c0 193.29 155.88 349.16 349.16 349.16V3661.63c0-473.82-249.4-897.79-997.55-897.79z" class="fil2"/><path d="M3385.09 4816.94c41.03-20.75 71.22-48.46 82.86-60.71 5.3-5.57 17.34-11.74 30.68-17.43 9.03 13.35 31.92 47.47 47.95 73.98 20.38 33.69 16.15 82.58 16.15 82.58s-11.78 7.43-26.77 19.51c-14.99 12.1-12.1 39.22-12.1 39.22l64.25-20.53s22.13-30.21 29.25-51.97c7.11-21.77 3.9-35.37-5.08-81.24-4.94-25.33 4.69-54.57 14.3-75.68 13.64 5.79 31.3 7.38 62.07 8.64 57.49 2.38 117.5 30.74 136.83 64.78 19.32 34.04-9.98 31.21-15.33 43.89-5.35 12.66 1.09 28.88 1.09 28.88l69.62-22.23s1.79-1.79 5.35-16.31c3.56-14.55-.75-31.45-.75-31.45s-10.02-34.57-31.86-76.35c-21.82-41.78-47.13-17.84-95.74-51.08-31.23-21.35-54.2-45.85-66.63-60.62 5.16-2.04 14.08-4.42 28.72-5.25 27.86-1.6 62.5 10.51 128.59 43.02 66.08 32.52 137.5 4.84 136.73-48.52-.75-53.37-41.49-91.55-67.57-80.81-26.04 10.77-12.46 23.48 3.25 35.54 15.73 12.03 38.98 47.26-8.86 63.76-47.83 16.5-111.79-31.35-165.76-62.86-34.4-20.07-81.1-15.94-110.44-10.3 0 0-68.49-5.69-115.61 9.35-47.11 15.05-46.41 13.61-46.41 13.61s-55.01-16.56-129.95 25.63c-74.94 42.22-83.52 52.26-83.52 52.26s-13.03-.6-39.14 10.42v-.03s-65.83 2.1-112.79 17.69c-46.94 15.59-65.31 43.42-65.31 43.42s13.95 7.71 11.81 17.54c0 0-13.77-16.94-36.08-25.66-22.33-8.72-23.75-5.81-23.75-5.81s-6.05 32.4 1.48 46.46c7.5 14.04 9.82 17.57 9.82 17.57s-15.49 43.31-10.11 58.06c5.38 14.73 15.01 26.28 15.9 29.05.89 2.76 5.2 28.8 12.91 39.75 7.67 10.95 14.82 11.11 27.13 10.83 12.32-.26 18.23 3.31 25.01 7.86 6.77 4.54 8.74 1.48 15.34-7.33 6.61-8.81 14.45-19.24 14.45-19.24s-11.98-22.37-10.57-38.06c1.42-15.69 25.51-23.39 28.01-37.57 1.6-9.2 16.41-9.82 29.27-3 6.54 33.48 17.91 67.45 17.91 67.45l-4.62 14.88c-4.63 14.89-3.51 76.67-3.09 121.63.38 44.95-33.89 48.58-55.3 62.75-21.42 14.13-8.88 45.46-8.88 45.46l71.76-22.9s3.92-13.44 23.52-29.44c19.64-16.02 21.4-39.72 21.4-39.72s55.61-109.16 58.81-124.8c3.1-15.11 11.04-18.67-2.78-63.16 11.34.85 26.26.89 44.88-2.35 18.01 18.29 41.05 41.61 56.82 57.08 29.49 28.93 25.75 53.91 25.75 53.91s-2.48 10.55-19.96 22.22c-17.48 11.68-12.47 34.45-12.47 34.45l69.62-22.22s1.77-12.76 6.02-28.75c4.29-15.99 6.05-32.39-5.39-45.8-11.42-13.41-10.73-33.12-18.98-58.53-5.86-18.11-23.2-28.86-33.67-35.42z" class="fil3"/><path d="M-81.29-58.63h13184.83v7653.29H-81.29z" class="fil1" style="clip-path:url(#id6)"/><path d="M3385.09 4816.94c41.03-20.75 71.22-48.46 82.86-60.71 5.3-5.57 17.34-11.74 30.68-17.43 9.03 13.35 31.92 47.47 47.95 73.98 20.38 33.69 16.15 82.58 16.15 82.58s-11.78 7.43-26.77 19.51c-14.99 12.1-12.1 39.22-12.1 39.22l64.25-20.53s22.13-30.21 29.25-51.97c7.11-21.77 3.9-35.37-5.08-81.24-4.94-25.33 4.69-54.57 14.3-75.68 13.64 5.79 31.3 7.38 62.07 8.64 57.49 2.38 117.5 30.74 136.83 64.78 19.32 34.04-9.98 31.21-15.33 43.89-5.35 12.66 1.09 28.88 1.09 28.88l69.62-22.23s1.79-1.79 5.35-16.31c3.56-14.55-.75-31.45-.75-31.45s-10.02-34.57-31.86-76.35c-21.82-41.78-47.13-17.84-95.74-51.08-31.23-21.35-54.2-45.85-66.63-60.62 5.16-2.04 14.08-4.42 28.72-5.25 27.86-1.6 62.5 10.51 128.59 43.02 66.08 32.52 137.5 4.84 136.73-48.52-.75-53.37-41.49-91.55-67.57-80.81-26.04 10.77-12.46 23.48 3.25 35.54 15.73 12.03 38.98 47.26-8.86 63.76-47.83 16.5-111.79-31.35-165.76-62.86-34.4-20.07-81.1-15.94-110.44-10.3 0 0-68.49-5.69-115.61 9.35-47.11 15.05-46.41 13.61-46.41 13.61s-55.01-16.56-129.95 25.63c-74.94 42.22-83.52 52.26-83.52 52.26s-13.03-.6-39.14 10.42v-.03s-65.83 2.1-112.79 17.69c-46.94 15.59-65.31 43.42-65.31 43.42s13.95 7.71 11.81 17.54c0 0-13.77-16.94-36.08-25.66-22.33-8.72-23.75-5.81-23.75-5.81s-6.05 32.4 1.48 46.46c7.5 14.04 9.82 17.57 9.82 17.57s-15.49 43.31-10.11 58.06c5.38 14.73 15.01 26.28 15.9 29.05.89 2.76 5.2 28.8 12.91 39.75 7.67 10.95 14.82 11.11 27.13 10.83 12.32-.26 18.23 3.31 25.01 7.86 6.77 4.54 8.74 1.48 15.34-7.33 6.61-8.81 14.45-19.24 14.45-19.24s-11.98-22.37-10.57-38.06c1.42-15.69 25.51-23.39 28.01-37.57 1.6-9.2 16.41-9.82 29.27-3 6.54 33.48 17.91 67.45 17.91 67.45l-4.62 14.88c-4.63 14.89-3.51 76.67-3.09 121.63.38 44.95-33.89 48.58-55.3 62.75-21.42 14.13-8.88 45.46-8.88 45.46l71.76-22.9s3.92-13.44 23.52-29.44c19.64-16.02 21.4-39.72 21.4-39.72s55.61-109.16 58.81-124.8c3.1-15.11 11.04-18.67-2.78-63.16 11.34.85 26.26.89 44.88-2.35 18.01 18.29 41.05 41.61 56.82 57.08 29.49 28.93 25.75 53.91 25.75 53.91s-2.48 10.55-19.96 22.22c-17.48 11.68-12.47 34.45-12.47 34.45l69.62-22.22s1.77-12.76 6.02-28.75c4.29-15.99 6.05-32.39-5.39-45.8-11.42-13.41-10.73-33.12-18.98-58.53-5.86-18.11-23.2-28.86-33.67-35.42z" class="fil4"/><path d="M3773.36 4667.03c9.95 5.91 22.47 6.65 34.51 6.56.05-26.37.1-39.34.16-66.84-7.24-1.68-14.39-17.75-21.33-20.48-13.02-5.11-25.01-12.3-36.84-19.7-.17-.11-.32-.2-.48-.3.05 26.1.09 51.98.15 77.3 6.32 8.86 14.23 17.75 23.84 23.46z" class="fil0"/><path d="M-81.29-58.63h13184.83v7653.29H-81.29z" class="fil1" style="clip-path:url(#id7)"/><path d="M3773.36 4667.03c9.95 5.91 22.47 6.65 34.51 6.56.05-26.37.1-39.34.16-66.84-7.24-1.68-14.39-17.75-21.33-20.48-13.02-5.11-25.01-12.3-36.84-19.7-.17-.11-.32-.2-.48-.3.05 26.1.09 51.98.15 77.3 6.32 8.86 14.23 17.75 23.84 23.46z" class="fil2"/><path d="M3801.86 4752.82c1.98.9 3.94 1.79 5.91 2.76.02-17.44.05-35.56.07-54.29-4.92.05-9.83.05-14.72-.45-14.96-1.52-28.75-5.63-40.83-14.79-.97-.75-1.74-1.72-2.68-2.49.02 14.26.05 28.23.06 41.81 19.21 3.72 36.95 15.28 52.2 27.45z" class="fil0"/><path d="M-81.29-58.63h13184.83v7653.29H-81.29z" class="fil1" style="clip-path:url(#id8)"/><path d="M3801.86 4752.82c1.98.9 3.94 1.79 5.91 2.76.02-17.44.05-35.56.07-54.29-4.92.05-9.83.05-14.72-.45-14.96-1.52-28.75-5.63-40.83-14.79-.97-.75-1.74-1.72-2.68-2.49.02 14.26.05 28.23.06 41.81 19.21 3.72 36.95 15.28 52.2 27.45z" class="fil2"/><path d="M3787.15 4776.36c-2.55-1.07-5.11-2.04-7.67-2.96-9.95-3.56-19.84-6.23-29.74-8.25.16 77.52.27 136.8.37 155.92 20.73-2.68 42.59 3.37 57.38 17.99.05-21.16.12-74.28.22-143.61-5.23-5.42-10.63-10.64-16.32-15.56-1.42-1.24-2.83-2.37-4.24-3.53z" class="fil0"/><path d="M-81.29-58.63h13184.83v7653.29H-81.29z" class="fil1" style="clip-path:url(#id9)"/><path d="M3787.15 4776.36c-2.55-1.07-5.11-2.04-7.67-2.96-9.95-3.56-19.84-6.23-29.74-8.25.16 77.52.27 136.8.37 155.92 20.73-2.68 42.59 3.37 57.38 17.99.05-21.16.12-74.28.22-143.61-5.23-5.42-10.63-10.64-16.32-15.56-1.42-1.24-2.83-2.37-4.24-3.53z" class="fil2"/><path d="m4100.86 3869.2-11.62 9.81v-18.91l-28.01-.73-9.83-34.93-38.56-11.64 2.18-14.55 16.72-4.38c-15.64-32.37 32.75-25.47 33.47-59.31 0-13.46-12.37-5.45-18.93-7.29 6.93-16.72 16.03-24.02 14.58-44.39-29.49-9.45-26.94-42.92-35.68-69.49-7.28-21.47-14.55-13.46-2.17-44.39-12.38-16.03-34.19-13.82-28.75-36.02-17.81-4.72-30.21-.73-47.29 4.35l-4.39-13.44 13.83-12.39c-14.19-65.49-51.3-23.27-89.86-48.03l-24.02-30.54h-52.02c3.66 27.3-5.08 19.29-25.82 14.93l-5.08 3.63-7.29 28.75c-8.74.73-6.55-16.39-9.82-18.56-10.19-6.92-62.22 16.36-42.23 37.47l-21.11-9.47-17.09 32.75c-56.4-16.75-41.11 22.17-47.3 28.74-1.45 1.48-14.19-1.82-21.11 4.72-7.99 7.29-4.73 24.37-9.47 33.48-4 7.64-15.27 6.2-19.27 18.57-8.75 28.74 6.56 22.92 7.28 24.37 1.09 1.48-14.55 14.19-4.75 23.66l-14.54 2.54c0 18.93-5.09 29.49 14.54 37.84l-18.17 7.65c-2.18 7.28-.73 13.82 1.81 20.38h-.72c-1.11 1.82-1.82 3.62-3.65 5.81l9.1 5.47c1.82 3.27 3.26 6.9 5.08 10.2l-.73 5.45-2.54 2.54-37.84 1.09-12.74 21.48c-1.81 0-3.65-.73-5.83-1.09.37 3.27 1.1 5.83 1.48 8.74l-1.48 2.55-26.92-6.93-5.1 18.2-8.72-12.37-30.57 11.26-1.46 4.75c14.56 18.17-18.56 40.01 16.37 44.76-3.3 10.9 8.72 25.47 9.08 31.27.39 6.2-6.9 12.38-7.62 19.66 0 2.54 2.54 38.2 2.9 40.01 2.54 7.63 21.47 11.28 28.01 17.46v38.92c10.19 13.46 24.77 13.82 18.93 34.57-1.82 6.2-14.55.73-14.92 25.1 0 14.55 8 10.2 9.83 14.93 2.17 6.55 0 15.64 3.63 24.02 2.17 5.08 45.85 36.75 52.42 38.2 10.53 1.82 18.54-4.72 26.19-2.91 9.47 2.18 24.01 25.83 38.92 23.27l4.75-9.08 47.3 4.36 10.19-19.27 9.47 9.47 7.63-13.83 15.64 4 6.55-10.53-3.99-17.85c30.19 2.93 36.02 33.48 38.2 58.95.56 6.41 1.01 189.91 1.38 376.21 3.49 2.33 6.92 4.7 10.38 6.86 11.65 7.34 23.56 15.52 36.5 20.34 3.85 1.42 7.85 2.54 11.87 3.53.38-206.77.94-421.44 1.72-430.96 2.9-35.66 16.02-87.68 48.76-107.71 6.93-3.99 67.3-26.91 71.32-26.55 16.72 1.45 22.93 27.29 33.85 37.12 5.08 4.38 14.18 4.38 18.92 9.47 9.8 9.82 4.72 32.75 40.02 11.64 12.73-7.65 6.89-22.56 14.19-28.39 6.92-5.45 28.74-2.91 33.81-10.2 1.12-1.82 13.46-35.3 13.83-37.84 1.11-7.28-3.99-15.27-2.18-21.11 1.82-5.08 17.12-16 17.12-27.64 34.93 4.72 8.71-25.1 27.65-38.56v-4.76l-26.2-19.27z" class="fil0"/><path d="M-81.29-58.63h13184.83v7653.29H-81.29z" class="fil1" style="clip-path:url(#id10)"/><path d="m4100.86 3869.2-11.62 9.81v-18.91l-28.01-.73-9.83-34.93-38.56-11.64 2.18-14.55 16.72-4.38c-15.64-32.37 32.75-25.47 33.47-59.31 0-13.46-12.37-5.45-18.93-7.29 6.93-16.72 16.03-24.02 14.58-44.39-29.49-9.45-26.94-42.92-35.68-69.49-7.28-21.47-14.55-13.46-2.17-44.39-12.38-16.03-34.19-13.82-28.75-36.02-17.81-4.72-30.21-.73-47.29 4.35l-4.39-13.44 13.83-12.39c-14.19-65.49-51.3-23.27-89.86-48.03l-24.02-30.54h-52.02c3.66 27.3-5.08 19.29-25.82 14.93l-5.08 3.63-7.29 28.75c-8.74.73-6.55-16.39-9.82-18.56-10.19-6.92-62.22 16.36-42.23 37.47l-21.11-9.47-17.09 32.75c-56.4-16.75-41.11 22.17-47.3 28.74-1.45 1.48-14.19-1.82-21.11 4.72-7.99 7.29-4.73 24.37-9.47 33.48-4 7.64-15.27 6.2-19.27 18.57-8.75 28.74 6.56 22.92 7.28 24.37 1.09 1.48-14.55 14.19-4.75 23.66l-14.54 2.54c0 18.93-5.09 29.49 14.54 37.84l-18.17 7.65c-2.18 7.28-.73 13.82 1.81 20.38h-.72c-1.11 1.82-1.82 3.62-3.65 5.81l9.1 5.47c1.82 3.27 3.26 6.9 5.08 10.2l-.73 5.45-2.54 2.54-37.84 1.09-12.74 21.48c-1.81 0-3.65-.73-5.83-1.09.37 3.27 1.1 5.83 1.48 8.74l-1.48 2.55-26.92-6.93-5.1 18.2-8.72-12.37-30.57 11.26-1.46 4.75c14.56 18.17-18.56 40.01 16.37 44.76-3.3 10.9 8.72 25.47 9.08 31.27.39 6.2-6.9 12.38-7.62 19.66 0 2.54 2.54 38.2 2.9 40.01 2.54 7.63 21.47 11.28 28.01 17.46v38.92c10.19 13.46 24.77 13.82 18.93 34.57-1.82 6.2-14.55.73-14.92 25.1 0 14.55 8 10.2 9.83 14.93 2.17 6.55 0 15.64 3.63 24.02 2.17 5.08 45.85 36.75 52.42 38.2 10.53 1.82 18.54-4.72 26.19-2.91 9.47 2.18 24.01 25.83 38.92 23.27l4.75-9.08 47.3 4.36 10.19-19.27 9.47 9.47 7.63-13.83 15.64 4 6.55-10.53-3.99-17.85c30.19 2.93 36.02 33.48 38.2 58.95.56 6.41 1.01 189.91 1.38 376.21 3.49 2.33 6.92 4.7 10.38 6.86 11.65 7.34 23.56 15.52 36.5 20.34 3.85 1.42 7.85 2.54 11.87 3.53.38-206.77.94-421.44 1.72-430.96 2.9-35.66 16.02-87.68 48.76-107.71 6.93-3.99 67.3-26.91 71.32-26.55 16.72 1.45 22.93 27.29 33.85 37.12 5.08 4.38 14.18 4.38 18.92 9.47 9.8 9.82 4.72 32.75 40.02 11.64 12.73-7.65 6.89-22.56 14.19-28.39 6.92-5.45 28.74-2.91 33.81-10.2 1.12-1.82 13.46-35.3 13.83-37.84 1.11-7.28-3.99-15.27-2.18-21.11 1.82-5.08 17.12-16 17.12-27.64 34.93 4.72 8.71-25.1 27.65-38.56v-4.76l-26.2-19.27z" class="fil2"/><path d="M541.01 6650.53h-80.59c-14.36 0-26.51 12.71-26.51 26.51 0 13.79 12.15 25.39 26.51 25.39h5.51v1.65l-171.68 436.11-160.11-437.77h10.51c14.33 0 25.39-10.51 25.39-25.39 0-14.92-11.58-26.51-25.39-26.51H26.51c-14.35 0-26.51 12.71-26.51 26.51 0 13.79 12.16 25.39 26.51 25.39l8.29-1.66c1.64 1.66 3.84 7.18 7.71 17.11h-.56l230.76 628.23 247.87-629.87c3.87-10.51 6.08-13.8 5.52-13.8h14.91c14.92 0 26.51-11.06 26.51-25.39 0-14.36-12.15-26.51-26.51-26.51z" class="fil0"/><path d="M-81.29-58.63h13184.83v7653.29H-81.29z" class="fil1" style="clip-path:url(#id11)"/><path d="M541.01 6650.53h-80.59c-14.36 0-26.51 12.71-26.51 26.51 0 13.79 12.15 25.39 26.51 25.39h5.51v1.65l-171.68 436.11-160.11-437.77h10.51c14.33 0 25.39-10.51 25.39-25.39 0-14.92-11.58-26.51-25.39-26.51H26.51c-14.35 0-26.51 12.71-26.51 26.51 0 13.79 12.16 25.39 26.51 25.39l8.29-1.66c1.64 1.66 3.84 7.18 7.71 17.11h-.56l230.76 628.23 247.87-629.87c3.87-10.51 6.08-13.8 5.52-13.8h14.91c14.92 0 26.51-11.06 26.51-25.39 0-14.36-12.15-26.51-26.51-26.51z" class="fil2"/><path d="M725.39 6705.19h10.49c14.92 0 26.51-11.6 26.51-25.95 0-14.36-11.59-25.95-26.51-25.95H615.54c-14.92 0-26.51 11.59-26.51 25.95 0 14.35 11.59 25.95 26.51 25.95h13.25s1.11 1.1 1.11 6.07v529.97c0 4.97-1.11 6.63-3.87 6.63h-10.49c-7.72 0-14.92 3.3-19.87 8.81-4.41 4.99-6.64 11.05-6.64 17.68 0 14.91 11.59 26.5 26.51 26.5h120.34c14.92 0 26.51-12.15 26.51-26.5 0-14.36-11.59-26.49-26.51-26.49h-13.25s-1.11-1.11-1.11-6.07v-529.96c0-4.99 1.11-6.64 3.87-6.64z" class="fil0"/><path d="M-81.29-58.63h13184.83v7653.29H-81.29z" class="fil1" style="clip-path:url(#id12)"/><path d="M725.39 6705.19h10.49c14.92 0 26.51-11.6 26.51-25.95 0-14.36-11.59-25.95-26.51-25.95H615.54c-14.92 0-26.51 11.59-26.51 25.95 0 14.35 11.59 25.95 26.51 25.95h13.25s1.11 1.1 1.11 6.07v529.97c0 4.97-1.11 6.63-3.87 6.63h-10.49c-7.72 0-14.92 3.3-19.87 8.81-4.41 4.99-6.64 11.05-6.64 17.68 0 14.91 11.59 26.5 26.51 26.5h120.34c14.92 0 26.51-12.15 26.51-26.5 0-14.36-11.59-26.49-26.51-26.49h-13.25s-1.11-1.11-1.11-6.07v-529.96c0-4.99 1.11-6.64 3.87-6.64z" class="fil2"/><path d="M1225 7111.49c-20.99 0-25.95 20.43-29.27 34.22-7.72 33.12-22.07 94.39-162.3 94.39H932.41v-528.85c0-4.97 1.1-6.64 3.85-6.64h10.51c14.89 0 26.49-11.04 26.49-25.39 0-14.36-12.13-26.49-26.49-26.49H826.41c-14.33 0-26.48 12.13-26.48 26.49 0 14.35 12.15 25.95 26.48 25.95h13.26s1.09 1.1 1.09 6.07v529.96c0 4.97-1.09 6.64-3.84 6.64h-10.51c-14.33 0-26.48 12.68-26.48 26.48s12.15 25.4 26.48 25.4l-.54-.56h396.92l27.6-157.89v-4.41c0-13.79-11.59-25.39-25.4-25.39z" class="fil0"/><path d="M-81.29-58.63h13184.83v7653.29H-81.29z" class="fil1" style="clip-path:url(#id13)"/><path d="M1225 7111.49c-20.99 0-25.95 20.43-29.27 34.22-7.72 33.12-22.07 94.39-162.3 94.39H932.41v-528.85c0-4.97 1.1-6.64 3.85-6.64h10.51c14.89 0 26.49-11.04 26.49-25.39 0-14.36-12.13-26.49-26.49-26.49H826.41c-14.33 0-26.48 12.13-26.48 26.49 0 14.35 12.15 25.95 26.48 25.95h13.26s1.09 1.1 1.09 6.07v529.96c0 4.97-1.09 6.64-3.84 6.64h-10.51c-14.33 0-26.48 12.68-26.48 26.48s12.15 25.4 26.48 25.4l-.54-.56h396.92l27.6-157.89v-4.41c0-13.79-11.59-25.39-25.4-25.39z" class="fil2"/><path d="M1719.09 7141.3v-4.4c0-13.8-11.6-25.4-25.4-25.4-20.98 0-25.95 20.4-29.27 34.2-7.71 33.14-22.07 94.41-162.29 94.41h-101.02v-528.85c0-4.98 1.09-6.63 3.85-6.63h10.5c14.9 0 26.49-11.05 26.49-25.4 0-14.35-12.13-26.51-26.49-26.51H1295.1c-14.33 0-26.48 12.16-26.48 26.51 0 14.36 12.15 25.95 26.48 25.95h13.27s1.09 1.1 1.09 6.08v529.97c0 4.96-1.09 6.61-3.85 6.61h-10.51c-14.33 0-26.48 12.71-26.48 26.51 0 13.79 12.15 25.39 26.48 25.39l-.53-.56h396.92l27.6-157.89z" class="fil0"/><path d="M-81.29-58.63h13184.83v7653.29H-81.29z" class="fil1" style="clip-path:url(#id14)"/><path d="M1719.09 7141.3v-4.4c0-13.8-11.6-25.4-25.4-25.4-20.98 0-25.95 20.4-29.27 34.2-7.71 33.14-22.07 94.41-162.29 94.41h-101.02v-528.85c0-4.98 1.09-6.63 3.85-6.63h10.5c14.9 0 26.49-11.05 26.49-25.4 0-14.35-12.13-26.51-26.49-26.51H1295.1c-14.33 0-26.48 12.16-26.48 26.51 0 14.36 12.15 25.95 26.48 25.95h13.27s1.09 1.1 1.09 6.08v529.97c0 4.96-1.09 6.61-3.85 6.61h-10.51c-14.33 0-26.48 12.71-26.48 26.51 0 13.79 12.15 25.39 26.48 25.39l-.53-.56h396.92l27.6-157.89z" class="fil2"/><path d="m1889.11 7027.03 89.98-244 84.47 244h-174.45zm361.04 221.36h-12.71c-1.1-1.64-2.76-5.51-6.05-14.89l-202.08-580.75h-85.01c-14.89 0-26.48 11.59-26.48 26.48 0 13.83 12.15 25.4 26.48 25.4h3.87l-195.96 529.96c-3.87 11.6-8.84 13.8-8.84 13.8h-10.48c-14.92 0-26.51 11.6-26.51 25.95 0 14.36 11.59 25.95 26.51 25.95h78.92l13.27-1.64 6.07-7.75 6.05-9.37v-7.75c0-14.33-11.05-25.93-25.4-25.93h-4.97l61.28-166.16h214.75l56.87 166.16h-4.41c-14.92 0-26.51 11.6-26.51 25.93 0 14.36 11.59 25.95 26.51 25.95l-.57.56h115.38c14.36 0 25.39-11.59 25.39-25.95 0-14.35-11.03-25.95-25.39-25.95z" class="fil0"/><path d="M-81.29-58.63h13184.83v7653.29H-81.29z" class="fil1" style="clip-path:url(#id15)"/><path d="m1889.11 7027.03 89.98-244 84.47 244h-174.45zm361.04 221.36h-12.71c-1.1-1.64-2.76-5.51-6.05-14.89l-202.08-580.75h-85.01c-14.89 0-26.48 11.59-26.48 26.48 0 13.83 12.15 25.4 26.48 25.4h3.87l-195.96 529.96c-3.87 11.6-8.84 13.8-8.84 13.8h-10.48c-14.92 0-26.51 11.6-26.51 25.95 0 14.36 11.59 25.95 26.51 25.95h78.92l13.27-1.64 6.07-7.75 6.05-9.37v-7.75c0-14.33-11.05-25.93-25.4-25.93h-4.97l61.28-166.16h214.75l56.87 166.16h-4.41c-14.92 0-26.51 11.6-26.51 25.93 0 14.36 11.59 25.95 26.51 25.95l-.57.56h115.38c14.36 0 25.39-11.59 25.39-25.95 0-14.35-11.03-25.95-25.39-25.95z" class="fil2"/><path d="M2776.8 6695.8c68.46 0 91.65 46.38 113.73 91.09 15.45 30.92 31.47 62.91 65.14 62.91 25.93 0 43.05-18.2 43.05-44.71 0-55.19-77.84-161.74-221.37-161.74-127.53 0-263.34 117.03-263.34 333.42 0 183.84 121.45 333.45 271.06 333.45l-.56 1.1c129.18 0 207.03-83.92 207.03-105.44 0-14.36-12.16-27.04-27.08-27.04-8.81 0-14.88 4.4-23.72 11.57-18.76 14.92-57.98 46.38-118.69 46.38-105.44 0-217.51-77.29-217.51-293.69 0-195.41 108.22-247.31 172.25-247.31z" class="fil0"/><path d="M-81.29-58.63h13184.83v7653.29H-81.29z" class="fil1" style="clip-path:url(#id16)"/><path d="M2776.8 6695.8c68.46 0 91.65 46.38 113.73 91.09 15.45 30.92 31.47 62.91 65.14 62.91 25.93 0 43.05-18.2 43.05-44.71 0-55.19-77.84-161.74-221.37-161.74-127.53 0-263.34 117.03-263.34 333.42 0 183.84 121.45 333.45 271.06 333.45l-.56 1.1c129.18 0 207.03-83.92 207.03-105.44 0-14.36-12.16-27.04-27.08-27.04-8.81 0-14.88 4.4-23.72 11.57-18.76 14.92-57.98 46.38-118.69 46.38-105.44 0-217.51-77.29-217.51-293.69 0-195.41 108.22-247.31 172.25-247.31z" class="fil2"/><path d="M3301.25 6694.14c61.84 0 179.97 59.07 179.97 281.54 0 222.47-117.58 281.54-179.97 281.54-62.38 0-179.96-59.07-179.96-281.54 0-222.47 117.57-281.54 179.96-281.54zm0-51.35c-167.28 0-271.05 173.36-271.05 333.45 0 183.84 121.45 333.45 271.05 333.45 167.28 0 271.07-172.8 271.07-333.45 0-183.84-121.45-333.45-271.07-333.45z" class="fil0"/><path d="M-81.29-58.63h13184.83v7653.29H-81.29z" class="fil1" style="clip-path:url(#id17)"/><path d="M3301.25 6694.14c61.84 0 179.97 59.07 179.97 281.54 0 222.47-117.58 281.54-179.97 281.54-62.38 0-179.96-59.07-179.96-281.54 0-222.47 117.57-281.54 179.96-281.54zm0-51.35c-167.28 0-271.05 173.36-271.05 333.45 0 183.84 121.45 333.45 271.05 333.45 167.28 0 271.07-172.8 271.07-333.45 0-183.84-121.45-333.45-271.07-333.45z" class="fil2"/><path d="M3745.65 6974.03V6707.4h119.25c73.99 0 134.14 59.63 134.14 133.59 0 73.98-60.16 133.6-134.14 133.6v-.56h-119.25zm372.08 272.15h-13.24c-2.76-1.09-11.59-14.33-16.03-20.41l-131.38-185.47c-3.87-5.55-8.27-10.52-13.25-15.47 83.91-19.33 146.85-94.39 146.85-184.4 0-104.34-85.02-189.33-189.35-189.33h-261.11c-14.36 0-26.51 12.13-26.51 26.48 0 14.36 12.15 25.95 26.51 25.95h13.25s1.08 1.11 1.08 6.08v529.96c0 4.97-1.08 6.61-3.84 6.61h-10.5c-14.34 0-26.49 12.15-26.49 26.51 0 14.36 12.15 26.51 26.49 26.51h120.36c14.36 0 26.48-12.15 26.48-26.51 0-14.36-12.12-26.51-26.48-26.51h-13.27s-1.09-1.09-1.09-6.05v-209.78h2.21c55.75 0 108.21 27.59 140.77 72.86l102.69 143.53h-3.31c-14.36 0-26.51 12.15-26.51 26.51 0 14.35 12.15 26.49 26.51 26.49v-.54h129.17c14.36 0 26.51-12.15 26.51-26.51 0-14.36-12.15-26.51-26.51-26.51z" class="fil0"/><path d="M-81.29-58.63h13184.83v7653.29H-81.29z" class="fil1" style="clip-path:url(#id18)"/><path d="M3745.65 6974.03V6707.4h119.25c73.99 0 134.14 59.63 134.14 133.59 0 73.98-60.16 133.6-134.14 133.6v-.56h-119.25zm372.08 272.15h-13.24c-2.76-1.09-11.59-14.33-16.03-20.41l-131.38-185.47c-3.87-5.55-8.27-10.52-13.25-15.47 83.91-19.33 146.85-94.39 146.85-184.4 0-104.34-85.02-189.33-189.35-189.33h-261.11c-14.36 0-26.51 12.13-26.51 26.48 0 14.36 12.15 25.95 26.51 25.95h13.25s1.08 1.11 1.08 6.08v529.96c0 4.97-1.08 6.61-3.84 6.61h-10.5c-14.34 0-26.49 12.15-26.49 26.51 0 14.36 12.15 26.51 26.49 26.51h120.36c14.36 0 26.48-12.15 26.48-26.51 0-14.36-12.12-26.51-26.48-26.51h-13.27s-1.09-1.09-1.09-6.05v-209.78h2.21c55.75 0 108.21 27.59 140.77 72.86l102.69 143.53h-3.31c-14.36 0-26.51 12.15-26.51 26.51 0 14.35 12.15 26.49 26.51 26.49v-.54h129.17c14.36 0 26.51-12.15 26.51-26.51 0-14.36-12.15-26.51-26.51-26.51z" class="fil2"/><path d="M4294.39 7244.53v-266.62h134.69c66.81 7.17 119.25 65.68 119.25 132.48 0 73.97-60.18 134.14-134.13 134.14h-119.81zm126.97-323.5h-126.41v-211.99h111.5c59.06 0 106.54 48.02 106.54 106.54 0 54.11-40.28 99.94-91.63 105.45zm118.13 23.2c39.75-30.39 63.51-77.3 63.51-129.2 0-89.42-72.89-162.29-162.32-162.29h-252.27c-14.35 0-26.51 12.15-26.51 26.51 0 14.32 12.16 25.92 26.51 25.92h13.25s1.11 1.11 1.11 6.07v529.97c0 4.97-1.11 6.63-3.87 6.63h-10.49c-14.35 0-26.51 12.69-26.51 26.48 0 13.8 12.16 25.4 26.51 25.4l-.56-.54h261.12c104.33 0 189.35-85.01 189.35-189.35 0-70.66-38.63-133.61-98.83-165.61z" class="fil0"/><path d="M-81.29-58.63h13184.83v7653.29H-81.29z" class="fil1" style="clip-path:url(#id19)"/><path d="M4294.39 7244.53v-266.62h134.69c66.81 7.17 119.25 65.68 119.25 132.48 0 73.97-60.18 134.14-134.13 134.14h-119.81zm126.97-323.5h-126.41v-211.99h111.5c59.06 0 106.54 48.02 106.54 106.54 0 54.11-40.28 99.94-91.63 105.45zm118.13 23.2c39.75-30.39 63.51-77.3 63.51-129.2 0-89.42-72.89-162.29-162.32-162.29h-252.27c-14.35 0-26.51 12.15-26.51 26.51 0 14.32 12.16 25.92 26.51 25.92h13.25s1.11 1.11 1.11 6.07v529.97c0 4.97-1.11 6.63-3.87 6.63h-10.49c-14.35 0-26.51 12.69-26.51 26.48 0 13.8 12.16 25.4 26.51 25.4l-.56-.54h261.12c104.33 0 189.35-85.01 189.35-189.35 0-70.66-38.63-133.61-98.83-165.61z" class="fil2"/><path d="M5102.03 7112.04c-21 0-25.95 20.43-29.27 34.23-7.73 33.11-22.08 94.39-162.3 94.39h-101.02v-253.95h134.14c6.63 0 6.63 1.11 6.63 4.98v10.48c0 14.36 12.69 26.51 26.49 26.51 13.82 0 25.4-12.15 25.4-26.51v-89.98c0-14.36-11.04-25.4-25.4-25.4-14.33 0-26.49 11.59-26.49 25.4v14.36s-1.1 1.09-6.07 1.09H4810v-214.73h123.11c110.41 0 118.69 45.27 124.21 75.63 2.2 12.69 6.64 35.32 29.27 35.32 14.35 0 25.4-12.12 25.4-29.8l-22.64-140.78h-384.79c-14.91 0-26.51 11.59-26.51 25.95s11.6 25.93 26.51 25.93h13.25s1.11 1.11 1.11 6.07v529.97c0 4.96-1.11 6.63-3.87 6.63h-10.49c-14.91 0-26.51 11.6-26.51 26.48 0 14.92 11.6 26.51 26.51 26.51h395.28l27.59-158.99v-4.41c0-13.8-11.58-25.4-25.39-25.4z" class="fil0"/><path d="M-81.29-58.63h13184.83v7653.29H-81.29z" class="fil1" style="clip-path:url(#id20)"/><path d="M5102.03 7112.04c-21 0-25.95 20.43-29.27 34.23-7.73 33.11-22.08 94.39-162.3 94.39h-101.02v-253.95h134.14c6.63 0 6.63 1.11 6.63 4.98v10.48c0 14.36 12.69 26.51 26.49 26.51 13.82 0 25.4-12.15 25.4-26.51v-89.98c0-14.36-11.04-25.4-25.4-25.4-14.33 0-26.49 11.59-26.49 25.4v14.36s-1.1 1.09-6.07 1.09H4810v-214.73h123.11c110.41 0 118.69 45.27 124.21 75.63 2.2 12.69 6.64 35.32 29.27 35.32 14.35 0 25.4-12.12 25.4-29.8l-22.64-140.78h-384.79c-14.91 0-26.51 11.59-26.51 25.95s11.6 25.93 26.51 25.93h13.25s1.11 1.11 1.11 6.07v529.97c0 4.96-1.11 6.63-3.87 6.63h-10.49c-14.91 0-26.51 11.6-26.51 26.48 0 14.92 11.6 26.51 26.51 26.51h395.28l27.59-158.99v-4.41c0-13.8-11.58-25.4-25.39-25.4z" class="fil2"/><path d="M6207.24 6735.54c-3.31-22.07-6.64-43.59-10.49-65.14l-2.76-17.67h-491.32l-2.77 18.23c-5.03 33.43-10.87 68.2-16.81 104.73-2.1-13.34-4.14-26.64-6.38-40.15-3.32-22.07-6.61-43.59-10.49-65.14l-2.76-17.67h-491.33l-2.76 18.23c-6.08 40.31-13.25 81.71-20.41 126.98 0 14.36 11.04 25.39 25.4 25.39 22.61 0 27.04-23.19 29.24-35.34 5.52-28.15 14.36-75.63 124.78-75.63h44.15v528.88c0 4.97-1.1 6.61-3.85 6.61h-10.51c-14.36 0-26.48 12.71-26.48 26.51s12.12 25.4 26.48 25.4l-1.09-.56h120.34c14.91 0 26.5-11.04 26.5-25.4s-12.15-26.51-26.5-26.51h-13.25s-1.11-1.09-1.11-6.05v-528.88h44.15c110.42 0 118.69 45.27 124.21 75.63 2.21 12.71 6.64 35.34 29.28 35.34 9.6 0 17.4-5.29 21.71-13.87 4.14 8.23 12.34 13.87 22.45 13.87 22.63 0 27.07-23.19 29.27-35.34 5.52-28.15 14.36-75.63 124.77-75.63h44.15v528.88c0 4.97-1.11 6.61-3.87 6.61h-10.48c-14.36 0-26.51 12.71-26.51 26.51s12.15 25.4 26.51 25.4l-1.12-.56h120.37c14.89 0 26.48-11.04 26.48-25.4s-12.13-26.51-26.48-26.51h-13.26s-1.1-1.09-1.1-6.05v-528.88h44.16c110.41 0 118.69 45.27 124.21 75.63 2.2 12.71 6.64 35.34 29.27 35.34 14.35 0 25.4-11.03 25.4-28.71-3.32-19.87-6.08-39.19-9.39-59.07z" class="fil0"/><path d="M-81.29-58.63h13184.83v7653.29H-81.29z" class="fil1" style="clip-path:url(#id21)"/><path d="M6207.24 6735.54c-3.31-22.07-6.64-43.59-10.49-65.14l-2.76-17.67h-491.32l-2.77 18.23c-5.03 33.43-10.87 68.2-16.81 104.73-2.1-13.34-4.14-26.64-6.38-40.15-3.32-22.07-6.61-43.59-10.49-65.14l-2.76-17.67h-491.33l-2.76 18.23c-6.08 40.31-13.25 81.71-20.41 126.98 0 14.36 11.04 25.39 25.4 25.39 22.61 0 27.04-23.19 29.24-35.34 5.52-28.15 14.36-75.63 124.78-75.63h44.15v528.88c0 4.97-1.1 6.61-3.85 6.61h-10.51c-14.36 0-26.48 12.71-26.48 26.51s12.12 25.4 26.48 25.4l-1.09-.56h120.34c14.91 0 26.5-11.04 26.5-25.4s-12.15-26.51-26.5-26.51h-13.25s-1.11-1.09-1.11-6.05v-528.88h44.15c110.42 0 118.69 45.27 124.21 75.63 2.21 12.71 6.64 35.34 29.28 35.34 9.6 0 17.4-5.29 21.71-13.87 4.14 8.23 12.34 13.87 22.45 13.87 22.63 0 27.07-23.19 29.27-35.34 5.52-28.15 14.36-75.63 124.77-75.63h44.15v528.88c0 4.97-1.11 6.61-3.87 6.61h-10.48c-14.36 0-26.51 12.71-26.51 26.51s12.15 25.4 26.51 25.4l-1.12-.56h120.37c14.89 0 26.48-11.04 26.48-25.4s-12.13-26.51-26.48-26.51h-13.26s-1.1-1.09-1.1-6.05v-528.88h44.16c110.41 0 118.69 45.27 124.21 75.63 2.2 12.71 6.64 35.34 29.27 35.34 14.35 0 25.4-11.03 25.4-28.71-3.32-19.87-6.08-39.19-9.39-59.07z" class="fil2"/><path d="M147.67 529.63h958.22c14.59 85.77 27.37 173.38 41.97 260.98 0 5.48-3.66 9.13-9.13 9.13-41.97 0 38.32-233.61-323.06-233.61H678.79v1157.15c0 40.14 21.91 58.39 52.93 58.39h21.91c5.47 0 10.94 5.47 10.94 10.94s-5.47 9.13-10.94 9.13h-253.7c-5.48 0-10.95-3.66-10.95-9.13 0-5.47 5.48-10.94 10.95-10.94h21.9c31.04 0 52.95-18.26 52.95-58.39V566.13h-136.9c-361.38 0-281.08 233.61-323.06 233.61-5.47 0-9.13-3.65-9.13-9.13 14.6-87.61 29.22-175.21 41.98-260.98z" class="fil0"/><path d="M-81.29-58.63h13184.83v7653.29H-81.29z" class="fil1" style="clip-path:url(#id22)"/><path d="M147.67 529.63h958.22c14.59 85.77 27.37 173.38 41.97 260.98 0 5.48-3.66 9.13-9.13 9.13-41.97 0 38.32-233.61-323.06-233.61H678.79v1157.15c0 40.14 21.91 58.39 52.93 58.39h21.91c5.47 0 10.94 5.47 10.94 10.94s-5.47 9.13-10.94 9.13h-253.7c-5.48 0-10.95-3.66-10.95-9.13 0-5.47 5.48-10.94 10.95-10.94h21.9c31.04 0 52.95-18.26 52.95-58.39V566.13h-136.9c-361.38 0-281.08 233.61-323.06 233.61-5.47 0-9.13-3.65-9.13-9.13 14.6-87.61 29.22-175.21 41.98-260.98z" class="fil2"/><path d="M1992.83 1803.59h-253.71a10.073 10.073 0 0 1 0-20.07h21.91c31.04 0 52.92-18.26 52.92-58.41v-538.42c0-87.62-31.01-188-171.56-188-111.33 0-209.88 82.16-239.1 171.56v554.86c0 40.16 21.91 58.41 52.95 58.41h21.91c14.6 0 14.6 20.07 0 20.07h-253.71a10.073 10.073 0 0 1 0-20.07h21.91c31.01 0 52.92-18.26 52.92-58.41V580.74c0-40.14-21.91-58.39-52.92-58.39h-21.91a10.073 10.073 0 0 1 0-20.07h153.31c12.78 0 25.54 10.95 25.54 25.54v589.52c47.47-83.95 156.96-155.13 266.49-155.13 146.02 0 248.23 85.77 248.23 224.49v538.42c0 40.16 21.88 58.41 52.91 58.41h21.92c14.6 0 14.6 20.07 0 20.07z" class="fil0"/><path d="M-81.29-58.63h13184.83v7653.29H-81.29z" class="fil1" style="clip-path:url(#id23)"/><path d="M1992.83 1803.59h-253.71a10.073 10.073 0 0 1 0-20.07h21.91c31.04 0 52.92-18.26 52.92-58.41v-538.42c0-87.62-31.01-188-171.56-188-111.33 0-209.88 82.16-239.1 171.56v554.86c0 40.16 21.91 58.41 52.95 58.41h21.91c14.6 0 14.6 20.07 0 20.07h-253.71a10.073 10.073 0 0 1 0-20.07h21.91c31.01 0 52.92-18.26 52.92-58.41V580.74c0-40.14-21.91-58.39-52.92-58.39h-21.91a10.073 10.073 0 0 1 0-20.07h153.31c12.78 0 25.54 10.95 25.54 25.54v589.52c47.47-83.95 156.96-155.13 266.49-155.13 146.02 0 248.23 85.77 248.23 224.49v538.42c0 40.16 21.88 58.41 52.91 58.41h21.92c14.6 0 14.6 20.07 0 20.07z" class="fil2"/><path d="M2195.34 1330.87h500.1c0-166.09-47.47-366.86-231.8-366.86-136.89 0-268.3 111.34-268.3 357.73v9.13zm571.26 315.75c0 5.5-85.76 160.62-302.97 160.62-204.41 0-370.5-193.47-370.5-432.55 0-237.29 166.09-430.74 370.5-430.74 211.73 0 324.88 191.63 324.88 423.42h-591.36c20.09 271.96 204.44 372.32 324.87 372.32 171.59 0 228.14-98.55 237.27-98.55 3.66 0 7.3 1.84 7.3 5.47z" class="fil0"/><path d="M-81.29-58.63h13184.83v7653.29H-81.29z" class="fil1" style="clip-path:url(#id24)"/><path d="M2195.34 1330.87h500.1c0-166.09-47.47-366.86-231.8-366.86-136.89 0-268.3 111.34-268.3 357.73v9.13zm571.26 315.75c0 5.5-85.76 160.62-302.97 160.62-204.41 0-370.5-193.47-370.5-432.55 0-237.29 166.09-430.74 370.5-430.74 211.73 0 324.88 191.63 324.88 423.42h-591.36c20.09 271.96 204.44 372.32 324.87 372.32 171.59 0 228.14-98.55 237.27-98.55 3.66 0 7.3 1.84 7.3 5.47z" class="fil2"/><path d="m10048.72 7124.66-46.23-84.97-191.95-.58 150.89-275.76 266.51 462.47-635.32-.58-.59 84.97 743.41.59v-83.24l-326.03-565.38h-91.92l-265.9 462.48z" class="fil3"/><path d="M-81.29-58.63h13184.83v7653.29H-81.29z" class="fil1" style="clip-path:url(#id25)"/><path d="m10048.72 7124.66-46.23-84.97-191.95-.58 150.89-275.76 266.51 462.47-635.32-.58-.59 84.97 743.41.59v-83.24l-326.03-565.38h-91.92l-265.9 462.48z" class="fil4"/><path d="M10357.42 6749.48H10669c64.18 2.33 120.25 53.19 122.57 132.96-1.74 34.69-26.6 86.71-91.91 97.12 60.11 12.73 111.58 47.4 102.89 137.6-9.8 56.65-65.9 103.47-128.33 107.51h-316.8v85h349.16c68.23-12.15 175.76-54.93 192.51-167.66 7.52-76.88-14.46-139.88-73.4-163.6 43.35-31.2 66.47-89.59 60.11-157.81-11.55-89.01-76.31-146.24-195.97-158.97h-331.82v87.87h-.58z" class="fil3"/><path d="M-81.29-58.63h13184.83v7653.29H-81.29z" class="fil1" style="clip-path:url(#id26)"/><path d="M10357.42 6749.48H10669c64.18 2.33 120.25 53.19 122.57 132.96-1.74 34.69-26.6 86.71-91.91 97.12 60.11 12.73 111.58 47.4 102.89 137.6-9.8 56.65-65.9 103.47-128.33 107.51h-316.8v85h349.16c68.23-12.15 175.76-54.93 192.51-167.66 7.52-76.88-14.46-139.88-73.4-163.6 43.35-31.2 66.47-89.59 60.11-157.81-11.55-89.01-76.31-146.24-195.97-158.97h-331.82v87.87h-.58z" class="fil4"/><path d="M10420.44 6850.07v271.71h231.24c30.07-1.74 42.19-21.4 41.61-43.36-1.13-27.76-18.49-41.05-36.4-41.64h-142.22v-101.16h125.44c26.61-2.88 42.22-17.34 42.78-42.79-.56-23.69-13.29-39.31-38.15-42.77h-224.88.58z" class="fil3"/><path d="M-81.29-58.63h13184.83v7653.29H-81.29z" class="fil1" style="clip-path:url(#id27)"/><path d="M10420.44 6850.07v271.71h231.24c30.07-1.74 42.19-21.4 41.61-43.36-1.13-27.76-18.49-41.05-36.4-41.64h-142.22v-101.16h125.44c26.61-2.88 42.22-17.34 42.78-42.79-.56-23.69-13.29-39.31-38.15-42.77h-224.88.58z" class="fil4"/><path d="M10926.26 6746.01h238.75c97.7 3.46 220.27 86.14 221.99 232.4 0 142.2-91.34 230.66-218.5 245.11l-242.23 1.17-1.74 84.97 269.98-1.74c183.25-36.41 295.41-146.25 287.33-346.86-9.83-217.37-192.51-295.97-329.53-300.02h-226.03v84.97z" class="fil3"/><path d="M-81.29-58.63h13184.83v7653.29H-81.29z" class="fil1" style="clip-path:url(#id28)"/><path d="M10926.26 6746.01h238.75c97.7 3.46 220.27 86.14 221.99 232.4 0 142.2-91.34 230.66-218.5 245.11l-242.23 1.17-1.74 84.97 269.98-1.74c183.25-36.41 295.41-146.25 287.33-346.86-9.83-217.37-192.51-295.97-329.53-300.02h-226.03v84.97z" class="fil4"/><path d="M10989.85 6849.49v272.27l175.73.58c74.58-20.24 111.57-71.09 113.31-143.94-5.2-78.61-57.8-128.33-145.1-128.91h-143.95zm93.67 86.14h62.43c20.22.58 43.36 15.62 46.24 46.24 0 24.86-18.49 50.31-45.68 54.93h-62.99v-101.16z" class="fil3"/><path d="M-81.29-58.63h13184.83v7653.29H-81.29z" class="fil1" style="clip-path:url(#id29)"/><path d="M10989.85 6849.49v272.27l175.73.58c74.58-20.24 111.57-71.09 113.31-143.94-5.2-78.61-57.8-128.33-145.1-128.91h-143.95zm93.67 86.14h62.43c20.22.58 43.36 15.62 46.24 46.24 0 24.86-18.49 50.31-45.68 54.93h-62.99v-101.16z" class="fil4"/><path d="M8657.92 7320.45h130.32c79.64 0 143.98-64.35 143.98-144 0-73.2-56.3-134.35-127.89-142.39h-146.41v286.39zm0-300.06h136.75c58.73-6.44 104.56-56.31 104.56-117.47 0-65.14-53.06-118.25-118.23-118.25h-123.08v235.72zm-45.85 277.52v-491.5c0-17.69-9.65-25.76-23.33-25.76h-9.63c-2.42 0-4.85-1.6-4.85-4.02 0-2.4 2.43-4.82 4.85-4.82h234.09c72.38 0 131.11 58.73 131.11 131.11 0 56.33-34.6 103.79-84.47 123.11 67.57 16.87 117.43 77.99 117.43 150.42 0 86.87-69.98 156.05-156.04 156.05h-242.12c-2.42 0-4.85-1.6-4.85-4.02 0-2.42 2.43-4.85 4.85-4.85h9.63c13.68 0 23.33-8.03 23.33-25.73z" class="fil0"/><path d="M-81.29-58.63h13184.83v7653.29H-81.29z" class="fil1" style="clip-path:url(#id30)"/><path d="M8657.92 7320.45h130.32c79.64 0 143.98-64.35 143.98-144 0-73.2-56.3-134.35-127.89-142.39h-146.41v286.39zm0-300.06h136.75c58.73-6.44 104.56-56.31 104.56-117.47 0-65.14-53.06-118.25-118.23-118.25h-123.08v235.72zm-45.85 277.52v-491.5c0-17.69-9.65-25.76-23.33-25.76h-9.63c-2.42 0-4.85-1.6-4.85-4.02 0-2.4 2.43-4.82 4.85-4.82h234.09c72.38 0 131.11 58.73 131.11 131.11 0 56.33-34.6 103.79-84.47 123.11 67.57 16.87 117.43 77.99 117.43 150.42 0 86.87-69.98 156.05-156.04 156.05h-242.12c-2.42 0-4.85-1.6-4.85-4.02 0-2.42 2.43-4.85 4.85-4.85h9.63c13.68 0 23.33-8.03 23.33-25.73z" class="fil2"/><path d="M9360.02 6970.51c0 2.43-2.43 4.83-4.84 4.83h-3.2c-13.67 0-17.69 7.23-25.73 24.93-212.37 495.54-215.6 535.75-279.97 535.75-60.32 0-86.85-40.21-86.85-69.18 0-16.08 8.03-28.96 22.5-28.96 16.91 0 19.3 13.67 19.3 29.78 0 4.02-.78 8.84-.78 13.67 0 22.52 3.2 45.83 41.82 45.83 43.45 0 71.6-61.12 88.5-100.53l45.05-105.38-131.96-316.96c-7.21-17.7-12.85-28.95-26.53-28.95h-4.03c-2.39 0-4.03-2.4-4.03-4.83 0-2.41 1.64-4.84 4.03-4.84h99.75c2.42 0 4.84 2.43 4.84 4.84 0 2.43-2.42 4.83-4.84 4.83h-9.64c-9.66 0-13.67 4.03-13.67 11.25 0 4.03.79 8.86 3.22 13.68l107 263.87 109.4-257.42c3.19-6.44 4.01-12.06 4.01-16.88 0-8.86-4.01-14.5-12.88-14.5h-5.64c-2.41 0-4.81-2.4-4.81-4.83 0-2.41 2.4-4.84 4.81-4.84h60.34c2.41 0 4.84 2.43 4.84 4.84z" class="fil0"/><path d="M-81.29-58.63h13184.83v7653.29H-81.29z" class="fil1" style="clip-path:url(#id31)"/><path d="M9360.02 6970.51c0 2.43-2.43 4.83-4.84 4.83h-3.2c-13.67 0-17.69 7.23-25.73 24.93-212.37 495.54-215.6 535.75-279.97 535.75-60.32 0-86.85-40.21-86.85-69.18 0-16.08 8.03-28.96 22.5-28.96 16.91 0 19.3 13.67 19.3 29.78 0 4.02-.78 8.84-.78 13.67 0 22.52 3.2 45.83 41.82 45.83 43.45 0 71.6-61.12 88.5-100.53l45.05-105.38-131.96-316.96c-7.21-17.7-12.85-28.95-26.53-28.95h-4.03c-2.39 0-4.03-2.4-4.03-4.83 0-2.41 1.64-4.84 4.03-4.84h99.75c2.42 0 4.84 2.43 4.84 4.84 0 2.43-2.42 4.83-4.84 4.83h-9.64c-9.66 0-13.67 4.03-13.67 11.25 0 4.03.79 8.86 3.22 13.68l107 263.87 109.4-257.42c3.19-6.44 4.01-12.06 4.01-16.88 0-8.86-4.01-14.5-12.88-14.5h-5.64c-2.41 0-4.81-2.4-4.81-4.83 0-2.41 2.4-4.84 4.81-4.84h60.34c2.41 0 4.84 2.43 4.84 4.84z" class="fil2"/></g></g></svg>