<svg xmlns="http://www.w3.org/2000/svg" width="1494.857" height="582.23" preserveAspectRatio="none" viewBox="-17.782 -37.187 1541.448 694.229"><path fill="#0C5167" d="M47.577 186.154c-19.809-13.207-32.263-31.14-35.889-55.335 20.994-7.547 41.369-7.174 61.561 1.319 19.912 8.375 34.553 22.62 45.737 41.415 1.226-24.096 8.736-46.256 19.399-68.053-29.39-3.206-53.008-14.645-68.723-39.461-10.791-17.041-16.224-39.355-12.986-53.667 23.233-3.96 42.805 4.787 60.91 18.236 18.815 13.977 26.988 34.012 31.258 56.162l1.809 1.785c.756-1.607 1.211-3.466 2.313-4.782 17.255-20.607 37.422-37.568 62.708-47.377 50.773-19.694 99.505-15.431 145.366 14.332 34.399 22.325 55.954 54.32 65.53 93.798 3.566 14.703 4.358 30.349 4.453 45.577.464 74.156.266 148.315.285 222.474 0 1.124-.21 2.248-.338 3.533h-17.466v-6.083c.008-74.492.024-148.983.018-223.475-.002-33.829-8.42-65.151-30.291-91.469-32.809-39.48-75.289-58.583-126.381-51.13-53.717 7.836-91.11 38.83-111.781 89.318-1.942 4.743-3.167 9.813-4.361 14.818-1.037 4.346-1.559 8.815-1.759 13.782 11.761-15.01 25.98-26.21 44.2-32.152 18.516-6.039 36.727-4.21 55.871.654-5.382 29.472-22.053 49.971-48.817 63.623-2.729.298-4.746.31-6.649.783-4.261 1.06-8.448 2.416-12.699 3.525-3.093.807-6.238 1.412-9.361 2.107-.727.105-1.454.209-2.72-.108-7.427-.238-14.315-.053-21.203.131 0 0-.108.373-.619.647-.799 2.181-1.338 4.089-1.339 5.996-.042 65.254-.032 130.507-.03 195.761 0 9.931-.001 9.931-9.336 11.618-.162.029-.313.113-.472.159-3.941 1.121-5.162-1.114-5.233-4.43-.103-4.739-.028-9.483-.029-14.224-.003-24.97.019-49.939-.065-74.909-.005-1.646-.817-3.29-1.254-4.935-.33-.656-.661-1.313-1.647-2.335-2.761-.423-4.868-.479-7.036-.894-1.426-.453-2.796-.674-4.153-.613-2.057.092 3.502-1.03.368.302-9.53 4.05-15.818 3.022-16.275 2.706-1.769-.426-10.74-5.909-16.776-3.383-1.037-1.395-1.693-2.373-2.172-3.688 2.231-3.376 11.154-.079 14.215.423 3.556.583 7.7.69 8.516-4.709 4.483.002 8.278.227 12.637.182 1.113-1.35 1.887-2.654 2.66-4.289-.002-.768-.004-1.208.27-1.889.513-2.991 2.358-6.773-3.51-5.932-.415-.724-.585-1.28-.493-2.043-.582-1.399-1.426-2.592-2.487-3.895-.487-.313-.672-.575-.774-1.235-.336-1.108-.607-2.856-1.31-3.63-1.099-.03-1.895.923-2.643.576-.023-.752-.03-1.182.181-1.721.491-.31.674-.574.762-1.263-.998-1.451-1.992-2.538-2.982-3.996 1.338-2.125 2.67-3.879 4.3-5.613.764.342 1.23.662 1.688 1.354-2.004 4.662-1.046 9.443 2.544 9.853 4.095.469 4.679 2.993 5.462 5.862.613 2.249 1.399 3.933 4.358 2.065 5.37 1.26 6.613.552 6.58-4.264-.045-6.601-.755-13.202-.723-19.8.075-15.246.533-30.49.613-45.736.032-6.308-.507-12.62-.801-19.261l-1.891-.133s-.076.055-.302-.314c-3.228-.693-6.602-2.072-9.169-1.166-13.57 4.79-26.437 2.875-39.247-2.615-1.506-.645-3.601.085-5.423.177-.58-.112-1.16-.223-1.949-.989-1.659-1.07-3.108-1.485-4.558-1.901 0 0-.308.036-.439-.453-1.271-3.969-4.159-3.767-6.968-3.73 0 0-.052.039-.114-.33-1.018-.794-1.973-1.218-2.929-1.643m81.566-117.975C117.62 43.489 97.41 30.951 71.225 26.147c-.046 35.429 37.187 64.385 64.123 63.375-2.002-7.037-3.938-13.845-6.205-21.343m-54.375 80.199c-13.847-7.223-28.515-9.619-43.933-7.745-1.958 23.768 48.964 54.222 76.118 45.012-5.137-17.012-17.412-27.72-32.185-37.267m74.604 24.176-6.087 13.442c36.114 5.948 75.21-21.199 76.884-45.326-6.92 0-13.927-.776-20.705.144-21.125 2.866-37.101 14.409-50.092 31.74m-19.915 236.165c.085.108.305.135.467.148m-9.965-95.219s.081-.04 0 0Z"/><path fill="#0B5066" d="M1374.5 409.036h-41.17v-5.503c.64-.135 1.11-.36 1.54-.308 7.32.892 11.04-1.746 11.57-9.374.69-9.95.96-19.949.94-29.926-.03-14.646-.38-29.295-.82-43.935-.1-3.097-.95-6.248-1.91-9.228-4.11-12.796-17.68-15.909-27.08-6.227-6.01 6.189-8.4 14.264-8.74 22.343-.89 21.437-1.12 42.914-1.05 64.374.02 8.52 1.81 9.792 10.12 12.328 1.43.438 2.72 1.37 4.07 2.073l-.36 1.487c-2.08.302-4.16.856-6.24.867-16.65.087-33.31.071-49.96.082-.33 0-.7.038-.99-.083-1.68-.694-3.33-1.431-5-2.153 1.57-.846 3.05-2.049 4.73-2.476 7.41-1.887 8.66-3.049 9.4-10.697.51-5.295.9-10.624.93-15.939.1-19.485.09-38.971-.04-58.455a92.668 92.668 0 0 0-1.14-13.919c-1.09-6.823-3.59-8.868-10.37-10.159-1.5-.286-2.79-1.695-4.17-2.587.2-.467.41-.935.62-1.402h47.85l.5 10.627c10.47-10.451 21.9-15.951 36.31-14.218 14.54 1.748 23.56 10.548 30.78 22.906 1.55-2.095 2.88-3.7 4.01-5.441 8.9-13.819 22.24-18.856 37.76-17.341 16.97 1.657 27.81 11.98 32.89 27.977 4.92 15.499 3.97 31.564 3.62 47.558-.23 10.462.03 20.941.32 31.407.14 5.401 3.2 8.392 8.62 9.303 2.01.339 3.86 1.697 6.57 2.959-6.98 3.147-54.36 3.337-63.62.45 1.7-1.151 2.73-2.415 3.9-2.558 7.9-.962 11.19-5.636 11.07-13.196-.41-25.098-.84-50.196-1.33-75.293-.03-1.452-.62-2.918-1.09-4.33-2-5.995-5.18-10.936-12.08-11.794-7.56-.939-13.32 2.257-17.27 8.586-5.16 8.283-7.09 17.713-7.4 27.163-.61 18.792-.52 37.615-.32 56.421.09 8.072 1.71 9.393 9.42 11.664 1.73.508 3.23 1.8 4.83 2.732-.1.649-.19 1.298-.29 1.947-6.48.429-12.95.859-19.93 1.288Z"/><path fill="#0C5167" d="M967.706 429.953c14.756 16.9 41.764 19.364 58.924 5.464 10.14-8.215 12.6-19.964 13.77-32.088.39-4.098.06-8.265.06-13.4-2.58 2.672-4.76 4.792-6.79 7.052-11.94 13.346-33.708 19.096-50.768 13.334-10.676-3.606-17.391-11.422-20.187-21.824-2.612-9.714-4.471-19.839-4.966-29.866-.745-15.119.005-30.311.069-45.472.013-3.163-.043-6.34-.338-9.485-.411-4.398-2.629-7.376-7.151-8.479-2.174-.531-4.246-1.482-6.141-3.356h59.052c.15.495.31.99.46 1.486-2.53.81-5.108 2.377-7.598 2.238-3.12-.175-4.39.761-4.69 3.571-.41 3.8-1.04 7.606-1.05 11.41-.04 22.143.01 44.287.22 66.429.03 3.091.9 6.252 1.83 9.242 3.49 11.247 10.948 15.237 22.328 12.313 14.28-3.671 21.43-14.119 23.52-27.462 2.1-13.402 2.32-27.13 2.85-40.735.32-8.138-.22-16.318-.59-24.47-.33-7.416-1.74-8.798-9-10.78-1.92-.524-3.62-1.83-5.24-3.887 20.81-1.094 41.42-3.053 62.04-1.119l.45 2.387c-1.75.712-3.44 1.724-5.26 2.081-6.64 1.299-8.53 2.849-8.91 9.728-.45 8.299-.18 16.635-.36 24.953-.48 22.635-.81 45.276-1.6 67.9-.81 23.055-14.05 37.33-34.22 46.008-20.34 8.749-41.958 9.773-63.694 9.652-4.63-.025-9.258-.424-14.149-.664v-30.041c2.512 2.748 4.723 5.165 7.129 7.88Z"/><path fill="#0C5066" d="M487.732 386.668c.036 11.13 7.166 14.933 16.042 17.153 1.069.267 1.961 1.244 2.935 1.892-.91.749-1.819 2.148-2.729 2.149-14.285.009-28.57-.152-42.855-.326-.572-.007-1.138-.524-3.031-1.455 2.396-1.08 3.739-1.969 5.207-2.304 12.491-2.846 15.159-6.388 15.142-19.276-.051-37.484.001-74.967.072-112.451.017-8.966-4.333-14.656-13.032-16.854-2.147-.542-4.18-1.536-6.265-2.322l.409-1.58c2.253-.307 4.504-.862 6.76-.881 12.988-.112 25.978-.072 38.967-.135 6.826-.034 11.771 2.883 16.047 8.296 13.517 17.109 27.382 33.944 41.196 50.817 9.808 11.979 19.74 23.857 29.65 35.753 1.333 1.6 2.86 3.039 5.136 5.435 0-6.208.031-11.127-.006-16.046-.162-22.151-.169-44.306-.611-66.452-.164-8.196-1.626-9.376-9.534-11.816-3.113-.96-6.2-2.003-9.299-3.009l.287-1.83c1.981-.42 3.959-1.19 5.943-1.203 12.822-.083 25.647-.068 38.468.135 1.24.019 2.456 1.535 3.684 2.356l-.71 1.353c-2.256.396-4.528.714-6.763 1.202-8.33 1.82-11.366 5.196-11.383 13.787-.046 22.656.222 45.313.244 67.969.02 20.656-.096 41.312-.214 61.968-.017 2.954-.386 5.905-.578 8.65-6.183 1.479-10.005-.129-14.001-4.97-33.28-40.317-66.955-80.308-100.521-120.388-.94-1.124-2-2.148-3.451-3.695-.27 1.43-.577 2.311-.583 3.194-.23 34.811-.433 69.623-.623 104.884Z"/><path fill="#0C5067" d="M915.577 336.271c.008 14.483-.059 28.48.053 42.476.093 11.497 3.111 21.697 13.228 28.668 1.055.727 1.4 2.483 2.482 4.536-18.239-.833-31.982-8.219-43.503-22.116-.826 1.375-1.235 2.308-1.861 3.061-22.329 26.825-64.206 25.141-84.429-3.38-27.367-38.596-7.2-91.318 39.371-103.217 16.617-4.246 31.966-1.23 46.572 7.098 4.461 2.544 8.853 5.208 13.278 7.817 8.103-5.933 16.764-10.024 26.607-11.099 1.23-.134 2.584.87 3.88 1.347-.497 1.147-.667 2.802-1.54 3.365-12.189 7.855-13.442 20.212-13.826 32.966-.081 2.665-.205 5.328-.312 8.478m-54.7-43.012c-11.941-.143-21.152 5.033-28.032 14.565-6.929 9.601-9.856 20.637-10.871 32.213-1.291 14.719.782 28.901 8.008 42.005 3.959 7.18 9.468 12.925 17.256 15.926 16.229 6.253 31.836-1.821 34.911-20.471 2.735-16.593 2.407-33.755 2.569-50.675.059-6.145-1.777-12.52-3.811-18.424-3.05-8.854-9.428-14.324-20.03-15.139Zm369.993 96.205c2.26 7.117 4.49 13.649 11.77 16.903 1.34.601 1.79 3.21 2.94 5.457-18.63-.04-31.92-8.902-43.54-21.989-6.1 10.98-15.45 16.907-26.76 19.876-11.57 3.038-23.1 2.49-34.38-1.55-22.72-8.133-37.37-29.413-37.46-54.282-.21-56.368 54.11-79.104 91.59-64.544 6.5 2.526 12.21 7.096 19.3 11.327 9.09-3.506 18.35-12.187 31.69-9.872-.82 1.781-.95 2.819-1.52 3.193-9.97 6.572-14.1 16.582-14.28 27.72-.36 22.445.3 44.905.65 67.761m-87.76-9.531c1.02 1.719 1.94 3.501 3.06 5.148 7.23 10.623 16.98 16.548 30.08 14.554 13.39-2.037 18.94-12.102 20.38-23.926a328.401 328.401 0 0 0 2.36-43.774c-.11-8.46-2.05-17.21-4.85-25.242-3.54-10.142-12.64-14.389-23.24-13.048-14.17 1.792-23.32 10.082-28.73 22.643-9.03 20.99-8.32 42.072.94 63.645Z"/><path fill="#074F66" d="M763.546 408.045c-.767.055-1.534.11-2.925-.19-1.697-.783-2.766-1.573-3.841-1.579-8.767-.053-17.535.042-26.303.09-1.494.008-2.988.001-5.842.001 2.122-3.37 4.208-5.363 4.634-7.664.672-3.627.252-7.46.253-11.206.006-44.494-.016-88.989.024-133.483.006-7.186.352-14.411-9.557-16.299 2.562-.899 4.746-1.561 6.915-1.513 8.792.195 17.584.941 26.366.805 4.699-.072 5.38 1.688 5.369 5.814-.129 47.493-.099 94.987-.04 142.481.005 3.456.868 6.918.798 10.367-.117 5.828 1.394 7.431 7.711 7.265.328-.002.656-.005 1.215.444a5.114 5.114 0 0 1-1.644 2.336c-1.004.826-2.085 1.559-3.133 2.331Z"/><path fill="#0B5167" d="M655.425 373.101c.029-19.142.103-37.792.049-56.443-.011-3.813-.419-7.633-.794-11.434-.591-5.984-3.375-9.904-9.859-10.57-1.567-.161-3.029-1.346-4.389-2.936 20.282-3.708 40.524-2.257 60.955-1.967-.288 4.144-2.358 5.491-5.646 5.141-4.563-.486-6.956 1.711-7.562 5.996-.51 3.611-1.04 7.259-1.055 10.893-.101 25.157-.081 50.315-.06 75.472.002 2.326.12 4.676.471 6.971.807 5.273 3.934 8.014 9.196 8.974 1.691.308 3.192 1.664 4.522 3.31-20.251 4.058-40.322 1.395-60.596 1.683l-.193-3.54c.442-.345.669-.668.942-.713 11.9-1.964 12.406-2.424 13.328-14.378.41-5.309.471-10.645.691-16.459Z"/><path fill="#F58A3F" d="M1197.9 251.01c3.46 3.443 6.93 6.887 11.07 11.001 1.94-4.79 3.8-9.114 5.47-13.51 7.97-20.989 15.96-41.969 23.74-63.026 1.37-3.698 3.16-5.299 7.25-4.927 4.63.42 9.34-.095 13.98.219 1.44.098 3.59 1.268 4.05 2.469 10.1 26.405 20 52.884 29.93 79.352.05.121-.08.305-.38 1.355-5.42 0-11.15.265-16.81-.218-1.16-.099-2.35-2.889-3.08-4.624-4.13-9.771-4.08-9.796-14.57-9.906-5.17-.054-10.33-.163-15.49-.102-8.41.1-10.1.893-12.18 8.794-1.37 5.171-3.93 6.408-8.81 6.278-10.15-.269-20.31.177-30.46-.131-2.24-.068-5.01-1.535-6.51-3.252-3.81-4.374-7.04-9.254-10.34-14.375.37-.711.57-.979.91-1.558.93-1.44 1.73-2.568 3.49-5.063.68 3.155 1.03 4.762 1 6.379-1.03.654-1.69 1.299-2.35 1.944l1.5.824c.41-.922.82-1.844 1.62-2.767 3.11.953 5.81 1.907 8.5 2.853 2.41-4.395.84-9.082-3.13-8.672-5.1.527-4.7-1.873-3.3-5.199 1.03-.081 1.62-.146 2.2-.211 4.19 5.103 8.38 10.206 12.1 15.726-5.41.417-10.34.417-15.28.417 4.17 3.253 8.94 1.691 13.45 1.942.77.043 1.62-1.306 2.43-2.012m65.37-19.138c-2.59-10.693-6.11-21.015-11.95-31.63-4.7 11.325-9.34 21.325-11.18 32.458 8.16 0 15.54 0 23.13-.828Z"/><path fill="#F58A3E" d="M1034.52 225.093c-2.67 2.01-4.99 3.934-7.54 5.454-3.15 1.871-3.98 3.717-1.91 7.2 4.92 8.264 9.41 16.779 14.68 26.279-6.65 0-12.5.152-18.33-.146-.99-.051-2.1-1.904-2.79-3.134-3.87-6.977-7.92-13.879-11.3-21.094-1.74-3.707-3.93-4.937-7.698-4.318-2.6.428-5.23.699-8.68 1.15v26.973h-16.97c-.152-1.224-.409-2.32-.405-3.416.082-24.135.173-48.271.31-72.407.041-7.126.111-7.377 7.081-7.295 11.954.14 24.072-.527 35.812 1.219 21.92 3.26 30.49 24.873 17.74 43.535m-28.68-29.003c-3.83.077-7.678-.059-11.468.363-1.1.122-2.84 1.811-2.88 2.839-.27 6.43-.14 12.877-.14 20.392 8.24-.539 15.718-.523 23.008-1.672 5.32-.84 7.59-5.091 7.37-10.886-.19-5.34-2.85-8.758-8.05-10.018-2.25-.544-4.6-.677-7.84-1.018Zm58.32 21.641c4.81-11.568 9.37-22.827 14.26-33.942.67-1.514 2.91-3.15 4.54-3.275 5.3-.408 10.66-.314 15.97-.02 1.42.079 3.58 1.249 4.03 2.439 10.04 26.256 19.88 52.586 29.75 78.907.1.275-.02.635-.1 1.896-5.49 0-11.06.228-16.59-.183-1.18-.088-2.59-2.342-3.2-3.873-4.19-10.393-4.13-10.436-15.37-10.595-5.49-.078-11 .157-16.48-.171-5.67-.339-8.51 2.5-10.3 7.442-2.76 7.636-2.87 7.582-10.79 7.519-4.16-.033-8.32.002-12.49-.021-.31-.001-.61-.22-1.55-.58 6.06-15.068 12.12-30.128 18.32-45.543m22.75-8.633c-2.69 7.724-5.39 15.448-8.27 23.706h25.16c-4.09-11.209-7.85-21.54-11.62-31.871-.58.104-1.17.207-1.76.31a594.601 594.601 0 0 1-3.51 7.855Z"/><path fill="#F68B3F" d="M1433.73 237.22v-7.748h-40.78v34.495c-4.95 0-9.26.162-13.53-.122-.99-.065-2.68-1.652-2.69-2.545-.14-26.45-.12-52.9-.12-79.779h16.6c0 8.691.18 17.313-.08 25.922-.12 3.854.86 5.276 4.97 5.147 10.49-.328 20.99-.296 31.47-.161 3.3.042 4.36-1.008 4.27-4.296-.23-7.655.02-15.323-.18-22.979-.08-3.1 1.04-4.163 4.03-4.042 3.95.16 7.92.039 12.21.039.11 2.154.28 3.778.28 5.401-.08 24.793-.15 49.586-.4 74.377-.01 1.063-1.7 2.133-2.68 3.14-.15.164-.64.001-.97.008-12.06.277-12.07.278-12.3-11.876-.09-4.83-.07-9.661-.1-14.981Z"/><path fill="#F48A3F" d="M1336.12 213.737c5.52 1.515 10.93 2.259 15.69 4.437 7.95 3.642 13.6 9.599 13.81 19.069.24 11.08-5.63 18.582-14.89 23.526-13.57 7.253-27.31 5.35-40.92-.217-.16-.063-.3-.148-.45-.223-13.5-6.829-13.87-9.235-2.88-20.897 2.88 1.66 5.9 3.324 8.85 5.102 6.67 4.024 13.9 5.378 21.57 4.513 1.31-.147 2.95-.256 3.78-1.06 2.06-1.983 4.72-4.155 5.24-6.646.37-1.778-1.87-4.963-3.79-6.158-3.32-2.068-7.25-3.221-11.02-4.501-5.35-1.819-10.77-3.425-16.17-5.088-8.83-2.721-14.97-8.209-16.23-17.601-1.42-10.498 4.06-18.028 12.48-23.197 13.96-8.572 37.91-5.722 50.81 5.743-2.13 3.612-4.09 7.445-6.61 10.876-.63.857-3.23.961-4.58.476-6.4-2.287-12.58-5.221-19.06-7.24-2.65-.828-6.43-.902-8.63.437-2.47 1.502-4.85 4.869-5.15 7.654-.24 2.154 2.29 5.674 4.49 6.789 4.07 2.056 8.81 2.792 13.66 4.206Z"/><path fill="#F5893D" d="m913.38 244.192-.001 19.476c-5.655 0-10.297.213-14.888-.176-.94-.08-2.389-2.406-2.41-3.716-.114-7.323.208-14.652.251-21.98.103-17.328.237-34.658.114-51.985-.029-4.07 1.185-5.667 5.376-5.518 12.614.448 25.417-.598 37.816 1.206 18.138 2.638 25.564 15.091 22.242 34.026-1.661 9.471-11.292 16.121-23.709 17.486-6.441.708-12.959 1.247-19.42 1.067-4.563-.126-6.044 1.317-5.375 5.627.202 1.3.014 2.661.004 4.487m7.799-47.991c-2.453.754-6.929 1.302-7.03 2.296-.646 6.348-.329 12.795-.329 19.708 2.715 0 4.859.127 6.984-.024 5.764-.41 11.628-.416 17.245-1.583 4.497-.934 6.534-4.721 6.526-9.462-.007-4.777-2.018-8.277-6.729-9.18-5.158-.989-10.464-1.209-16.667-1.755Z"/><path fill="#F58A3E" d="M1155.3 247.242v16.536h-16.63v-83.294l17.3.783v31.777c.57.198 1.14.396 1.72.595 2.24-2.281 4.69-4.394 6.69-6.872 6.37-7.885 12.52-15.94 18.88-23.836.84-1.053 2.34-2.179 3.57-2.227 5.95-.231 11.9-.104 17.86-.104l.9 1.613c-4.3 5.302-8.55 10.651-12.93 15.892a993.6 993.6 0 0 1-15.23 17.823c-2.13 2.424-2.11 4.509-.14 7.052 2.34 3.015 4.34 6.3 6.21 9.8-2.23-.64-4.19-1.611-6.16-2.582l-.63 1.041c.87 1.052 1.74 2.104 3.34 4.028-2.47 1.224-4.63 2.131-6.58 3.366-.61.381-.64 1.659-1.26 2.353-2.39-1.067-.7-6.038-5.01-4.505 0 0-.03-.074.1-.462-.59-2.442 3-5.452-1.04-6.667-2.6-.781-5.02-.279-5.59 3.091 0 0 .01-.129-.3-.164-5.06-1.404-2.34 4.124-4.87 4.724-.16-.182-.24-.228-.33-.274.11.149.23.299.35.858.03 1.499.04 2.59.06 3.682.01.73.03 1.461-.39 2.602-1.12 1.78-1.81 3.149-2.5 4.518.5.338 1 .676 1.49 1.014.38-.72.75-1.44 1.12-2.161Z"/><path fill="#2F3436" d="M591.65 538.151c-.034-5.996.113-11.503-.151-16.99-.316-6.594-3.069-9.973-8.265-10.82-4.883-.796-9.551 1.828-11.686 7.351-1.165 3.015-1.635 6.44-1.733 9.7-.238 7.967-.078 15.945-.078 24.229h-7.378c0-4.051.081-8.133-.018-12.211-.17-6.98-.182-13.98-.782-20.926-.402-4.65-3.559-7.458-8.192-8.128-4.585-.664-8.434 1.153-10.446 5.204-1.424 2.866-2.226 6.298-2.339 9.511-.309 8.777-.106 17.572-.106 26.614h-7.294v-46.368h7.049l.438 6.044c4.071-4.572 8.507-7.562 14.619-7.405 6.193.161 10.089 3.425 13.056 8.922 3.94-5.484 8.616-9.048 15.463-8.912 8.422.167 14.102 4.115 14.645 12.485.749 11.561.188 23.207.188 35.164h-6.99v-13.464Z"/><path fill="#2D3132" d="M715.93 564.042c4.506 1.166 8.623 2.942 12.802 3.103 12.751.492 19.566-8.292 17.008-20.699-3.429 1.894-6.748 4.573-10.523 5.652-11.045 3.158-21.324-2.776-23.433-14.028-1.101-5.869-1.003-12.365.274-18.201 3.484-15.912 21.944-21.048 33.447-10.137l1.351-4.467h6.549c0 16.491.583 32.797-.199 49.036-.551 11.422-7.893 18.234-19.396 19.015-5.811.395-11.829-.766-17.605-1.947-3.245-.664-3.44-5.478-.275-7.327m4-44.61c-.179 5.713-1.201 11.56-.318 17.104 1.047 6.57 6.314 10.05 12.434 10.016 6.52-.037 11.981-4.023 13.385-10.478.801-3.679.84-7.571.839-11.367-.003-7.329-3.953-12.651-10.17-14.169-6.474-1.58-12.2 1.397-16.17 8.894Z"/><path fill="#2F3335" d="M468.165 495.733c4.047 12.229.557 19.758-10.868 25.256l20.052 30.269c-6.327 1.79-10.189.491-12.716-5.102-2.106-4.662-5.345-8.798-7.758-13.34-3.98-7.49-9.974-10.18-18.621-8.238v27.01h-7.472V485.74c9.059.567 18.352.465 27.349 2.048 3.613.635 6.576 4.971 10.034 7.945m-27.025-2.517c-.985.738-2.802 1.45-2.826 2.218-.22 7.083-.13 14.175-.13 21.973 5.441-.423 10.291-.322 14.92-1.281 5.774-1.196 8.809-6.116 8.563-12.343-.226-5.734-3.326-9.254-9.602-10.208-3.263-.496-6.637-.263-10.925-.359Z"/><path fill="#2E3233" d="M915.028 503.308c-.224 9.586-5.289 15.101-12.504 17.642l19.99 30.328c-6.21 1.728-10.112.651-12.64-4.982-2.029-4.522-5.171-8.531-7.516-12.93-4.021-7.54-9.924-10.878-18.883-8.849v26.986h-7.566v-65.074c7.629 0 15.284-.55 22.828.134 10.14.919 14.797 6.081 16.291 16.745m-8.18 2.194c.483-10.383-6.918-13.955-23.164-11.729v23.22c3.979 0 7.617.226 11.218-.048 6.812-.518 10.368-3.853 11.946-11.443Z"/><path fill="#2F3436" d="M1346.65 548.161v-42.762h7.41c.17 1.965.34 4.05.42 5.019 4.48-2.025 9.07-5.349 14.05-6.096 10.43-1.565 18.1 3.842 19.95 14.277 1.12 6.341 1.05 13.399-.54 19.613-3.72 14.622-21.84 20.356-33.45 7.863v26.902h-7.84v-24.816m34.7-27.652c-3.17-8.023-7.9-11.223-14.96-10.13-6.85 1.061-11.57 6.723-11.96 14.477a96.72 96.72 0 0 0-.04 7.988c.27 7.371 4.51 12.575 10.85 13.447 7.65 1.051 13.5-2.396 15.33-10.157 1.11-4.736.68-9.837.78-15.625Z"/><path fill="#2C3032" d="M1068.69 488.319v63.251h-7.06c-.25-1.893-.5-3.783-.67-5.109-3.84 2.01-7.36 4.682-11.31 5.757-10.31 2.806-20.02-2.415-22.33-12.858-1.42-6.401-1.47-13.657 0-20.035 3.64-15.782 22.64-20.303 33.57-9.104v-27.395h7.8v5.493m-13.17 55.523c6.56-5.419 5.97-12.919 5.76-20.229-.22-7.22-5.03-12.552-11.71-13.324-6.74-.781-13.17 3.105-14.79 9.885-1.07 4.437-1.55 9.293-.97 13.788 1.45 11.117 10.96 15.549 21.71 9.88Z"/><path fill="#2F3335" d="M1138.52 529.276v22.293h-7.43v-64.932h7.23v28.854l1.17.883c.91-1.216 1.78-2.479 2.76-3.639 5.81-6.865 11.87-13.527 17.39-20.617 3.58-4.598 7.4-7.466 14.18-5.274-9.1 10.27-18.15 20.479-27.39 30.904 9.77 11.133 19.48 22.199 29.49 33.619-6.6 1.494-11.04.438-15.07-4.986-6.63-8.939-14.28-17.126-22.32-26.603 0 3.619 0 6.318-.01 9.498Z"/><path fill="#2A2D30" d="M1278.64 538.158v13.545h-7.11v-68.844h6.89v28.382c.48.397.97.794 1.46 1.192.81-1.308 1.41-2.853 2.49-3.882 5.23-4.983 11.53-5.655 18.09-3.558 6.42 2.049 8.96 7.376 9.14 13.537.33 10.942.1 21.901.1 33.127h-7.17c0-7.327.08-14.746-.04-22.162-.05-3.634-.02-7.372-.84-10.873-2.01-8.617-11.11-11.281-17.82-5.431-3.77 3.289-5.16 7.619-5.18 12.483-.02 3.996-.01 7.992-.01 12.484Z"/><path fill="#2F3436" d="M791.722 522.522c1.251-.996 2.731-1.855 2.784-2.795.307-5.482-3.631-9.526-9.258-9.419-2.613.05-5.302.594-7.79 1.418-2.452.812-4.693 2.261-7.103 3.468-1.731-5.322.165-8.658 5.269-9.554 4.858-.852 9.902-1.64 14.763-1.235 6.899.574 11.425 5.814 11.8 13.916.507 10.94.126 21.921.126 33.244h-7.23l-.651-5.791c-5.045 5.689-10.875 8.425-18.233 6.745-5.975-1.363-9.793-5.053-10.631-10.454-1.043-6.725 1.159-12.957 6.924-15.135 5.959-2.251 12.509-2.938 19.23-4.408m-2.826 6.531c-3.723.744-7.536 1.198-11.146 2.311-3.993 1.231-4.869 4.564-4.434 8.406.439 3.876 2.751 5.845 6.414 6.507 10.016 1.813 16.683-6.434 14.378-18.009-1.445.231-2.896.464-5.212.785Z"/><path fill="#2E3334" d="M1185.5 528.046c8.17-2.454 16.06-4.667 24.2-6.951.18-3.598-.59-7.404-4.57-9.682-4.38-2.516-10.77-1.228-19.19 3.641-1.89-6.021-1.56-7.547 4.08-9.01 4.88-1.268 10.14-1.981 15.15-1.653 7 .458 11.67 5.599 12.07 13.59.55 11.079.13 22.205.13 33.633h-7.18c-.22-1.839-.43-3.547-.65-5.386-9.79 8.105-19.75 8.932-25.78 2.285-4.88-5.383-4.24-14.26 1.74-20.467m2.94 8.926c-.06 6.926 2.87 9.842 9.55 9.486 8.71-.465 13.81-8.781 11.05-18.233-4.41.679-8.88 1.175-13.25 2.106-3.25.693-6.52 1.782-7.35 6.641Z"/><path fill="#2D3234" d="M961.209 507.349c11.121 7.129 12.348 27.669 4.158 37.535-6.394 7.702-14.984 9.468-24.394 7.267-8.588-2.009-13.781-7.703-15.557-16.27-2.187-10.551-1.097-20.596 8.189-27.413 8.474-6.22 17.938-6.09 27.604-1.119m-10.709 3.002c-9.28-.375-15.238 2.722-16.865 10.539-1.103 5.3-1.127 11.416.423 16.546 2.845 9.416 16.343 12.396 23.623 5.703 6.138-5.645 5.645-13.226 4.619-20.532-.881-6.271-4.554-10.593-11.8-12.256Z"/><path fill="#2D3132" d="M689.881 522.405c3.197-2.43 2.102-7.9-1.691-10.495-4.399-3.009-8.976-1.606-13.405-.192-2.31.737-4.402 2.156-6.596 3.269-1.61-6.468-1.309-7.68 4.705-9.201 4.583-1.158 9.502-1.709 14.214-1.457 6.791.364 11.852 5.187 12.202 12.299.568 11.561.153 23.169.153 35.029h-6.833l-.572-4.923c-3.634 1.944-7.056 4.6-10.918 5.672-8.357 2.321-15.941-1.937-17.815-9.211-2.257-8.764 1.778-15.767 10.916-18.103 4.96-1.267 10.118-1.758 15.64-2.687m-17.522 21.413c4.53 3.257 9.767 3.795 13.839.937 5.673-3.983 6.76-9.764 5.777-16.608-4.768.72-9.359 1.212-13.859 2.14-7.143 1.474-9.232 5.965-5.757 13.531Zm-171.75 8.623c-13.523 1.99-21.56-6.285-18.066-18.102 1.526-5.162 5.336-8.044 10.252-9.169 5.97-1.367 12.076-2.139 18.1-3.164.379-12.736-8.039-15.184-23.818-7.041-1.337-6.707-.968-7.915 5.381-9.446 4.447-1.072 9.23-1.507 13.788-1.181 7.121.51 11.997 5.86 12.232 13.433.346 11.132.089 22.282.089 33.798h-6.89a8073.63 8073.63 0 0 0-.691-4.648c-3.466 1.882-6.724 3.651-10.377 5.52m9.137-12.887 2.274-11.802c-6.586 1.242-11.971 2.032-17.233 3.322-4.216 1.034-5.649 4.379-5.184 8.442.48 4.199 3.071 6.404 7.238 6.868 5.499.611 9.701-1.394 12.905-6.83Zm497.404-18.198c-1.84-12.686-8.098-14.221-24.174-6.409-1.152-6.94-.901-7.907 5.576-9.455 4.44-1.063 9.23-1.49 13.778-1.146 7.09.537 11.92 5.917 12.15 13.501.34 11.12.09 22.258.09 33.739h-6.77c-.28-1.452-.61-3.136-.86-4.437-3.89 1.902-7.478 4.464-11.468 5.44-8.184 2.008-15.403-2.385-17.183-9.615-2.102-8.535 1.92-15.609 10.703-17.836 5.93-1.503 12.038-2.244 18.158-3.782m-8.058 24.456c6.968-3.756 9.228-8.825 7.638-17.834-5.34 1.015-10.778 1.648-15.978 3.155-4.999 1.451-6.798 6.792-4.289 11.239 2.749 4.878 7.319 4.325 12.629 3.44Z"/><path fill="#0D5166" d="M658.642 272.046c-5.257-6.827-6.014-14-2.333-20.131 3.403-5.667 11.551-9.515 17.929-8.467 6.354 1.043 11.682 5.994 13.085 12.749 1.387 6.681.659 12.98-5.217 17.562-5.39 4.203-13.906 4.753-19.716 1.32-1.269-.75-2.345-1.827-3.748-3.033Z"/><path fill="#323638" d="M1427.22 549.892c-13.02 7.526-24.83 1.407-26.5-13.377-.16-1.484-.11-2.996-.11-4.494-.01-8.8 0-17.599 0-26.673h7.63c0 7.367-.02 14.658.01 21.948 0 2.498 0 5.003.18 7.491.56 7.654 3.93 11.401 10.32 11.619 6.96.238 12.25-3.984 12.78-11.211.57-7.791.3-15.643.38-23.469.02-1.982.01-3.964.01-6.301h7.32v46.248h-6.85c-.25-1.667-.51-3.419-.84-5.644-1.47 1.336-2.74 2.49-4.33 3.863Z"/><path fill="#2D3234" d="M643.15 505.16c7.236 3.673 8.87 10.089 9.067 16.933.276 9.638.07 19.289.07 29.395h-7.494c-.059-1.326-.183-2.903-.19-4.481-.034-8.154.117-16.313-.1-24.462-.2-7.522-3.785-11.789-9.793-12.303-6.158-.527-12.323 3.763-13.081 10.514-.923 8.224-.611 16.587-.812 24.891-.047 1.962-.007 3.927-.007 6.081h-7.078v-46.467h6.773l.641 6.638c6.065-7.36 13.178-9.526 22.004-6.739Z"/><path fill="#245966" d="M766.837 402.675c-6.046.425-7.557-1.178-7.44-7.006.07-3.449-.793-6.911-.798-10.367-.059-47.494-.089-94.988.04-142.481.011-4.126-.67-5.886-5.369-5.814-8.782.136-17.574-.61-26.366-.805-2.169-.048-4.353.614-6.915 1.513 9.909 1.888 9.563 9.113 9.557 16.299-.04 44.494-.018 88.989-.024 133.483-.001 3.746.419 7.579-.253 11.206-.426 2.301-2.512 4.294-4.634 7.664 2.854 0 4.348.007 5.842-.001 8.768-.048 17.536-.143 26.303-.09 1.075.006 2.144.796 3.461 1.512-15.338.289-30.921.289-46.503.289l-.47-2.207c1.55-.86 3.014-2.199 4.665-2.498 7.401-1.337 10.282-4.409 10.504-11.959.098-3.329-.016-6.665-.016-9.998.003-41.497.027-82.994-.022-124.491-.004-3.14-.329-6.311-.84-9.412-.692-4.2-3.271-6.648-7.504-7.661-2.331-.557-4.486-1.847-6.72-2.806l.455-1.929h46.453c0 7.008-.012 14.24.001 21.472.083 43.157.165 86.314.275 129.471.008 2.995.173 5.995.397 8.982.274 3.645 1.956 6.304 5.921 7.634Z"/><path fill="#2F3335" d="M1234.19 527.533c-8.23-7.229-7.06-17.337 2.65-21.327 3.96-1.632 8.69-2.021 13.06-1.946 7.72.133 8.03.831 7.43 8.166-4.14-.726-8.28-1.914-12.46-2.051-3.74-.122-7.43 1.265-8.2 5.728-.74 4.292 2.28 6.236 5.62 7.762 3.91 1.788 8.09 3.15 11.69 5.419 8.18 5.146 7.76 16.075-.74 20.769-7.13 3.937-14.81 4.064-22.08.872-1.87-.82-2.33-4.842-3.36-7.198 6.45.946 11.85 2.002 17.31 2.437 3.12.249 5.88-1.158 6.64-4.745.79-3.726-1.13-6.085-4.2-7.602-4.31-2.124-8.71-4.052-13.36-6.284Z"/><path fill="#2A5F71" d="M119.041 316.565c.59 1.197 1.402 2.841 1.407 4.487.084 24.97.062 49.939.065 74.909.001 4.741-.074 9.485.029 14.224.071 3.316 1.292 5.551 5.233 4.43.159-.046.31-.13.472-.159 9.335-1.687 9.336-1.687 9.336-11.618-.002-65.254-.012-130.507.03-195.761.001-1.907.54-3.815 1.186-5.878.421 9.162.538 18.48.54 27.798.011 60.774-.003 121.547-.009 182.32v4.818h-18.442c0-32.972 0-66.047.153-99.57Z"/><path fill="#323638" d="M1454.53 524.161v-18.767h7.39c.16 2.047.34 4.249.5 6.257 2.65-2.226 4.92-4.993 7.85-6.427 6.71-3.289 9.27-1.131 8.36 6.443-10.82-1.116-15.72 2.812-16.22 13.796-.39 8.609-.08 17.249-.08 26.186h-7.8v-27.488Z"/><path fill="#2A2D30" d="M823.902 549.494c-2.121 1.345-4.234 2.25-7.078 3.468v-47.613h6.835l.462 6.646c2.639-2.364 4.797-5.167 7.644-6.571 2.283-1.125 5.667-1.274 8.03-.407 1.063.39.829 4.314 1.213 6.828-10.628-1.696-15.718 1.913-16.624 12.291-.72 8.257-.357 16.609-.482 25.358Z"/><path fill="#0D5166" d="M390.919 245.795c3.529 4.541 4.67 9.179 2.335 14.215-2.018 4.352-5.831 6.194-10.395 6.544-5.233.402-9.794-2.448-11.959-7.251-2.232-4.954-1.23-10.212 2.603-13.648 3.973-3.563 9.89-4.486 14.344-2.155 1.015.531 1.888 1.334 3.072 2.295Z"/><path fill="#2A2D30" d="M1324.14 541.097v-35.694h7.2v46.121h-7.2v-10.427Z"/><path fill="#184F61" d="M118.899 199.544c.747-.358 1.718-.29 1.667-.293.294 6.641.833 12.953.801 19.261-.08 15.246-.538 30.49-.613 45.736-.032 6.598 3.416 8.451 1.964 19.8-1.469 11.482-5.193 9.246-10.603 7.622-30.462-28.155-6.947-15.08-8.685-19.541.085-.079 1.839-1.096 1.839-1.096 3.811 5.135 9.168 11.127 13.855 17.441 0-30.325 0-59.415-.225-88.93Z"/><path fill="#323638" d="M1083.44 563.36c-1.63.441-3.07.53-5.34.672 1.72-7.362 3-14.296 5.17-20.939.45-1.382 4.2-1.688 6.43-2.49.32.377.65.754.98 1.131-2.35 7.091-4.7 14.183-7.24 21.626Z"/><path fill="#F5893D" d="M1172.53 241.16c.3-.868.33-2.146.94-2.527 1.95-1.235 4.11-2.142 6.58-3.366-1.6-1.924-2.47-2.976-3.34-4.028l.63-1.041c1.97.971 3.93 1.942 6.29 2.924.4.009.78.311.44.65-.73.69-1.12 1.041-1.51 1.393-.96 3.309-1.36 5.709 3.74 5.182 3.97-.41 5.54 4.277 3.13 8.672-2.69-.946-5.39-1.9-8.5-2.856-.39-.002-.4-.009-.4-.009-.34-1.606-.69-3.213-1.37-6.368-1.76 2.495-2.56 3.623-3.84 5.123-.7.453-.92.534-1.14.615 0 0 .03-.127.04-.396-.3-.44-.63-.611-.95-.783 0 0 .08.072.12-.236.08-.522.11-.735.04-1.208-.37-.753-.63-1.247-.9-1.741Z"/><path fill="#184F61" d="M64.778 195.455c1.578-.347 3.673-1.077 5.179-.432 12.81 5.49 25.677 7.405 39.247 2.615 2.567-.906 5.941.473 9.141 1.129-9.497 1.097-19.245 2.846-28.871 2.328-8.223-.443-16.307-3.49-24.696-5.64Z"/><path fill="#323638" d="M1325.59 484.092c3.76-1.428 6.55-.316 6.86 3.232.16 1.784-1.66 4.346-3.33 5.459-.94.632-4.72-.728-4.86-1.583-.37-2.184.59-4.589 1.33-7.108Z"/><path fill="#184F61" d="M76.301 249.317s.748.263.899.207c10.957 4.731 20.319 12.281 28.057 21.542.022.415.256.131-.06.093-1.095-.358-1.988 2.566-2.768 2.246-.466-.321-5.378 2.21-6.148 1.499-3.232-3.498-1.311-13.06-4.602-15.719-4.42-3.572-10.67-6.653-15.378-9.868Z"/><path fill="#2A5F71" d="M161.903 200.527c2.714-.811 5.859-1.416 8.952-2.223 4.251-1.109 8.438-2.465 12.699-3.525 1.903-.473 3.92-.485 6.296-.705-8.298 4.775-17.825 6.071-27.947 6.453Z"/><path fill="#245966" d="M763.989 408.124c.605-.851 1.686-1.584 2.69-2.41.681-.56 1.254-1.251 1.873-2.235 2.151.265 4.306.881 6.46 1.498l-.339 2.303c-3.414.308-6.827.615-10.684.844Z"/><path fill="#2A5F71" d="M138.036 200.445c6.423-.195 13.311-.38 20.377-.236-6.518.301-13.215.274-20.377.236Z"/><path fill="#F58A3F" d="M1161.02 232.442c.22-3.369 2.64-3.871 5.24-3.09 4.04 1.215.45 4.225 1.07 6.694-2.05-.925-4-2.265-6.31-3.604Zm-5.46 4.695c2.47-.734-.25-6.262 4.87-4.826-1.22 2.867-2.79 5.667-4.61 8.713-.26-.847-.27-1.938-.29-3.446.01-.418.03-.441.03-.441Zm16.65 3.849c.59.668.85 1.162.88 1.942-.46.312-.68.339-.91.366-1.63-2.053-3.26-4.106-4.93-6.486 4.26-1.86 2.57 3.111 4.96 4.178Z"/><path fill="#184F61" d="M50.812 188.397c2.617-.307 5.505-.509 6.689 3.332-2.137-.781-4.317-1.921-6.689-3.332Z"/><path fill="#F58A3F" d="M1155.4 246.864a31.547 31.547 0 0 1-1.22 2.539c-.49-.338-.99-.676-1.49-1.014.69-1.369 1.38-2.738 2.4-4.166.35.714.37 1.488.31 2.641Z"/><path fill="#184F61" d="M58.256 192.589c1.221.137 2.67.552 4.166 1.37-1.281-.096-2.609-.594-4.166-1.37Zm-10.517-6.173c.794.163 1.749.587 2.765 1.349-.828-.138-1.716-.613-2.765-1.349Z"/><path fill="#F58A3E" d="M1183 235.148c-.05-.335.34-.686 1.12-1.139.67.022.87.223 1.04.715-.54.278-1.13.343-2.16.424Zm-10.72 8.407c.13-.288.35-.315.92-.368.3.187.27.4.14.923-.39.107-.68-.094-1.06-.555Zm1.04 1.073c.27-.111.6.06.97.518-.28.113-.6-.061-.97-.518Zm.86 1.09c.22-.275.44-.356 1-.497.15.207-.05.475-.48.85-.24.106-.52-.159-.52-.353Z"/><path fill="#0D5166" d="M77.214 249.367c5.12 3.3 10.045 6.246 14.465 9.818 3.291 2.659 5.928 6.126 8.863 9.603-1.327 2.124-2.659 3.878-4.365 5.966-2.635-.46-4.897-1.253-7.167-2.064-.009-.018.124.086-.34-.299-1.419-1.289-4.113-3.27-4.249-3.49-.444-.359-4.308-2.918-6.319-3.759-15.33-7.877-31.159-11.052-48.299-9.529 3.107 11.278 9.425 19.637 16.915 27.6.432.439.764.607 1.039.787-.057.011-.011-.095-.047.276 1.032 3.715 3.333 5.194 6.819 4.891.01-.009-.252-.391-.096-.16.496.366 1.039.82 1.586 1.107.196.266 1.27.888 1.325 1.231 3.984 6.066 11.511 6.922 17.465 8.667 6.687 1.959 15.558 3.152 22.428 4.483-.353 5.401-3.139 11.434-6.695 10.851-3.061-.502-14.019-1.899-17.003-3.163-5.518-2.26-11.435-3.869-16.458-6.939-6.741-4.121-13.622-8.6-18.932-14.328-6.977-7.527-12.717-16.26-18.5-24.805-2.138-3.159-2.928-7.243-4.261-10.931-2.147-5.935-1.125-6.944 4.62-9.502 13.239-5.895 26.618-3.819 39.977-1.378 5.719 1.046 11.219 3.286 17.229 5.067Z"/><path fill="#184F61" d="M94.009 304.151c-7.333-1.333-14.345-2.18-21.032-4.139-5.954-1.745-12.412-3.161-16.076-9.131 15.375 9.65 31.996 12.468 49.697 10.32.018.007.049.029.021.393-.048 1.096-.067 1.827-.087 2.559-4.02 0-8.04 0-12.523-.002Z"/><path fill="#0D5166" d="M105.197 271.159c.434.342.621.596 1.079.925a406.422 406.422 0 0 1 8.228 15.709c-2.566 2.387-3.352.703-3.965-1.546-.783-2.869-1.367-5.393-5.462-5.862-3.59-.41-4.548-5.191-2.544-9.853.788-.051 1.569.269 2.664.627Z"/><path fill="#184F61" d="M89.018 272.707c2.262.794 4.85-1.612 7.48-.782 1.363 1.125 4.643 4.823 5.425 6.385-.484.676-.407 2.114-.503 2.437.007.43-1.488.86-1.54 1.684-.06.394-1.583-.054-1.871-.22-3.189-3.279-6.09-6.391-8.991-9.504Zm16.518 17.455c.17.556.34 1.112.897 2.16 1.289 2.279 2.19 4.065 3.092 5.85.002.439.004.879-.306 1.674-1.065.698-1.819 1.041-2.572 1.384 0 0-.031-.022.092-.407-1.194-3.933-2.802-8.063-3.959-11.772.16-.16.77.101 1.066.126.761.345 1.225.665 1.69.985Z"/><path fill="#0D5166" d="M111.254 302.76c-1.564-2.07-4.447-9.296-5.833-12.127 7.277-1.789 6.514 8.114 5.833 12.127Z"/><path fill="#184F61" d="M104.693 285.163c.101.322 1.591 1.367 2.081 2.053.226 1.228-1.205 3.999-1.2 4.744 0 0-2.344-2.488-2.708-2.591a106.536 106.536 0 0 1-4.918-7.321s.501.189.577.117c.807-.047 1.799-2.959 2.903-2.593.705 1.111 2.932 4.82 3.265 5.591Z"/><path fill="#0D5166" d="M103.846 289.177c-.301-.77-.306-1.516-.314-2.634.84.82 1.684 2.013 2.266 3.412-.727-.113-1.191-.433-1.952-.778Zm2.156 11.381c1.362-1.28 2.679-1.902 4.54-2.571-.807 2.317-2.158 4.678-4.101 7.124-.557-1.244-.524-2.569-.439-4.553Zm-14.7 14.34c-1.259.131-2.769-.022-4.542-.443 1.254-.125 2.773.017 4.542.443Zm11.235-30.073c-.332-.433-.665-1.204-1.003-2.311.331.434.667 1.203 1.003 2.311Zm-3.772-4.775c-.122-.214.062-.476.549-.789.125.215-.058.479-.549.789Z"/><path fill="#2A5F71" d="M119.999 313.628c.041-.02-.04.02 0 0Z"/><path fill="#F5893D" d="M1197.83 251.066c-.74.65-1.59 1.999-2.36 1.956-4.51-.251-9.28 1.311-13.45-1.942 4.94 0 9.87 0 15.3-.063.49-.063.45.106.51.049Zm-17.29-4.902-1.23 2.769-1.5-.824c.66-.645 1.32-1.29 2.35-1.944.37-.011.38-.004.38-.001Z"/><path fill="#F58A3F" d="M1155.53 237.169a5.247 5.247 0 0 1-.36-.44c.09.046.17.092.33.274.06.134.04.157.03.166Z"/><path fill="#0C5167" d="M73.838 312.165c.269-.46.837-.937 1.576-1.174-.311.547-.794.852-1.576 1.174Z"/><path fill="#184F61" d="M47.608 283.767c2.184 1.194 5.503 4.133 7.815 5.985-3.311.583-9.175-2.016-7.815-5.985Z"/><path fill="#184F61" d="M54.687 289.414c.161-.088-.442.193-.074.432.074.049.288.571.37.633-.198.112.2-.699-.296-1.065Z"/></svg>