<svg xmlns="http://www.w3.org/2000/svg" width="3060.592" height="1152.868" viewBox="267.74 658.782 3060.592 1152.868"><path fill="#FEEFB3" d="M2922.32 1192.475c-19.85 30.332-18.967 61.79-5.863 92.965 9.142 21.748 25.168 38.815 47.738 47.231 22.44 8.368 45.82 9.84 69.594 4.687 16.169-3.505 29.694-10.793 41.01-22.837 10.014-10.66 20.955-20.424 28.962-32.9 2.842-4.428 4.234-8.773 4.226-13.986-.091-58.33.934-116.685-.46-174.983-.74-31.01-.989-62.431-9.573-92.769-4.44-15.687-9.37-31.142-18.029-45.254-12.346-20.123-29.573-32.667-52.817-37.402-32.513-6.623-64.018-4.491-94.428 9.354-13.397 6.1-24.169 15.407-31.76 27.926-3.373 5.564-7.221 7.79-13.675 7.618-14.655-.393-29.33-.1-43.995-.147-2.606-.008-5.21-.312-9.185-.568.606-4.35 1.054-8.093 1.657-11.81 4.756-29.316 22.364-48.179 48.932-59.441 20.914-8.867 42.931-13.158 65.387-16.48 31.481-4.655 63.083-4.802 94.547-3.142 29.942 1.579 59.233 7.948 84.899 25.252 24.178 16.301 41.282 38.254 52.41 65.046 10.003 24.085 16.392 49.073 18.192 75.117 1.485 21.5 3.57 43.023 3.67 64.543.415 88.663.174 177.33.174 265.994v12.396c-3.423.391-5.964.914-8.509.932-12.332.088-24.675-.236-36.995.16-5.987.193-10.055-1.909-13.575-6.56-9.217-12.178-18.687-24.163-28.077-36.209-5.524-7.087-6.079-6.474-12.822-.716-10.577 9.032-21.462 17.91-33.161 25.373-19.775 12.614-41.237 21.64-64.867 24.124-15.473 1.626-31.023 3.73-46.525 3.632-31.07-.199-60.53-7.363-86.986-24.553-3.344-2.172-6.866-4.073-10.216-6.237-26.1-16.86-41.47-41.333-50.548-70.5-6.664-21.411-7.058-43.414-5.237-65.229 1.883-22.568 10.59-42.896 25.721-60.439 19.255-22.322 43.75-36.253 70.729-46.622 24.283-9.333 49.35-15.455 75.238-18.073 14.497-1.466 28.996-3.083 43.535-3.923 18.233-1.054 36.507-1.395 54.765-1.994 1.293-.042 2.6.324 4.976.647l2.858 43.298c-9.46 0-17.387-.368-25.27.064-31.95 1.754-63.5 6.012-92.6 20.283-17.118 8.395-32.458 19.55-44.047 36.132zM1811.623 1305.561c5.168-6.544 10.325-12.28 14.319-18.736 2.3-3.72 3.791-8.596 3.821-12.963.28-40.996.48-81.998.026-122.99-.206-18.54.443-37.059.204-55.593-.433-33.6-2.845-66.92-12.003-99.45-7.33-26.04-19.95-48.464-43.046-63.934-10.56-7.073-22.707-9.673-34.737-11.607-22.143-3.559-44.345-1.785-65.92 4.122-20.345 5.57-38.074 15.677-49.996 34.006-1.979 3.043-3.918 5.77-8.526 5.69-17.993-.312-35.994-.172-53.991-.267-.913-.004-1.822-.63-2.915-1.034-2.503-7.528-.02-14.602 2.608-21.25 7.619-19.273 20.302-34.11 39.395-43.134 20.928-9.891 42.98-15.468 65.838-18.484 26.006-3.43 52.094-6.676 78.311-5.578 25.815 1.08 51.692 3.287 76.413 11.799 31.04 10.688 55.192 29.917 71.936 58.428 14.167 24.124 22.395 50.114 26.893 77.611 4.304 26.303 5.785 52.7 5.739 79.302-.156 89.66-.06 179.323-.06 268.984v12.496c-3.29.402-5.816.96-8.345.978-12.999.09-26.004-.164-38.995.15-4.825.116-7.957-1.4-10.878-5.25-10.036-13.225-20.417-26.186-30.682-39.237-.984-1.251-2.072-2.42-3.297-3.844-1.557.69-3.032.906-3.824 1.758-25.688 27.634-57.076 44.823-93.98 52.628-24.067 5.089-48.483 5.492-72.499 3.289-38.758-3.555-73.572-17.878-100.283-47.603-18.923-21.06-30.803-45.595-33.174-74.162-.905-10.9-2.126-21.873-1.732-32.76.83-22.967 6.615-44.738 20.325-63.587 11.453-15.745 25.94-28.41 42.948-37.967 28.99-16.29 60.035-26.408 92.905-31.595 28.555-4.505 57.114-8.018 86.081-7.88 8.257.04 16.512-1.484 24.78-1.646 7.564-.147 8.597 1.099 8.737 8.712.17 9.33.176 18.668-.019 27.997-.16 7.721-1.14 8.68-8.67 8.856-8.662.202-17.373-.412-25.988.273-28.607 2.275-56.722 7.04-82.467 20.617-20.973 11.06-38.671 25.531-49.303 47.67-7.68 15.992-9.004 32.78-7.219 49.688 2.518 23.83 12.53 44.61 30.076 61.3 14.535 13.826 32.227 20.705 51.983 22.725 6.255.64 12.553 2.085 18.758 1.76 19.707-1.033 39.36-3.432 55.423-16.31 8.796-7.052 16.393-15.6 25.03-23.978zM1140.216 1037.765c-12.775-28.252-24.834-56.014-38.076-83.2-9.983-20.498-23.228-38.895-42.71-51.689-11.825-7.764-24.91-12.372-39.213-13.022-1.613-.073-3.214-.428-5.527-.751v-22.228c19.02-1.983 37.658-4.762 56.53-1.434 11.079 1.953 22.306 3.264 33.225 5.874 26.83 6.412 49.565 20.217 69.334 39.364 23.55 22.81 40.822 49.726 53.47 79.772 19.076 45.319 38.079 90.668 57.111 136.006 12.346 29.408 24.677 58.824 37.062 88.216.879 2.087 2.148 4.01 3.826 7.094 8.565-20.284 16.666-39.53 24.816-58.754 10.374-24.473 20.78-48.931 31.185-73.39 12.227-28.742 24.497-57.465 36.692-86.22 10.248-24.164 20.4-48.369 30.625-72.543 6.47-15.299 13.109-30.528 19.456-45.878 4.228-10.224 4.805-10.813 16.18-10.836 10.663-.02 21.326-.038 31.988.018 2.917.016 5.832.302 8.342.442.517 1.003.699 1.289.813 1.6.111.3.296.68.202.933-1.719 4.658-3.298 9.377-5.248 13.938-70.117 164.053-140.27 328.091-210.516 492.361h-22.411c-4.176-9.404-8.715-19.299-12.985-29.308a26275.8 26275.8 0 0 1-37.76-89.003c-11.632-27.545-23.15-55.138-34.776-82.685-8.009-18.976-16.096-37.918-24.185-56.86-12.397-29.034-24.826-58.054-37.45-87.817zM394.678 871.275c25.253 6.23 46.24 18.607 64.85 35.269 29.715 26.603 48.611 60.403 63.813 96.591 12.996 30.94 25.804 61.958 38.683 92.947 16.195 38.966 32.362 77.944 48.597 116.893 1.115 2.674 2.7 5.152 4.576 8.676 7.207-16.835 14.024-32.667 20.767-48.531 10.27-24.162 20.492-48.345 30.728-72.521 11.789-27.848 23.564-55.7 35.357-83.546 10.238-24.175 20.49-48.344 30.738-72.515 8.433-19.886 16.967-39.73 25.264-59.673 4.103-9.865 4.896-10.677 15.276-10.714 10.998-.04 21.997-.045 32.995.015 2.896.016 5.79.33 10.119.594-2.164 5.88-3.734 10.808-5.758 15.542-20.383 47.67-40.915 95.277-61.254 142.966-20.206 47.375-40.155 94.859-60.374 142.227-15.007 35.159-30.315 70.188-45.397 105.314-13.766 32.062-27.595 64.099-40.92 96.344-2.213 5.358-4.89 7.248-10.282 6.912-4.93-.307-9.895-.065-15.09-.065-7.934-18.638-15.62-36.636-23.26-54.654-10.245-24.169-20.424-48.366-30.688-72.528-10.394-24.47-20.87-48.907-31.283-73.369-10.543-24.765-21.042-49.548-31.583-74.314-10.022-23.548-20.005-47.113-30.132-70.616-8.943-20.755-18.101-41.417-27.087-62.154-7.561-17.451-16.84-33.854-28.39-49.027-16.976-22.304-38.288-36.55-67.09-37.65-.92-.035-1.818-.629-3.294-1.17v-21.33c30.065-5.226 59.816-3.974 90.119 4.087z"/><path fill="#FEEFB3" d="M2578.068 1140V918.1h-73.848c0-13.732-.2-26.283.232-38.812.06-1.727 3-3.95 5.078-4.84 1.986-.851 4.588-.3 6.92-.3 92.666-.007 185.332-.006 277.998-.006h9.57c2.419 7.58 2.926 29.247 1.063 43.498-13.925.772-28.134.249-42.313.34-14.666.093-29.333.02-44 .02h-44.159c-.198 4.48-.516 8.322-.517 12.165-.028 89.666-.022 179.331-.022 268.997 0 16.334-.655 32.7.189 48.99.802 15.5 1.984 31.051 7.335 45.981 4.734 13.21 11.988 24.486 22.838 33.306 10.172 8.269 22.356 11.656 35.108 12.449 16.977 1.056 33.913.158 50.33-4.857 3.388-1.035 5.772-.603 7.97 1.98 5.577 6.558 11.171 13.102 17.108 20.061-12.371 9.476-26.878 14.233-41.424 18.518-27.062 7.971-54.99 10.595-82.894 8-39.16-3.64-72.425-19.161-94.05-54.004-7.63-12.294-11.786-25.997-14.42-40.08-2.807-15.007-4.268-30.166-4.165-45.507.231-34.332.073-68.666.073-103.999zM2464.07 1084v299.289h-95.532c-.162-4.069-.45-7.936-.45-11.803-.025-105.278.03-210.556-.052-315.834-.025-31.32-8.012-60.5-25.496-86.635-16.833-25.163-40.762-38.743-70.679-43.359-20.646-3.185-40.408-1.333-59.554 6.184-8.557 3.359-16.387 8.624-24.417 13.25-3.378 1.946-6.421 4.475-10.586 7.426-.623-2.966-1.302-4.737-1.318-6.514-.1-11.326.197-22.662-.17-33.978-.161-5.013 1.678-8.173 5.827-10.493 20.14-11.26 41.05-20.604 64.17-23.48 14.766-1.837 29.723-4.202 44.483-3.598 34.307 1.404 68.08 6.235 98.606 23.96 20.597 11.96 36.752 28.169 48.704 48.77 9.918 17.093 17.649 35.039 21.09 54.517 2.357 13.336 4.246 26.83 5.116 40.332.876 13.605.235 27.307.258 41.966z"/><path fill="#FEEFB4" d="M890.067 1046c-.002-21.318.268-41.64-.08-61.951-.349-20.454-4.867-40.07-13.25-58.797-4.8-10.725-13.207-17.283-23.826-21.326-5.235-1.993-10.66-3.487-17.059-5.548l5.042-23.366c2.318-.297 4.555-.822 6.794-.831 17.32-.07 34.705-.982 51.94.224 17.383 1.217 35.317 1.416 51.251 10.155 11.426 6.267 19.961 15.633 24.748 27.73 4.637 11.716 8.162 23.81 8.53 36.652.35 12.256 1.462 24.49 1.883 36.745 4.325 125.807.704 251.656 1.89 377.48.028 2.963.003 5.928.003 8.65-7.505 2.445-78.868 3.273-96.093 1.331-.177-.193-.412-.431-.624-.688-.206-.249-.555-.518-.555-.778-.215-108.228-.404-216.455-.594-325.682z"/><path fill="#FEEFB3" d="M2051.93 1310c0-98.63.312-196.262-.244-293.889-.122-21.442-1.587-43.115-8.015-63.918-4.927-15.942-11.955-30.56-28.656-37.47-10.508-4.347-21.594-6.452-32.967-6.689-8.245-.171-16.497-.033-25.417-.033V886.71c3.118-.25 5.998-.676 8.88-.68 34.32-.046 68.645-.365 102.96.104 19.186.263 37.606 4.522 53.55 16.027 6.764 4.881 12.544 10.73 16.403 18.449 2.621 5.244 3.734 10.432 3.722 16.26-.123 60.977-1.66 122.005.31 182.919 2.713 83.912.217 167.8 1.606 251.685.06 3.614.008 7.23.008 10.593-7.791 2.318-72.778 3.08-91.483 1.17-1.423-23.94-.298-48.108-.657-73.237z"/><path fill="#FEEFB4" d="M1112.013 738.545c.973 8.808-2.56 14.67-9.593 17.691-11.259 4.838-22.593 9.808-34.347 13.113-18.145 5.101-36.519 9.747-55.084 12.874-14.51 2.444-29.23 5.5-44.3 2.058-8.653-1.977-17.77-1.845-26.523-3.493-12.377-2.33-22.26-9.94-32.726-16.414-12.697-7.854-25.602-15.499-38.972-22.111-29.58-14.63-57.673-10.24-83.034 9.777-10.226 8.071-20.896 11.012-33.264 9.893-2.593-.235-5.277-.81-7.654-1.84-10.063-4.359-12.927-13.216-5.854-21.5 5.288-6.194 11.93-11.567 18.806-16.011 30.48-19.7 63.961-29.322 100.283-26.266 26.488 2.228 51.269 10.441 73.332 25.85 5.444 3.802 11.221 7.134 16.618 11 19.498 13.966 41.507 14.999 63.993 11.906 21.115-2.905 41.142-10.22 61.308-16.876 8.102-2.673 16.299-4.891 25.179-2.277 6.438 1.896 10.683 5.045 11.832 12.626z"/><path fill="#FEEFB3" d="M2810.29 1672.142c8.61.002 16.28-.21 23.926.133 2.403.108 5.766 1.026 6.919 2.754 3.993 5.987 7.206 12.494 10.81 18.97-7.902 2.412-88.136 2.876-100.149.592 4.777-8.645 9.246-16.995 13.956-25.207 14.049-24.494 28.195-48.931 42.293-73.396.664-1.154 1.205-2.377 1.857-3.539 8.44-15.04 8.439-14.893 25.463-14.402 4.5.13 7.385 1.51 9.634 5.506 5.699 10.127 11.849 20 17.67 30.06 19.301 33.355 38.385 66.837 57.897 100.069 5.234 8.913 2.828 17.87 2.888 27.636H2736.8v-21.12c52.17-.57 104.178.175 158.155-.423l-64.806-112.565c-13.433 21.187-23.965 42.583-36.407 64.931h16.549z"/><path fill="#FEEFB4" d="M3016.713 1717.587c8.176-3.034 14.146-7.86 18.553-14.257 10.3-14.95 4.003-34.377-13.054-41.125-2.128-.841-4.286-1.607-7.077-2.65 4.795-3.16 9.481-5.404 13.104-8.788 12.156-11.358 10.452-31.22-2.956-41.318-6.948-5.233-14.52-7.588-23.199-7.51-20.988.19-41.979.081-62.968.04-3.247-.006-6.493-.286-10.375-.47v-22.566c2.664-.298 4.897-.763 7.132-.767 25.321-.052 50.667-.721 75.953.21 16.582.61 32.161 5.523 42.461 20.259 11.473 16.414 10.639 39.979-1.845 55.77-.79 1-1.452 2.102-2.359 3.426 15.408 12.933 18.675 29.185 13.998 47.705-4.018 15.916-15.4 25.194-29.362 31.67-7.517 3.487-15.611 5.061-24.196 4.92-23.648-.392-47.307-.136-70.962-.136H2928.9v-21.385c3.01-.198 6.187-.577 9.366-.587 18.324-.058 36.652.177 54.97-.127 7.583-.125 15.148-1.34 23.478-2.314z"/><path fill="#FEEFB5" d="M3090.141 1601.866c-1.978 0-2.978-.002-3.978 0-16.375.032-16.12 1.628-15.923-16.579.02-1.938.382-3.874.65-6.423 2.836-.31 5.379-.82 7.923-.83 16.666-.066 33.356-.584 49.993.114 25.087 1.052 47.6 8.733 64.712 28.36 11.345 13.014 17.237 28.339 18.313 45.372.906 14.344.08 28.635-5.941 42.063-11.19 24.953-31.086 39.255-57.002 45.76-6.044 1.516-12.443 2.088-18.695 2.202-16.328.297-32.664.123-48.997.08-3.255-.008-6.509-.27-10.43-.445v-20.654c2.909-.324 5.452-.834 7.999-.852 12.666-.084 25.364.515 37.99-.208 10.842-.62 21.8-1.113 32.257-5.062 17.765-6.707 29.134-19.015 34.348-37.226 5.03-17.569 3.391-34.574-6.513-49.77-10.77-16.525-26.411-25.84-46.728-25.894-13-.035-26-.007-39.978-.008zM2535.433 1647.428c-3.185 2.207-5.846 3.939-9.297 6.185 5.947 2.8 11.056 4.994 15.97 7.562 9.022 4.713 13.614 12.332 13.941 22.486.107 3.324-.075 6.657.042 9.98.54 15.399-8.296 25.365-20.866 31.085-9.111 4.146-19.694 6.21-29.767 6.836-17.235 1.07-34.584.297-51.885.252-1.286-.004-2.572-.378-4.941-.75-.19-3.515-.54-7.028-.544-10.541-.04-36.931-.024-73.862-.026-110.793 0-2.662.123-5.333-.051-7.983-.578-8.79-4.02-12.44-12.707-13.75-2.205-.333-4.392-.778-8.155-1.452 2.152-2.123 3.124-3.703 4.514-4.282 1.433-.597 3.271-.26 4.932-.261 22.292-.006 44.596-.443 66.87.178 12.73.354 24.441 4.256 34.778 12.758 13.077 10.756 13.602 39.214.603 49.26-1.047.81-1.928 1.832-3.411 3.23m-16.99 68.353c11.129-5.006 15.332-14.76 15.146-25.764-.19-11.193-5.667-19.745-16.731-24.82-14.936-6.853-30.21-4.927-46.64-4.902 0 18.854-.072 36.69.06 54.523.028 3.683 2.98 4.507 6.133 5.274 14.004 3.404 27.524 2.242 42.032-4.311m-3.531-115.832c-11.453-8.745-24.772-8.427-38.15-7.88-4.426.181-6.685 2.303-6.675 6.842.032 15.297.056 30.594-.024 45.891-.026 5.15 2.581 7.123 7.428 7.063 10.65-.134 21.05-1.497 31.143-5.173 19.42-7.073 24.292-34.38 6.278-46.743zM2652.575 1670.746c-8.832 22.314-16.723 44.196-26.142 65.4-6.596 14.848-15.063 29.015-29.682 37.807-5.323 3.2-11.168 5.533-18.04 8.877l-6.694-17.951c5.503-3.266 10.502-6.375 15.633-9.248 10.28-5.756 14.849-15.843 19.367-25.82.9-1.989.108-5.191-.796-7.48-11.827-29.935-23.838-59.797-35.727-89.708-1.159-2.915-1.813-6.031-3.163-10.627 6.153 0 10.762.388 15.278-.094 6.24-.666 9.047 2.518 10.942 7.812 7.491 20.932 15.12 41.813 22.732 62.702.865 2.372 1.941 4.667 3.514 8.415 1.815-3.074 3.26-4.79 3.93-6.77 7.441-21.998 14.847-44.01 22.04-66.091 1.336-4.102 3.394-6.153 7.79-6.005 5.19.174 10.389.04 17.556.04a64757.7 64757.7 0 0 1-18.538 48.741z"/><path fill="#FEEFB5" d="M3141.48 1692.112c-6.828 1.464-12.918 3.251-19.09 3.607-9.62.553-19.295.095-28.947.146-4.331.023-7.15-1.613-7.16-6.287-.044-20.591-.02-41.183-.02-62.298 2.81-.502 4.982-1.208 7.162-1.228 11.98-.11 23.996.52 35.936-.189 16.271-.964 37.72 20.285 30.768 41.865-3.415 10.601-9.685 17.75-18.649 24.384m-5.143-37.267c-6.149-9.713-15.067-6.574-23.588-6.229v24.218c17.787 2.634 25.442-2.822 23.588-17.99zM2993.557 1625.995c2.935.004 4.945-.133 6.93.038 6.82.589 11.591 5.431 11.35 11.384-.24 5.918-5.18 10.335-12.185 10.547-5.988.181-11.987.04-17.981.04h-10.26c-2.725 7.918-1.733 15.303-.742 24.13 8.18 0 16.06-.003 23.939 0 2.997.002 6.014-.198 8.986.075 5.166.475 9.435 4.507 10.26 9.316 1.06 6.172-1.047 10.306-6.926 12.796-2.082.882-4.465 1.462-6.714 1.473-17.315.086-34.631.012-51.946-.07-.929-.005-1.855-.525-3.475-1.015v-68.638l48.764-.076z"/></svg>